<?xml version="1.0" encoding="utf-8" ?>
<svg baseProfile="full" height="321.861708572" version="1.1" width="336.287710052" xmlns="http://www.w3.org/2000/svg" xmlns:ev="http://www.w3.org/2001/xml-events" xmlns:xlink="http://www.w3.org/1999/xlink"><defs /><rect fill="white" height="321.861708572" width="336.287710052" x="0" y="0" /><path d="M29.3149622268,275.743327548 m24.557993412,21.1183810234 m0.656630322337,-1.14448033273 l0.813706293702,-1.70619726181 1.03555269539,-2.4860753119 l1.78414314985,-5.834171772 0.36279052496,-2.65815407038 l0.412433482707,-2.58548557758 0.0828161649406,-1.60459324718 l-0.116575276479,-1.21794015169 -0.267724264413,-1.67548924685 l-0.878307521343,-2.78030663729 -0.553126744926,-1.69836729765 l-1.81980967522,-3.26829820871 -0.686723217368,-1.33707612753 l-1.65910288692,-1.97413012385 -1.36233836412,-1.9493187964 l-2.05778941512,-4.04479682446 -0.838814601302,-1.63341090083 l-1.07432976365,-2.26684629917 -0.956122502685,-1.85799971223 l-0.837504938245,-1.54324293137 -0.294258259237,-1.76771685481 l-1.08421370387,-2.83006936312 -0.545144416392,-1.88537850976 m-0.0238797394559,-0.582925006747 l-0.108436429873,0.000226114498219 -0.2715780586,-0.640772953629 l-0.452228747308,-0.635187700391 -0.436249934137,-0.426465943456 l-0.325647518039,-0.421951450408 -0.480010472238,-0.553499981761 l-0.263198297471,-0.575404018164 -0.368604846299,-0.323049873114 l-0.20512541756,-0.365644469857 -0.12103064917,-0.534195117652 l-0.028537097387,-0.753726288676 -0.185548104346,-0.62258284539 l-0.340333580971,-0.559164360166 -0.404296554625,-0.872386693954 l-0.351496785879,-0.508395880461 -0.372805856168,-0.834192633629 l-0.61484746635,-0.581614002585 -0.33934481442,-0.526303909719 l-0.599980466068,-0.705871805549 -0.986391380429,-1.0000346601 l-0.503662191331,-0.658823624253 -1.8253070116,-2.2132255137 l-2.44955807924,-2.64449775219 -0.794551074505,-1.32750585675 l-0.566689148545,-1.31098002195 -0.469575151801,-1.48652762175 l-0.507179051638,-2.2828450799 -0.740822404623,-2.28867873549 l-0.398802012205,-1.29694521427 -0.363106429577,-1.40757143497 l-0.191439799964,-1.96075767279 -0.429108180106,-1.30608618259 l-0.222052652389,-1.55793249607 -0.218460764736,-1.49841889739 l-0.113815814257,-1.61470130086 -0.916041135788,-3.64031940699 l-0.592587590218,-2.2358430922 -0.366247743368,-1.3976123929 l0.0207124906592,-1.19355812669 -0.00973249378148,-1.44617065787 l0.0540318526328,-1.25627249479 0.0127702567261,-1.14545494318 l-0.0969397556037,-1.29549846053 -0.0214066193439,-2.16887667775 l0.0994269829243,-1.99827298522 0.0214616651647,-1.37216880918 l0.104660401121,-0.766045674682 0.200032610446,-0.994344353676 l0.214407965541,-1.28895327449 0.423282086849,-2.04919815063 l0.541520901024,-0.975804626942 0.306361038238,-1.4836101234 l0.233590546995,-0.851102769375 0.202541295439,-1.40695020556 l0.283877979964,-1.06189273298 0.219891127199,-0.985577255487 l0.714189037681,-1.01676888764 0.539646595716,-1.00156061351 l1.36539489031,-1.86009585857 0.484680645168,-0.99193893373 l0.685136988759,-1.25994354486 0.331070646644,-0.613584667444 l0.748775675893,-0.886776447296 0.645402818918,-0.3870273754 l0.537323690951,-0.599327497184 0.581842064857,-0.717279165983 l0.377195477486,-0.584522038698 0.685492455959,-0.478753857315 l0.575895421207,-0.338792838156 0.505846068263,-0.222877040505 l0.778916478157,-0.38216855377 0.418193824589,-0.293306596577 l0.569647885859,-0.618291124701 0.310538262129,-0.560437180102 l0.18334556371,-0.480805784464 0.19559148699,-0.536163933575 l0.345718935132,-0.432664118707 0.560563467443,-0.360997505486 l0.343294851482,-0.7834135741 0.326190665364,-0.726913139224 l0.514298677444,-0.539999045432 0.529519990087,-0.732768177986 l0.805993899703,-0.696879029274 1.59979909658,-1.83775469661 l0.876867175102,-0.556096471846 0.689203590155,-0.404153764248 l0.995062738657,-0.831448733807 1.83752715588,-1.60320937634 l0.723697245121,-0.668561533093 0.700772032142,-0.794157236814 l0.718544945121,-0.412093400955 1.01189300418,-0.707931295037 l1.07415065169,-0.820008218288 0.822466015816,-0.469514206052 l1.07260085642,-0.675818771124 0.638281926513,-0.619318820536 l0.788171812892,-0.380480811 0.662265568972,-0.449814908206 l1.05718553066,-0.592273063958 1.03892795742,-0.615846142173 l0.931472480297,-0.49873329699 0.629995837808,-0.353880003095 l0.756372585893,-0.018135298742 0.896306112409,-0.498697720468 l0.776202976704,-0.296852476895 1.26532882452,-0.650338232517 l1.47189021111,-0.682080164552 1.66806131601,-0.893448665738 l1.40263557434,-0.868432596326 1.0633610934,-0.538455881178 l1.70235201716,-0.569693334401 0.962584465742,-0.409598127007 l1.24799780548,-0.670909285545 0.84307231009,-0.562580190599 l0.9546559304,-0.525559522212 1.06555134058,-0.763465538621 l1.02315314114,-0.53492218256 0.692502036691,-0.674307122827 l0.769795849919,-0.599472485483 0.643716976047,-0.439618974924 l0.765768811107,-0.545522905886 2.713727355,-2.00959265232 l1.04634657502,-0.620255954564 1.05810843408,-0.678373277187 l1.42687752843,-0.88525377214 1.34802848101,-0.948601588607 l1.56794384122,-0.796733945608 1.38607382774,-0.50073876977 l1.42772376537,-0.781209617853 1.4509947598,-0.79398021102 l1.16506099701,-0.719754695892 1.13389268517,-0.877369195223 l0.787547901273,-0.656273141503 1.07193157077,-0.822661817074 l1.10233023763,-0.28113681823 1.22179321945,-0.573018565774 l1.42404526472,-0.757144019008 1.70980870724,-0.891271233559 l3.5109975934,-1.84504911304 1.26373037696,-0.694049820304 l2.17317983508,-1.1034540087 1.8981128931,-0.580106452107 l1.19786754251,-0.501996278763 1.16173490882,-0.409885644913 l2.58109480143,-0.867109075189 0.86820051074,-0.566390641034 l1.48340240121,-0.586785301566 1.246862486,-0.265786610544 l1.62433117628,-0.31705416739 1.43504545093,-0.679211243987 l2.80180871487,-1.19534239173 1.49593278766,-0.602344758809 l1.6555814445,-0.467433780432 3.124987185,-0.388769172132 l1.88793063164,-0.507484897971 1.57265812159,-0.162343941629 l1.45951732993,-0.325768478215 1.10970079899,0.0908816885203 l1.1548050493,0.115909036249 0.990808978677,0.180079694837 l1.67720839381,0.217617414892 2.03858315945,0.0103543419391 l1.05520062149,-0.0991930253804 0.66282376647,0.193633791059 l0.791957378387,0.152560248971 0.862606316805,0.274746641517 l0.65241523087,-0.024919481948 0.676558539271,-0.103804692626 l0.731177553535,0.221206042916 0.867134258151,0.0228245090693 l0.505856089294,0.163281559944 0.632061213255,0.306047294289 l0.341461747885,0.180589519441 0.395032502711,0.285572167486 l0.265466179699,0.41157990694 0.176508966833,0.589642822742 l0.279296915978,0.907031297684 0.304239038378,0.506080724299 l0.271405167878,0.789896249771 0.19914181903,0.900606811047 l0.187107007951,0.7514423877 0.00676792638842,0.865508615971 l0.126813920215,0.90373903513 -0.0056198623497,0.339816138148 l-0.0239953142591,0.519267842174 0.122721912339,0.699353665113 l0.0690603349358,0.519712045789 0.008282783092,0.412586256862 l0.0941173732281,0.626689121127 0.170815009624,0.400949269533 l-0.0134026701562,0.385051965714 0.139433527365,0.365531593561 l-0.0885487068444,0.415035746992 0.11548826471,0.374969281256 l-0.00169407168869,0.392573475838 0.221782457083,0.234750658274 l0.0395069690421,0.405256785452 0.116180544719,0.0984725821763 l-0.121922036633,0.305774752051 0.560217797756,-0.149202849716 l0.329907238483,0.241576507688 0.114440750331,0.231709871441 l0.34431822598,0.202386323363 0.36194819957,0.301815140992 l0.218628440052,0.31773775816 0.388389788568,0.0706148566678 l0.318734496832,0.273904111236 0.338955335319,0.421217121184 l0.138916186988,0.243260022253 0.475639030337,0.0470818579197 l0.0419475650415,0.254006385803 0.242579113692,0.28614172712 l0.435308888555,0.0976330414414 0.0244999676943,0.179311353713 l0.257390141487,0.212900172919 0.185088980943,0.172919183969 l-0.000569860203541,0.276485625654 0.0287873786874,0.399650558829 l0.131002627313,0.267386864871 0.182707384229,0.328124761581 l0.0524910585955,0.413462594151 0.110000437126,0.57869259268 l0.139179090038,0.575185455382 0.461372770369,-0.0101298990194 l0.136976661161,0.457766912878 0.133960163221,0.274329874665 l0.346290655434,0.4930492118 0.378101095557,0.341622456908 l0.385970473289,0.244230441749 0.262923128903,0.43431840837 l0.41542943567,0.526859685779 0.382901765406,0.0371656799689 l0.363819077611,0.513709895313 0.186697449535,0.13132289052 l0.500372424722,0.431169755757 0.295044090599,0.25929318741 l0.274623874575,0.367053933442 0.340144298971,0.555520243943 l0.636665150523,0.313716977835 0.607626922429,0.54003149271 l0.304875038564,0.140070393682 0.481178946793,0.339439921081 l0.537296012044,0.423378199339 0.360226593912,0.457247160375 l0.279050208628,0.245857462287 0.436291880906,0.32340478152 l0.420591309667,0.357445254922 0.544164888561,0.529352687299 l0.804595649242,0.0557641685009 0.495425127447,0.220068059862 l0.698665380478,0.367481932044 0.428795143962,0.0373854488134 l0.376820266247,0.0563673628494 0.541046448052,0.115049015731 l1.00046895444,0.489807985723 0.551691055298,0.246157832444 l0.678064748645,0.0515974173322 0.602501519024,-0.0262703839689 l0.913919657469,-0.0160512933508 0.871590524912,-0.234529245645 l0.989917591214,-0.183225590736 1.09147593379,0.0199808739126 l1.09183125198,-0.23793483153 1.04095965624,-0.71905054152 l1.03669784963,-0.659396052361 0.938581302762,-0.21115783602 l1.08024276793,-0.594244934618 1.07677780092,-0.762473791838 l1.28670722246,-0.788174122572 1.19560264051,-0.403664782643 l0.747143104672,-0.476554706693 1.28534629941,-0.664291679859 l0.653195306659,-0.443362481892 0.915245041251,-0.603057965636 l0.983657613397,-0.708729624748 0.854641199112,-0.71041315794 l0.681419372559,-0.474701933563 0.526927709579,-0.689936727285 l0.772738978267,-0.354815088212 0.529156960547,-0.634874776006 l0.555376596749,-0.784672871232 0.657937824726,-1.49450138211 l0.620867908001,-0.53273499012 0.54506406188,-0.923619270325 l0.988214313984,-0.753201022744 0.576446652412,-0.375139005482 l0.797813907266,-0.866384059191 0.794956237078,-0.866573005915 l0.775935426354,-0.634418874979 1.55051186681,-1.39219775796 l0.746422410011,-1.16779960692 0.73272831738,-0.639613717794 l0.664929673076,-0.511447265744 0.597549378872,-0.381089746952 l0.620162077248,-1.08985856175 1.08860649168,-0.900107100606 l0.714453905821,-0.345210544765 1.23543262482,-0.339486636221 l0.792503207922,-0.3857190907 0.807766616344,-0.284650158137 l0.939553976059,-0.151802925393 1.7321293056,-0.218143351376 l1.14025600255,0.0106814317405 0.607202425599,0.0340072717518 l0.756377950311,-0.0426834775135 0.971611887217,-0.0958609208465 l1.05552747846,0.0160686695017 2.0228715241,-0.579336434603 l1.32468208671,-0.182449128479 1.46272614598,0.108235254884 l1.35095894337,0.180429853499 0.667702704668,-0.117272436619 l0.994917228818,0.213448628783 1.06115072966,0.18265882507 l0.940363481641,0.441879369318 0.865885615349,0.0769288558513 l0.995751768351,0.300343669951 0.993210449815,0.455317869782 l0.554708093405,0.405013784766 0.571591183543,0.074301646091 l0.654964596033,0.356895327568 0.742263495922,0.094089275226 l0.495176613331,0.156648866832 0.715301334858,0.156734772027 l0.674374774098,0.343042239547 0.740069970489,0.401766560972 l0.674273595214,0.51110945642 0.72051115334,0.542653165758 l0.506140030921,0.533104464412 0.895701944828,0.860899612308 l1.04133151472,0.514295510948 0.329779684544,0.476293191314 l0.663508400321,0.561797395349 0.856837034225,1.2740033865 l0.520331189036,0.897624567151 0.531495958567,0.81107005477 l0.440782122314,0.560173429549 0.277207735926,0.775587931275 l0.452878549695,0.602046921849 0.0909561570734,0.705998986959 l0.236821305007,0.674327388406 0.0527208764106,0.57430755347 l0.185060035437,0.863241329789 0.129837412387,0.805081650615 l0.102091999725,0.887419432402 0.079510146752,0.578518025577 l0.346394069493,0.843789279461 0.261852480471,0.467493720353 l0.282898750156,0.270671918988 0.35275798291,0.00305192224914 l0.163940843195,0.321354717016 0.276720803231,-0.0921258423477 l0.154298078269,-0.0485802255571 0.00618584512267,-0.0829157792032 l0.155161172152,-0.635895878077 0.0715845637023,-0.358400084078 l0.0376461166888,-1.25477284193 0.0968356244266,-0.645145922899 l0.114033017308,-0.416988357902 0.150932697579,-0.469753593206 l0.193557981402,0.221347883344 0.252173356712,0.381861552596 l0.147354500368,0.38852840662 0.190258100629,0.339921191335 l0.119478730485,0.353243276477 0.194711275399,0.495173670352 l0.230048112571,0.272943880409 0.273532606661,0.219353809953 l0.0381355034187,0.303157418966 0.205248184502,0.2712883614 l0.342386029661,0.190179757774 0.357666574419,0.122600216419 l0.326608084142,0.0607803743333 0.13590679504,-0.329181700945 l0.411574952304,-0.530340149999 0.138988234103,-0.79581797123 l0.186797119677,-0.390697047114 -0.186343770474,-0.206060800701 l0.345369204879,-0.630916580558 0.00991379027255,-0.412027686834 l0.104998471215,-0.440974868834 0.17088316381,-0.401528812945 l0.148790879175,-0.440735891461 0.0693956809118,-0.833724141121 l-0.00546775932889,-0.360855683684 0.317327678204,-0.706510171294 l0.546870604157,-1.32392168045 0.591181851923,-0.581160672009 l0.289166178554,-0.775099620223 0.352992713451,-0.577089115977 l0.134352818131,-0.823778361082 0.152565659955,-0.872312560678 l0.267863143235,-0.758536830544 0.00274422753137,-0.536559261382 l-0.111027546227,-0.604499466717 -0.0072178611299,-0.411002896726 l-0.228764116764,-0.898825526237 -0.280995815992,-0.967166423798 l-0.106965145096,-0.743596106768 -0.0924352649599,-0.443136580288 l-0.171061027795,-0.849070996046 -0.221079643816,-0.576028563082 l-0.0863867625594,-0.720681548119 -0.365458317101,-0.712481662631 l-0.592482537031,-0.847195163369 -0.247999541461,-0.539758354425 l-0.476708337665,-0.885304138064 -0.235350076109,-0.943836048245 l-0.166888590902,-0.643915981054 -0.399622879922,-0.268639642745 l-0.0907788053155,-0.323208272457 -0.227180812508,-0.35794634372 l-0.356730893254,-1.13844498992 -0.20444246009,-0.666403025389 l-0.442516170442,-1.06309831142 -0.479075796902,-1.20283976197 l-0.191227514297,-0.691874474287 -0.110186580569,-0.911219120026 l-0.111468499526,-1.21048621833 -0.322034321725,-1.04574687779 l-0.32847687602,-1.01423926651 -0.367503426969,-1.02578036487 l-0.160568971187,-1.24499723315 -0.482411570847,-1.28644734621 l-0.523080006242,-1.58383205533 -0.180860292166,-0.537087358534 l-0.138298440725,-0.637214407325 -0.431879088283,-0.968607887626 l-0.367421023548,-0.626183748245 -0.85815988481,-1.03998251259 l-0.35604339093,-0.78166462481 -0.466418676078,-0.667362436652 l-0.891930311918,-1.2066039443 -0.315044261515,-0.906183868647 l-0.672202855349,-1.15283697844 -0.375961437821,-1.42243042588 l0.0785168725997,-0.935550108552 -0.0332630285993,-1.14687457681 l-0.0459492905065,-1.13117903471 -0.384461842477,-1.21920727193 l-0.590178519487,-1.34189844131 -0.183556228876,-0.673919394612 l-0.619214549661,-1.48099258542 -0.392075441778,-1.49814099073 l-0.496747344732,-1.57951638103 -0.363245084882,-0.703685060143 l-0.167823228985,-1.03954151273 -0.231559500098,-1.1553709954 l-0.0311694503762,-1.13051213324 -0.138447638601,-0.834653750062 l-0.118093527853,-1.26206338406 -0.227504130453,-1.4540950954 l-0.159641057253,-0.851705521345 -0.0558889750391,-1.20247095823 l0.106024853885,-0.994262769818 -0.0278891506605,-1.00926280022 l0.102016702294,-0.616210214794 -0.366088114679,-0.845977291465 l0.244853869081,-0.688386633992 -0.0508968625218,-0.559921264648 l0.142348967493,-0.206756386906 -0.0131938396953,-0.589522197843 l0.219792351127,-0.215396713465 0.131911998615,-0.252962503582 l0.0880558881909,-0.0771721126512 0.244465470314,-0.408717617393 l0.197379775345,-0.366935916245 0.134136341512,-0.587403699756 l0.129829067737,-0.373037755489 0.441239289939,-0.556421242654 l0.439658015966,-0.569928623736 0.349369943142,-0.682385265827 l0.72405539453,-0.895763784647 0.021227770485,-0.281642284244 l0.385110266507,-0.317782685161 0.403889790177,-0.566121675074 l0.398820787668,-1.15193784237 0.387428365648,-0.741890221834 l0.701515898108,-0.607760958374 0.853261724114,-0.547036789358 l0.56548897177,-0.333743952215 0.941607132554,-0.415186099708 l0.621277652681,-0.27371224016 1.07775010169,-0.349770449102 l0.683274492621,-0.268138200045 0.875073373318,-0.236649680883 l0.835073441267,0.0259134988301 0.695932209492,-0.0869943294674 l0.869938507676,-0.220631211996 0.781927034259,-0.389634743333 l0.792387574911,-0.291782859713 0.688147470355,-0.255931764841 l0.797098204494,-0.184840112925 1.11131235957,0.173663236201 l1.10012561083,0.243302267045 0.950573012233,0.242434237152 l0.962637513876,0.482367686927 0.800618007779,0.554318502545 l0.604406557977,0.33891055733 0.438353680074,0.541890785098 l0.906439647079,0.803443342447 1.07715211809,1.41099125147 l0.248859114945,0.728234425187 0.545925088227,0.953277722001 l0.513483658433,1.21065318584 1.19145974517,2.22905322909 l0.291929412633,1.16198480129 0.585851855576,1.13720826805 l0.415704771876,1.30171641707 0.570176243782,1.32810801268 l0.736825838685,1.86720371246 0.304205659777,1.3463139534 l0.180339105427,0.977327078581 0.42690243572,1.31543591619 l0.0461898930371,1.09766349196 0.0708277942613,1.27989083529 l-0.0223506521434,2.63570278883 -0.0703930808231,1.31917819381 l-0.15272510238,1.69040367007 -0.178844127804,1.49909213185 l-0.0198019528762,1.44169390202 -0.133085111156,1.07005991042 l-0.094949696213,1.61946892738 -0.421469919384,1.38093903661 l-0.330774076283,1.7054194212 -0.538895614445,1.28527641296 l-0.419271439314,1.12548917532 -0.28738765046,1.22790299356 l-0.487852990627,0.823957696557 -0.954371318221,1.79824516177 l-0.534350723028,1.12299278378 -0.649732351303,0.793944448233 l-0.250157099217,0.864498838782 -0.48826854676,0.996651723981 l-0.173964351416,1.02534987032 -0.477269589901,0.964648649096 l-0.204866956919,1.1677647382 -0.422577112913,0.645229667425 l-0.504093430936,1.19158394635 -0.345624089241,0.416804552078 l-0.254392120987,0.634030327201 -0.523729547858,0.454599224031 l-1.3149946928,1.26770138741 -0.828422233462,0.909139290452 l-0.587715320289,0.717644318938 -0.579813122749,0.643450841308 l-0.694216117263,0.766574218869 -0.115731386468,0.477673411369 l-0.502264909446,0.314118079841 -0.800444856286,0.506378300488 l-0.449291020632,0.25311389938 -0.764139145613,0.21812889725 l-1.09721831977,0.306052323431 -0.843784436584,0.160172823817 l-0.297184512019,0.444136485457 -0.329560302198,-0.0695596402511 l-0.715312287211,0.0729365693405 -0.57989411056,0.356829948723 l-0.566513538361,0.0814044848084 -0.237404666841,0.298507474363 l-0.304866731167,0.24408088997 -0.470032803714,0.121214343235 l-0.539993606508,0.141867892817 -0.369354225695,0.126002989709 l-0.349186062813,0.187396202236 -0.808382481337,-0.15787564218 l-0.497935526073,0.0729095377028 -0.460072346032,0.111255124211 l-0.19801016897,0.0499906437472 -0.468022152781,0.270458776504 l-0.288575328887,0.121674221009 -0.362026430666,-0.146598219872 l-0.353366397321,0.192702766508 -0.464811138809,0.165977068245 l-0.438659526408,0.2657119371 -0.434122346342,-0.148123176768 l-0.540634654462,0.281531419605 -0.305479895324,-0.0346362427808 l-0.356680564582,0.0257292110473 -0.391804613173,0.0944372173399 l-0.257758013904,-0.213851574808 -0.21237352863,-0.107652349398 l-0.208133626729,-0.411212965846 0.072330487892,0.138994948938 l-0.0481801480055,-0.146758053452 -0.147038977593,-0.228154007345 l-0.150687256828,-0.0480640912428 -0.106748547405,-0.064418646507 l-0.204803664237,0.163842570037 -0.124353216961,0.062277209945 l-0.118573531508,0.199702288955 0.276448130608,0.219776872545 l0.339650250971,0.123519478366 -0.0308432267047,0.35910256207 l0.116175785661,0.290646739304 0.125537319109,0.364264324307 l-0.281620100141,0.321184061468 -0.227300859988,0.388899371028 l-0.0665901880711,0.323820263147 -0.15929531306,0.446813590825 l-0.281135048717,0.249920953065 -0.235906653106,0.136333452538 l-0.301696769893,0.224238950759 -0.225489623845,-0.145468786359 l-0.475611165166,0.0881833024323 -0.2751843445,-0.199288558215 l-0.0987799372524,-0.218452643603 -0.213185362518,-0.181780364364 l-0.104725919664,-0.242738947272 0.127468639985,-0.72082079947 l-0.00891192932613,-0.313587039709 -0.00700457196217,-0.338325873017 l0.102450540289,-0.603985488415 -0.133634069934,-0.267258547246 l0.17628531903,-0.820250958204 -0.300567671657,-0.16446294263 l-0.229662265629,-0.374670103192 -0.411896370351,-0.021353228949 l-0.151320975274,-0.258891973644 0.0090583396377,0.257356930524 l-0.434377118945,0.0912365317345 -0.240900460631,0.272079259157 l-0.351752191782,0.302519146353 -0.366215892136,0.166392754763 l-0.218193437904,-0.126905757934 -0.371789857745,0.183459017426 l-0.385721735656,-0.101680886 -0.508499890566,-0.164721366018 l-0.187513176352,-0.542669594288 -0.451019443572,-0.239990931004 l-0.0904295966029,-0.509822070599 -0.136804310605,-0.395395383239 l0.0801910739392,-0.294119697064 0.0081920955563,-0.395023226738 l0.12288720347,-0.51485080272 0.256161466241,-0.435184948146 l0.289941225201,-0.204134881496 0.133209219202,-0.411761887372 l0.176883805543,-0.609949231148 0.111891543493,-0.0334612629376 l0.202524997294,-0.451473891735 -0.0672026770189,-0.169029291719 l-0.0997722614557,-0.231680031866 0.0893566850573,-0.32409671694 l-0.389414988458,-0.17372103408 -0.0219989614561,-0.148517647758 l-0.383059866726,-0.382344014943 -0.605867095292,-0.386532768607 l-0.345252268016,-0.554926767945 -0.439162142575,-0.891518369317 l-0.337291695178,-0.856378301978 -0.361840538681,-0.971625521779 l-0.103556169197,-0.521820113063 -0.179951731116,-0.476315207779 l-0.13163363561,-0.511560924351 -0.0299228844233,-0.724159702659 l-0.0614942191169,-1.02363862097 -0.155238145962,-0.513099469244 l-0.081455539912,-0.764796212316 -0.254985839128,-1.12634465098 l0.0430560531095,-0.61230532825 -0.101242661476,-0.525644682348 l-0.386345013976,-1.07926532626 -0.188918188214,-0.799277499318 l-0.243951883167,-0.880618318915 -0.00811131263617,-0.685591995716 l-0.156950149685,-0.998385772109 -0.0564183155075,-0.813881382346 l0.150278154761,-0.73877453804 -0.0411263527349,-0.122293308377 l-0.226403549314,-0.564292222261 -0.0929268915206,-0.445432811975 l0.045375241898,-0.141067048535 -0.0112975353841,-0.386917851865 l0.104060312733,-0.228587128222 0.154610630125,-0.429918691516 l0.248423796147,-0.428948998451 -0.291427429765,-0.39235394448 l-0.227502249181,-0.50898771733 -0.576967820525,-0.817986726761 l-0.275279935449,-0.45309599489 -0.226104836911,-0.323396660388 l-0.23681698367,-0.598781257868 -0.320408120751,-0.466772988439 l-0.307547841221,-0.399377755821 -0.347936786711,-0.356568954885 l-0.22700170055,-0.879095196724 -0.550649166107,-0.603202395141 l-0.167200416327,-1.15135207772 -0.602296926081,-0.61082854867 l-0.304506141692,-1.04593664408 -0.252528022975,-0.89327044785 l-0.48881676048,-1.21617279947 -0.274780225009,-0.66596262157 l-0.255829766393,-0.493918843567 -0.308813843876,-0.387566462159 l-0.164732374251,-0.656423717737 -0.343420654535,-0.48653177917 l-0.246396921575,-0.93727439642 -0.03199191764,-0.934365317225 l-0.133448280394,-0.535759143531 -0.1512240991,-0.574976280332 l-0.0834621395916,-0.564911775291 -0.210854131728,-0.687881931663 l-0.39746593684,-0.447047650814 -0.518507137895,-0.654488280416 l-1.35828405619,-1.29275530577 -0.438608489931,-0.727263614535 l-0.459368191659,-0.638642385602 -0.618932209909,-0.297189448029 l-0.335255041718,-0.537395738065 -0.374170467257,-0.444175451994 l-0.495943687856,-0.443151034415 -0.338433273137,-0.377020724118 l-0.122869787738,-0.470147766173 -0.59371650219,-0.522962361574 l-0.369835682213,-0.570716261864 -0.453957244754,-0.781021043658 l-0.277413837612,-1.01392097771 -0.212956927717,-0.904868394136 l-0.227467939258,-1.49759039283 -0.810950919986,-1.35562703013 l-0.773167684674,-1.71082466841 0.0367699423805,-0.258376523852 l-0.152070652694,-0.47342646867 -0.354918949306,-0.530777424574 l-0.18826039508,-0.661452338099 -0.276185870171,-0.742329210043 l-0.0246040918864,-0.589381121099 -0.0855494197458,-0.616843476892 l0.0945226754993,-0.860594660044 0.476145930588,-1.02140620351 l-0.0619560340419,-0.400911010802 0.242885611951,-0.997277349234 l0.204021148384,-0.420439876616 0.365656837821,-0.295713823289 l0.187970921397,-0.706841573119 0.25363093242,-0.185187440366 l0.185000859201,-0.412566140294 0.183891560882,-0.588799677789 l0.395765155554,-0.666958093643 0.400149635971,-0.701397359371 l0.246808510274,-0.794734433293 0.301172398031,-0.786025896668 l0.223199427128,-0.758648887277 0.28785135597,-0.44435068965 l0.0738913519308,-0.660739168525 -0.151240956038,-0.844676792622 l-0.00842776848003,-0.916499421 0.334433689713,-0.787818729877 l0.224681310356,-1.00562550128 0.196963138878,-0.464792363346 l0.201788451523,-0.480307154357 0.0150655687321,-0.687083303928 l-0.0165382609703,-1.03439167142 0.119220064953,-0.505518577993 l0.117731578648,-0.789392217994 0.292259622365,-0.49408428371 l0.250241067261,-0.340859331191 0.177344996482,-0.283720027655 l0.400404781103,-0.282093472779 0.320196375251,-0.21738499403 l0.398903489113,-0.37063755095 0.106270480901,-0.0249993684702 l-0.0317293009721,-0.467536859214 -0.0346951046959,-0.297001283616 l0.123667353764,-0.304655171931 0.116486633196,0.244703739882 l0.204352978617,0.249041132629 -0.00144481513416,0.282735228539 l0.230786632746,0.201056990772 0.0403620162979,0.295873694122 l-0.11221177876,0.494801588356 -0.144424224272,0.653601065278 l-0.25908369571,0.451105199754 -0.190920196474,0.530016645789 l-0.15062100254,0.481239296496 -0.0284830620512,0.400442816317 l0.00215075007873,0.360056459904 -0.062082237564,0.272856000811 l-0.105057274923,0.436289310455 -0.0997473020107,0.373573005199 l0.192479304969,0.172416288406 -0.0165465974715,0.241839122027 l-0.017794057494,-0.398884490132 0.0226489268243,-0.365405753255 l-0.120997307822,-0.062264893204 0.0888799875975,-0.455324836075 l-0.123671749607,-0.428734906018 -0.238064453006,-0.220963526517 l-0.0665966421366,-0.369127839804 -0.0473817950115,-0.336240977049 l-0.0552169466391,-0.110842157155 0.0413674302399,-0.490362793207 l-0.0744282547385,-0.17172075808 0.030312417075,-0.147276641801 l0.0121732312255,-0.257395338267 0.0389223895036,0.261537190527 l0.106424996629,0.409408658743 0.0818664953113,0.679967924953 l0.169120132923,0.369894020259 0.0961326155812,0.333913937211 l0.215464234352,0.344838947058 0.137273259461,0.617199540138 l0.601353608072,0.781637877226 0.27128495276,0.492284111679 l0.506086573005,0.494100414217 0.487698987126,0.0783112086356 l0.587155893445,0.319613479078 0.330884121358,0.112961856648 l0.694750323892,-0.355567336082 0.152846435085,-0.479540936649 l0.434611476958,-0.423458702862 0.244870539755,-0.339567512274 l0.281749032438,-0.416128896177 -0.180393755436,-0.83817794919 l-0.0343421078287,-0.40328040719 0.0785241369158,0.18338136375 l-0.120240468532,-0.0934263411909 -0.0402274308726,-0.159394126385 l0.0507401442155,-0.0979130994529 0.301035195589,0.395539365709 l0.278888251632,0.124563621357 0.234913006425,0.524333231151 l0.219119265676,0.629656463861 0.280074849725,0.542945116758 l0.163952261209,0.386983416975 0.14743167907,0.270108282566 l0.20038433373,0.259717870504 0.0508642988279,0.488628000021 l0.177937280387,0.369024649262 0.231683272868,0.458022579551 l0.201013851911,0.226443465799 0.546546466649,0.340489968657 l0.256182178855,0.232931785285 0.151749495417,0.284845214337 l0.556934662163,-0.138845564798 0.245968177915,-0.3197696805 l0.409094616771,-0.547305718064 0.631704181433,-0.563707649708 l0.265539623797,-0.310340803117 0.423065498471,-0.293287150562 l0.351491309702,-0.584177151322 0.348320119083,-0.165269933641 l0.197848677635,0.257663261145 0.0222343206406,0.583062916994 l0.279741380364,0.20002618432 -0.0140551605728,0.372694134712 l0.0648979144171,0.704833641648 -0.130340429023,0.612409412861 l-0.273196287453,0.409144163132 -0.218725278974,0.737109705806 l-0.192830748856,0.603089556098 -0.216791126877,0.511483177543 l-0.257545877248,0.542540773749 -0.390230938792,0.659458115697 l-0.104096289724,0.597371123731 -0.200104471296,0.546324849129 l-0.209124218673,0.727059394121 -0.119158951566,0.532885380089 l-0.0240742485039,0.720172300935 -0.134487636387,0.617309436202 l-0.0235598837025,0.808910876513 -0.101877599955,0.618280470371 l-0.176934413612,1.23412981629 -0.0137043721043,0.6402797997 l0.00608702248428,1.23979821801 -0.0732237612829,1.03754140437 l-0.172759052366,0.924169421196 0.156265832484,1.00070290267 l-0.353700183332,1.22732408345 -0.0109312054701,0.758534148335 l-0.15233178623,1.07534021139 0.0887584034353,0.696785002947 l-0.0320367654786,1.00550241768 -0.121000297368,1.28751128912 l0.0323863234371,0.743844434619 -0.483317300677,1.81953787804 l0.0552796944976,1.27822816372 -0.194443743676,2.40825280547 l-0.329213887453,2.29908272624 -0.0914517510682,1.9428576529 l0.139525877312,1.94394886494 0.0123094383162,0.886787250638 l0.0172293349169,1.50211617351 0.16952984035,1.16728633642 l-0.368068180978,2.18987762928 -0.0576319079846,1.69380381703 l-0.504227206111,1.87377288938 -0.0772149441764,1.21790580451 l-0.505001433194,1.50729462504 -0.358761325479,1.98964998126 l-0.436797551811,1.49281084538 -0.299493819475,1.65908545256 l-0.108064068481,1.41850024462 -0.0520920893177,1.33127182722 l-0.201787352562,1.4024245739 0.0366285815835,1.62510305643 l-0.103786764666,1.26584634185 0.0958759710193,1.096637398 l-0.312016699463,1.21967285872 0.0855910498649,1.10230430961 l0.116885108873,1.13116957247 0.130882710218,1.14585511386 l0.253446754068,1.23311385512 0.0283735990524,1.04773782194 l0.276830811054,1.11347712576 -0.0456443941221,0.884044542909 l-0.0377533165738,1.79251968861 0.233281794935,1.03064350784 l-0.0367446476594,1.02905601263 -0.0248933350667,0.987508967519 l0.0810029450804,0.966329798102 0.0603656144813,1.14598296583 l-0.0182037649211,1.07896931469 -0.00668851425871,1.0757445544 l-0.0854892656207,0.88559307158 -0.179316587746,1.1192766577 l-0.0794481579214,1.30982771516 -0.351425968111,0.84250420332 l-0.0839580222964,0.679145231843 -0.300235729665,1.2354991585 l-0.359212197363,1.03429213166 -0.345135144889,1.0841461271 l0.0941367354244,1.0145495832 0.0086474820273,0.983823984861 l-0.0491460738704,1.15020744503 -0.114112431183,1.09997034073 l0.0931800156832,0.84807947278 -0.187847744673,0.712360069156 l0.250386167318,0.9918307513 -0.0919190049171,0.936122238636 l0.0282196444459,0.654781237245 -0.0162790052127,0.58856036514 l-0.150301670656,0.563854686916 -0.316628105938,0.53531549871 l-0.25364626199,0.576044283807 -0.12081653811,0.589318275452 l-0.442111976445,1.09484285116 -0.261821970344,0.745697692037 l0.0643443409353,0.432872585952 -0.241330880672,0.781100168824 l-0.0888498034328,0.33546090126 -0.0477268593386,0.496507845819 l-0.141763212159,0.570171512663 -0.110641866922,0.421065464616 l-0.116485375911,0.666203275323 -0.00722920347471,0.338949076831 l0.0074540526839,0.375205278397 -0.02410459565,0.728618502617 l-0.101529816166,0.411863848567 0.237835366279,0.474814586341 l0.173655226827,0.246664080769 0.0120356446132,0.35727057606 l0.170344822109,0.466862916946 -0.1096310094,0.403817780316 l0.291518755257,0.0998463761061 0.233192835003,0.225957948714 l0.311349388212,0.27982769534 0.29488639906,0.154504608363 l0.0599695881829,0.428739525378 0.0280346977524,0.157374702394 l0.141729619354,0.456731617451 -0.0840417575091,0.521125346422 l0.242548547685,0.349897705019 -0.140466410667,0.336563661695 l-0.0473586469889,0.281156431884 0.156776495278,0.455604791641 l-0.162743981928,0.414620712399 -0.103973960504,0.184828862548 l0.106730582193,0.244001355022 0.141388410702,0.0477132387459 l0.0262515828945,-0.216329898685 0.0315673672594,-0.258078724146 l0.0142832682468,-0.333764143288 -0.0185212760698,-0.303972922266 l-0.0137830805033,-0.205722432584 0.339397899806,-0.812408700585 l0.31157033518,-1.06898628175 0.169765781611,-0.30548484996 l0.332321226597,0.508184842765 0.532642118633,0.421650446951 l0.458502545953,0.742722377181 0.10176692158,0.559877455235 l0.280378647149,0.730839967728 0.259627364576,0.709711238742 l0.204642899334,0.179462041706 0.308929625899,0.337873138487 l0.114732095972,0.0837631709874 0.371645502746,0.234905276448 l0.195872690529,-0.48706214875 0.500577688217,-0.572405457497 l0.0627248361707,-0.491681694984 0.335905738175,-0.602994225919 l0.173708740622,-0.38104750216 -0.0524197379127,-1.01467490196 l0.0541048077866,-0.396760627627 -0.0214365078136,-0.345673523843 l0.344882197678,-0.193182248622 0.457584895194,-0.0251466967165 l0.330897681415,0.0959442462772 0.523319095373,0.0124585395679 l0.499870367348,-0.119046149775 0.592755563557,-0.175545122474 l0.436771735549,-0.157561041415 0.719069838524,-0.54684266448 l0.224522277713,-0.46427257359 0.493773669004,-0.526331923902 l0.354362726212,-1.19005598128 0.172592345625,-0.371726304293 l0.352692566812,-0.66912971437 0.0825140345842,-0.860822424293 l0.0642286846414,-0.677333772182 0.0786675978452,-0.547628998756 l0.0168301071972,-0.741577744484 0.200052987784,-0.0537269329652 l0.0302945822477,-0.364766307175 0.0955332722515,-0.599438548088 l0.0100535072852,-0.896231010556 0.0943073257804,-0.507777892053 l0.313560888171,-0.479325689375 0.135176395997,-0.613554827869 l-0.0401105405763,-0.721675157547 -0.0713662570342,-0.6834731251 l-0.190483704209,-1.09996937215 0.0135662418325,-0.394598059356 l0.275099389255,-0.283647328615 0.228443779051,-0.460387356579 l0.369937606156,-0.875631570816 0.195793490857,-0.390304774046 l0.285780448467,-0.464545600116 0.197377614677,-0.271872170269 l0.119431596249,-0.406292974949 0.284812673926,-0.303201563656 l0.445883832872,-0.406828708947 0.00136379108881,-0.315150916576 l-0.172042567283,-0.560058616102 0.0691960146651,-0.453008115292 l0.318093150854,-0.397416241467 0.136846238747,-0.702883899212 l0.223470423371,-0.661112889647 0.295822117478,-0.723362788558 l0.301697142422,-0.947206541896 0.161081478,-0.437913797796 l0.426676608622,-1.0461717099 0.290320180357,-0.878802835941 l0.0433735596016,-0.705447643995 0.282847769558,-0.970573350787 l0.294868852943,-0.982758775353 0.189363826066,-1.00261427462 l0.23326292634,-0.511968098581 0.269436500967,-0.579951889813 l0.495764650404,-0.998925715685 0.458312183619,-0.410812161863 l0.433008931577,-0.672901198268 0.455622822046,-0.714848488569 l0.385976955295,-0.490241087973 0.12228208594,-1.01182125509 l0.0842921063304,-0.339976400137 -0.0782187376171,-0.547637343407 l0.139833111316,-0.566789284348 0.0674191163853,-0.614575557411 l-0.228699129075,-0.518642440438 0.192387383431,-0.507497638464 l0.142186945304,-0.506088770926 -0.0792545266449,-0.659256353974 l0.097594121471,-0.708852559328 0.220463871956,-0.618512555957 l-0.0425032898784,-0.394613854587 -0.0615034578368,-0.605667978525 l0.258085299283,-0.612178482115 -0.053457361646,-0.484227463603 l0.133207067847,-1.239483729 -0.0123384851031,-0.882025137544 l0.0294351275079,-0.707841962576 -0.0589510053396,-0.954815149307 l-0.014612255618,-0.529986098409 0.00592785596382,-0.737755820155 l0.0724802957848,-0.683508291841 0.136420875788,-0.424051806331 l0.0299226073548,-0.526977106929 -0.102105727419,-0.797435492277 l0.167667418718,-0.46776663512 -0.126883387566,-0.676897391677 l-0.181779433042,-0.886541903019 0.0118738459423,-1.12250842154 l0.0220773043111,-1.0891777277 0.337307266891,-0.47455187887 l0.292041152716,-0.667115673423 0.31119344756,-0.417054891586 l0.450215861201,-1.01661793888 0.483799725771,-0.564140304923 l0.619495660067,-0.674224346876 0.583691112697,-0.946882888675 l0.484447330236,-0.410697348416 0.658897385001,-0.376264452934 l0.65606713295,-0.496669374406 0.803908035159,-0.168688520789 l1.02836072445,-0.380489006639 0.813843384385,-0.6329985708 l0.47662358731,-0.459465160966 0.507704541087,-0.596563145518 l0.525895133615,-0.552987828851 0.264710988849,-0.632512718439 l0.31930681318,-0.144172897562 0.629108175635,-0.516083016992 l0.71631886065,-0.79273737967 0.773597210646,-0.622499659657 l0.63343718648,-0.75417868793 0.57620562613,-0.672050714493 l0.317797549069,-0.790178924799 0.54243888706,-0.7880435884 l0.469316057861,-0.43359067291 0.36597289145,-0.677972733974 l0.723965018988,-0.442432388663 0.614512749016,-0.433766469359 l0.577247627079,-0.770495831966 0.59673499316,-0.698296949267 l0.377861298621,-0.586313940585 0.573378205299,-0.698060616851 l0.643198117614,-0.774205625057 0.652097612619,-0.832331925631 l0.630703791976,-0.784566253424 1.10459975898,-1.53859525919 l0.646900609136,-0.561242811382 0.896431282163,-0.812938213348 l0.467756763101,-0.791152566671 0.628084391356,-0.451731719077 l1.13991133869,-0.66414244473 0.748671889305,-0.71881711483 l1.14315584302,-0.889174193144 0.908673256636,-0.59836268425 l0.852056145668,-0.658304318786 0.747491195798,-0.472991205752 l0.783443674445,-0.3763897717 1.2113007158,-0.497685968876 l0.830768495798,-0.403411909938 0.928894504905,-0.455187372863 l0.622015036643,-0.429681763053 1.04003794491,-0.785830616951 l1.15916401148,-1.07321977615 0.680922418833,-0.678359270096 l0.533082485199,-0.441567376256 0.448720790446,-0.772102624178 l0.697834417224,-0.244591571391 0.661371052265,-0.547876432538 l0.748283341527,-0.575520098209 0.440259091556,-0.265036281198 l0.659577772021,-0.398068502545 0.691497027874,-0.640273243189 l0.352256894112,-0.27037858963 0.398725830019,-0.567742474377 l0.559161789715,-0.645045861602 0.530001595616,-0.454619973898 l0.345743075013,-0.42332932353 0.645548701286,-0.568840391934 l0.696103945374,-0.377064086497 0.660569295287,-0.816198810935 l0.470028407872,-0.671614184976 0.452905669808,-0.509408228099 l0.559871010482,-0.268173888326 0.551867969334,-0.274794325233 l0.304270591587,-0.290768872947 0.665514469147,-0.471218191087 l0.439341068268,-0.377467609942 0.70215344429,-0.358152650297 l1.2800848484,-0.965934693813 0.526164919138,-0.669567063451 l0.354182086885,-0.522104091942 0.501385293901,-0.550306513906 l0.334010086954,-0.512934699655 0.386792384088,-0.572202838957 l0.133707094938,-0.568479225039 0.403316617012,-0.435592159629 l0.218968819827,-0.464896857738 0.394323244691,-0.630384981632 l0.318070016801,-0.608677566051 0.958751961589,-1.24321237206 l0.287129487842,-0.534298419952 0.285177845508,-0.653475224972 l0.839419439435,-0.519030950963 0.243870057166,-0.295801311731 l0.696003884077,-0.703193619847 0.06650891155,-0.251723490655 l0.516658201814,-0.430422574282 0.398953482509,-0.472888536751 l0.383671745658,-0.449393540621 0.522645972669,-0.604915171862 l0.702760964632,-0.476154610515 0.336344689131,-0.256041977555 l0.186387617141,-0.579913035035 0.337850339711,-0.559727959335 l0.398177392781,-0.521306917071 0.470061898232,-0.307559054345 l0.162805579603,-0.269726067781 0.0287330662832,-0.022954235319 l-0.117360362783,-0.343251638114 -0.0772708607838,-0.0177225307561 l-0.0158128654584,-0.14789021574 -0.110412715003,0.16126120463 l-0.299265477806,0.104113379493 -0.396830439568,0.170023441315 l-0.239791721106,0.215104836971 -0.326259844005,0.161260142922 l-0.214937888086,0.0947252567858 -0.293885227293,0.23216554895 l-0.237207319587,0.333331301808 0.215088427067,-0.276207774878 l0.0967565085739,-0.325716882944 0.374908223748,-0.751705393195 l0.445248149335,-0.279551744461 0.330709852278,-0.410084538162 l0.666172280908,-0.808229595423 0.211770832539,-0.0629535643384 l0.111602833495,-0.24290394038 0.635137706995,-0.667504742742 l0.322434008121,-0.0428804242983 0.342916846275,0.00859244784806 l0.104793831706,0.25891976431 0.114282583818,0.205647312105 l0.334097221494,0.560297966003 -0.404214635491,0.593337789178 l-0.368555262685,0.278949458152 -0.381698198617,0.778585523367 l-0.645003840327,0.553169324994 -0.367106348276,0.346430800855 l-0.558194406331,0.586174242198 -0.262885726988,0.510386526585 l-0.0427550869063,0.403333231807 -0.247593335807,0.316780656576 l0.244001150131,0.148211196065 0.131735950708,0.486805997789 l0.179582219571,-0.25285128504 0.569228082895,-0.0499861128628 l0.836731418967,0.0575136812404 0.958332568407,-0.358436219394 l0.546578392386,-0.158560089767 0.928096175194,-0.664988830686 l1.12747371197,-0.768838226795 0.674813091755,-0.422557853162 l0.622132793069,-0.413952432573 0.360793024302,-0.141790350899 l-0.0961375236511,-0.0365673494525 -0.106449034065,0.156703684479 l-0.211625229567,0.350116789341 -0.590601153672,1.16873972118 l-0.581296794116,0.748801082373 -0.407323054969,0.416041836143 l-0.667416974902,0.651929453015 -0.467010103166,0.723811835051 l-0.251775272191,0.569181926548 -0.598252676427,0.691797956824 l0.0610450655222,0.392224416137 -0.230256486684,0.679602026939 l0.0496376445517,0.629562214017 0.57567641139,0.362396687269 l0.517664216459,0.600122064352 0.174875445664,0.505224131048 l0.626173987985,0.690976679325 0.688387155533,0.599107332528 l0.317800678313,0.604076646268 0.416440665722,0.440038666129 l0.406648218632,0.484480150044 0.238115284592,0.528082847595 l0.455844253302,0.308560356498 0.296182502061,0.903088822961 l0.0871559046209,0.266905408353 0.0543766189367,0.406190678477 l-0.239207465202,0.223514493555 -0.191713348031,0.449289791286 l-0.215965081006,0.204279236495 -0.270463507622,0.150486240163 l-0.317061506212,0.426747575402 -0.564994513988,0.682962536812 l-0.268133338541,0.286115556955 -0.465588532388,0.246480386704 l-0.10880487971,0.406295843422 -0.315446853638,0.38576040417 l-0.304248034954,0.574501939118 -0.109374187887,0.402156636119 l-0.38878634572,0.320414043963 -0.276694968343,0.116140525788 l-0.364244990051,0.790162086487 -0.337002910674,0.469962619245 l-0.479927286506,0.559947155416 -0.213785655797,0.539924055338 l-0.181337706745,0.253333747387 -0.211785342544,0.244293082505 l-0.137496413663,0.548316128552 -0.265256874263,0.311982464045 l-0.0344353006221,0.31886447221 -0.314579941332,0.637736171484 l-0.166320744902,0.462968349457 -0.430777743459,0.791640654206 l-0.291876681149,0.573755279183 -0.225819740444,1.02396115661 l-0.212207194418,0.732471048832 -0.271851532161,0.845177844167 l-0.551021657884,0.639652311802 -0.688148885965,1.17346674204 l-0.40012832731,0.791781544685 -0.606994330883,0.856306403875 l-0.766843631864,0.636831000447 -0.571011081338,0.904229804873 l-0.823400169611,0.871170610189 -0.558718442917,1.07293702662 l-0.973863974214,0.985525622964 -0.64176402986,0.94465829432 l-1.19968496263,1.85741648078 -0.671767517924,0.953058749437 l-0.906540676951,1.01206675172 -0.189864616841,1.09461203218 l-0.596934631467,1.02539107203 -0.402142629027,1.18886627257 l-0.48084910959,1.04891642928 -0.505557619035,2.12603121996 l-0.340052656829,1.42459854484 -0.107608614489,0.889998376369 l-0.370493270457,1.40642911196 -0.168381612748,1.12295217812 l-0.286556277424,1.20400965214 0.0845623016357,1.10914364457 l-0.208948403597,0.768312811852 -0.502552874386,1.85473069549 l-0.0103783397935,1.14499606192 0.216127373278,1.35229483247 l-0.100481258705,1.8913154304 -0.063553401269,1.15711987019 l0.250866748393,1.25051155686 0.132665326819,1.08585573733 l0.429415255785,1.1273060739 0.0787339173257,1.02031171322 l0.436786971986,0.710247606039 0.339906401932,0.949343964458 l-0.00482580071548,1.1748252064 0.224523674697,0.681167468429 l0.0303091085516,0.882522463799 -0.148545829579,0.952260196209 l-0.135419853032,0.629347637296 0.0229186727665,0.791031941772 l-0.148046957329,0.50732921809 -0.212915223092,1.15900181234 l-0.272994786501,0.701914355159 -0.234521534294,1.0145739466 l-0.325171798468,0.512341186404 -0.238843932748,0.741022825241 l-0.537873208523,0.840768516064 -0.182544849813,0.55881947279 l-0.51189173013,0.826836228371 -0.419480986893,0.634932145476 l-0.428593158722,0.433071181178 -0.360873118043,0.477796196938 l-0.156876482069,0.564467571676 -0.417287498713,0.710150822997 l-0.640389844775,0.760101750493 -0.26322985068,0.66312327981 l-0.475903376937,0.543948672712 -0.659557878971,0.647165700793 l-0.403830856085,0.524710454047 -0.59535689652,0.587869100273 l-0.591494776309,0.602556653321 -0.286800563335,0.727951228619 l-0.667467340827,0.49930036068 -0.223375689238,0.186089091003 l-0.647982507944,0.127982124686 -0.653768479824,0.136613072827 l-0.357183143497,0.0847064517438 -0.355403088033,0.0157344748732 l-0.636637285352,-0.236906595528 -0.498861335218,-0.00679527060129 l-0.728304535151,-0.0652021355927 -0.387136973441,-0.203809440136 l-0.573504157364,-0.515777692199 -0.552651062608,-0.103998659179 l-0.50958994776,-0.0611403677613 -0.901570171118,-0.55623870343 l-0.749384686351,-0.294717792422 -0.220304392278,-0.335475280881 l-0.567944385111,-0.678617209196 -1.22877798975,-0.898822322488 l-0.39062358439,-0.418432243168 -0.445094816387,-0.507999621332 l-0.731525793672,-0.969644933939 -0.516026094556,-0.555100478232 l-0.452482178807,-0.485739260912 -0.497042797506,-0.515722036362 l-0.297807473689,-0.36348413676 -0.335934087634,-0.358043275774 l-0.186010431498,-0.670010969043 -0.451271682978,-0.857109799981 l-0.219660978764,-0.481090284884 -0.0739706819877,-0.50220169127 l-0.305512286723,-0.644582286477 -0.247172322124,-0.754884779453 l-0.0660059368238,-0.679570287466 -0.251903794706,-0.782031342387 l-0.109951319173,-0.483160763979 0.0343176396564,-0.956117510796 l-0.0897733960301,-0.55732704699 0.115985106677,-0.612755045295 l-0.101892612875,-0.368058383465 -0.0876164250076,-0.986566245556 l-0.0751887867227,-0.483423098922 0.0639140605927,-0.632121041417 l-0.0585400685668,-0.487926267087 0.020652692765,-0.49423404038 l-0.000604916058364,-1.09500527382 0.00583191693295,-1.30536153913 l-0.07174952887,-0.808863639832 0.143523002043,-0.671179816127 l-0.0501957768574,-0.825147926807 -0.110750515014,-0.95994502306 l-0.141910761595,-0.754591599107 0.0052084273193,-1.08670018613 l-0.202618278563,-0.487587600946 -0.432114340365,-0.682456642389 l-0.0655074836686,-0.735292434692 -0.0770129216835,-0.534865781665 l-0.201057083905,-1.25269323587 -0.207883287221,-0.682874843478 l-0.0619780179113,-1.01029887795 -0.285846162587,-0.627080276608 l-0.0225418503396,-0.794056206942 -0.1042749919,-0.909438356757 l-0.0233286758885,-1.02577604353 0.0760254543275,-0.771192386746 l-0.0821454264224,-0.446015894413 0.218025911599,-0.755296871066 l0.0956199970096,-0.455715954304 -0.0882885791361,-0.961106419563 l0.196074414998,-0.788777172565 0.114593356848,-0.849035605788 l-0.187944918871,-0.465082675219 0.0442537292838,-0.475450493395 l-0.281935576349,-0.659438371658 -0.139170847833,-0.767543539405 l0.00651671783999,-0.519313029945 " fill="none" stroke="black" stroke-width="1" /></svg>