<?xml version="1.0" encoding="utf-8" ?>
<svg baseProfile="full" height="436.79961422" version="1.1" width="287.528889512" xmlns="http://www.w3.org/2000/svg" xmlns:ev="http://www.w3.org/2001/xml-events" xmlns:xlink="http://www.w3.org/1999/xlink"><defs /><rect fill="white" height="436.79961422" width="287.528889512" x="0" y="0" /><path d="M25,256.425989806 m3.78857493401,-17.7153277397 m1.28665819764,-2.02053710818 l7.42844998837,-10.8994364738 4.14409816265,-4.63731259108 l5.00732898712,-3.58882278204 5.94445228577,-2.84569889307 l3.35792630911,-0.415780805051 4.42788511515,-0.0282280589454 l2.98584878445,0.571530796587 2.87884622812,0.941001847386 l2.43400543928,2.03824102879 2.6878580451,3.58477085829 l1.47901445627,2.50475049019 1.4308847487,3.77486586571 l0.674643144011,2.6722189784 0.0729130208492,4.35167551041 l-0.450516454875,2.67870694399 -0.601968616247,3.70933145285 l-0.817157924175,1.91837459803 -2.4057674408,2.47838497162 l-4.54571038485,3.7275609374 -2.57063835859,2.85744071007 l-1.58257380128,2.09506422281 -1.551797539,3.21392595768 l-1.02819941938,1.41334861517 -2.53744989634,3.00977796316 l-1.42131522298,1.59436762333 -1.54814749956,1.8558216095 l-1.8964637816,2.44708046317 -1.82944059372,2.26487502456 l-1.62592753768,1.50605469942 -1.28343448043,1.13355241716 l-1.96084856987,1.12266756594 -2.77104020119,1.88104838133 l-1.98618367314,1.81575208902 -2.23021045327,2.3184838891 l-2.19446048141,2.33271479607 -1.69946447015,1.78655996919 l-1.87986433506,2.7827450633 -2.00933754444,3.78053456545 l-2.26739257574,6.2183868885 -0.449247807264,1.73728406429 l-0.182217285037,3.20432633162 0.26711832732,2.70712465048 l1.28359228373,5.02384364605 1.42906904221,5.17279267311 l1.4371086657,3.47151517868 1.64356410503,4.20871913433 l2.17282801867,3.9185616374 3.79397571087,6.87125146389 l2.74638652802,4.03742969036 3.66892337799,4.71935510635 l3.36388230324,3.04760485888 3.27278912067,3.22765231133 l4.39649939537,3.60095471144 6.28168106079,4.32129204273 l4.12515580654,2.87369251251 4.26601827145,2.6850181818 l3.81958931684,1.85278967023 4.42915201187,1.29870921373 l4.97133851051,1.4466534555 6.39448285103,1.03697195649 l4.59089010954,0.316405855119 8.16784322262,0.0643244711682 l3.48269551992,0.150765329599 3.80552560091,-0.303690508008 l3.01752567291,-0.119163077325 3.6168217659,-0.0216581230052 l1.77672058344,-0.149361956865 2.25103065372,-0.341194048524 l2.55249768496,-0.862064436078 1.70245051384,-0.665172412992 l1.7475605011,-0.677559301257 2.15769127011,-1.05173707008 l1.89814403653,-0.576197765768 2.02454194427,-0.515866242349 l1.89065724611,-0.534066781402 3.10852408409,-1.59962445498 l1.01182110608,-0.674652382731 2.29957193136,-1.23857297003 l5.64124286175,-6.36464357376 1.18848003447,-1.34144738317 l1.01841397583,-0.757375583053 0.700159519911,-0.563925765455 l0.721344277263,-0.648606643081 1.0156891495,-0.747222006321 l0.361135937274,-0.431291125715 0.51023170352,-0.589667856693 l0.243931766599,-0.238993540406 0.404833965003,-0.2447517775 l0.130772553384,-0.492118410766 0.154741089791,-0.42629275471 l0.0789427012205,-0.539169088006 0.00815804232843,-0.482830628753 l0.109017556533,-0.717337206006 -0.131362397224,-0.345435105264 l-0.302679166198,-0.491067245603 0.0142037018668,-0.289965961128 l-0.376471430063,-0.0763768516481 -0.208821967244,-0.329792462289 l-0.155944665894,-0.326245762408 0.0650336919352,0.0435771094635 l-0.0268090516329,0.0712850736454 -0.158392619342,0.225066971034 l0.249012857676,0.262911766768 0.0781653169543,0.17030838877 l-0.304797682911,0.105376364663 0.0934562459588,0.711704492569 l-0.262126196176,0.113673964515 -0.0427523534745,-0.442062988877 l-0.148162376136,-0.477202162147 -0.364061295986,-0.332885421813 l-0.0248849601485,-0.935234203935 -0.162264648825,-0.477182306349 l0.00672485795803,-0.566616281867 -0.106315445155,-0.623774379492 l-0.0578349921852,-0.463412515819 0.0827224645764,-0.6561563164 l-0.156043646857,-0.10183990933 0.111621944234,-0.0324306893162 l-0.17086757347,0.413530245423 -0.160370655358,0.274034198374 l-0.266831908375,0.827713534236 -0.518212355673,0.967678502202 l-0.136585300788,0.723377838731 -0.20693000406,0.229351744056 l-0.232337377965,0.431290827692 0.00652327027638,0.147301992401 l0.0352721731178,-0.0516973389313 -0.106913056225,-0.428682304919 l0.14461808838,-0.639342218637 -0.168740209192,-1.10198795795 l-0.15142406337,-0.490945577621 -0.240503381938,-0.608299635351 l-0.32837908715,-0.385033115745 -0.055842846632,-0.57748503983 l-0.341838300228,-0.518170669675 -0.152262030169,-0.358871109784 l-0.424734838307,-0.302900504321 -0.554757118225,-0.158571247011 l-0.219291765243,-0.467183515429 -0.205031614751,-0.342071726918 l-0.0460939668119,-0.277894865721 -0.143942609429,-0.0236199120991 l-0.228594746441,-0.488259978592 -0.189367886633,0.252319388092 l-0.273264870048,0.195371061563 -0.839785858989,0.781470909715 l-0.364449173212,0.701948478818 -0.287854969501,0.582835972309 l-0.0313173164614,0.833431780338 -0.160971712321,0.686800405383 l0.180372297764,0.371483452618 0.170939471573,0.364326871932 l-0.0448518898338,-0.332447513938 -0.192694887519,-0.0264390814118 l0.372310467064,0.0778158335015 0.0711282528937,-0.304357111454 l-0.0781400129199,-0.494582280517 0.024005821906,-0.633346885443 l0.200789589435,-0.806909203529 -0.17074694857,-0.787885859609 l-0.227236375213,-0.452689938247 -0.146475592628,-0.31555633992 l-0.326522216201,0.156719572842 -0.764120668173,0.538542084396 l-0.176262240857,0.458709746599 -0.0202644779347,0.63069447875 l-0.427184738219,0.638090074062 -0.064360848628,0.718297213316 l-0.0574247306213,0.668321549892 0.0205552321859,1.01456925273 l0.0546570774168,0.483965054154 -0.20978577435,0.583876259625 l-0.448857136071,0.682253018022 -0.334680788219,0.535638704896 l-0.0688834348693,0.407014116645 -0.326051898301,0.49147631973 l-0.190538205206,0.59773851186 -0.121899526566,0.430149026215 l-0.341727547348,0.245747826993 -1.12628825009,0.563806518912 l-0.793113857508,0.500974431634 -0.332227125764,0.587563030422 l-0.529709681869,0.287094898522 -0.636728405952,0.286280885339 l-0.711351558566,0.388507544994 -0.506267100573,0.0170772522688 l-0.756020620465,0.0268030469306 -0.789193063974,-0.15371311456 l-0.800975859165,0.0468562403694 -1.20575390756,-0.102796573192 l-0.898439958692,0.153740653768 -0.776029974222,0.15204991214 l-0.662101656199,0.0411238707602 -0.952493399382,-0.538950078189 l-0.709230154753,0.198414344341 -0.67198805511,-0.119981579483 l-0.490005426109,0.110486391932 -0.377098657191,-0.324512645602 l-0.454706475139,-0.512431710958 -0.40151078254,-0.283847283572 l-0.685418471694,-0.639737024903 -0.549480170012,-0.442918911576 l-0.978382751346,-0.699850767851 -1.10006906092,-1.0110745579 l-1.43629565835,-1.58509850502 -0.486648418009,-0.690364316106 l-0.935109704733,-0.800199136138 -0.735950917006,-0.588444471359 l-0.617341250181,-0.511675812304 -1.13070629537,-0.326393730938 l-0.78242495656,-0.0623794086277 -1.17214933038,-0.557528063655 l-1.67372867465,-0.981305241585 -1.65946930647,-0.988435223699 l-0.9775891155,-1.07364095747 -1.14458635449,-1.42697632313 l-0.765472501516,-2.08331018686 -0.618721619248,-1.72214493155 l-0.670226067305,-1.96557030082 -0.519913956523,-1.66845217347 l-0.943694114685,-2.7688318491 -0.732141435146,-1.99781239033 l-0.50088506192,-1.49762988091 -0.182439722121,-1.94176420569 l-0.0860892795026,-1.42350167036 0.159643758088,-1.21852919459 l0.0587746920064,-0.949984118342 0.139736933634,-0.85874594748 l0.318643897772,-1.38611912727 0.166628062725,-1.85129091144 l0.210115239024,-1.47946953773 0.322695486248,-1.43443509936 l84.5903682709,-24.688513279 0.984497964382,0.315702110529 l2.30674043298,1.76764756441 0.971908643842,0.575677081943 l2.60382384062,1.25299453735 2.7303403616,1.06514699757 l1.80779203773,1.04253083467 1.82363942266,1.56765073538 l2.52741783857,1.94316133857 2.29968830943,1.56976521015 l3.06551784277,1.9405528903 2.18032717705,1.46618291736 l1.63878753781,1.53802722692 2.2561314702,2.44022384286 l1.99274227023,1.40465080738 2.34993875027,1.74417510629 l3.23260933161,2.67791539431 1.86415910721,1.71514049172 l2.92703568935,2.65031665564 2.69455164671,2.50141948462 l1.92866146564,2.16955199838 1.80536851287,2.29439407587 l2.50686973333,3.05137217045 1.26947879791,2.00208306313 l1.32922813296,2.04844892025 2.41278573871,5.37859618664 l1.25065639615,2.32137650251 1.25948384404,2.3475009203 l1.04252487421,2.29179367423 2.01968863606,2.74250656366 l1.26424327493,1.95210143924 1.3927718997,2.51729041338 l1.6160389781,3.15099954605 0.927809625864,2.2050960362 l0.948762968183,2.15066477656 0.735854879022,2.59284824133 l1.02589905262,3.5759589076 0.58941360563,2.08166122437 l0.508367195725,1.68196350336 0.427760854363,1.81046336889 l0.397150553763,1.66742026806 0.243226643652,1.66788756847 l0.502665191889,2.24148839712 0.304992217571,1.56077057123 l0.359542407095,2.29623824358 -0.0200458103791,1.60043805838 l0.00350581336534,2.81891793013 -0.330337546766,2.12342143059 l-0.720556229353,3.00186425447 -1.18970669806,3.86095017195 l-1.16157442331,2.2445012629 -1.5539881587,3.10913085938 l-0.910751223564,2.17213898897 -1.50243163109,2.84334599972 l-2.24434405565,3.96060585976 -0.98893083632,1.23592592776 l-2.17413499951,2.17127084732 -3.19144815207,1.94560006261 l-1.96094274521,1.15801505744 -2.99319297075,1.74846097827 l-1.98050364852,1.20319597423 -3.02913308144,0.379930064082 l-2.07954749465,-0.291605573148 -2.76610523462,-0.400094389915 l-2.4530787766,-0.294114556164 -2.2233402729,-0.369602553546 l-2.10936903954,-0.464485250413 -3.14278036356,-1.06680691242 l-3.28543424606,-0.617608614266 -1.87379285693,-0.518209151924 l-3.19350033998,-1.4283876121 -1.296377033,-0.963577181101 l-2.6188352704,-1.38070225716 -1.38840839267,-1.10019937158 l-0.855233445764,-0.589375756681 -1.56218037009,-1.58804431558 l-2.33850508928,-2.1982228756 -1.47947788239,-1.49682417512 l-1.08101345599,-1.16904094815 -1.65759220719,-2.32469052076 l-1.18792943656,-1.86644122005 -0.950286090374,-1.89951762557 l-0.938553214073,-2.47790694237 -1.0662908107,-3.40990692377 l-0.563986338675,-1.85714691877 -0.378884375095,-1.94386437535 l-0.35179708153,-1.77634879947 -0.591194480658,-2.7905985713 l-0.396471992135,-1.4528080821 -0.598566122353,-1.88512653112 l-0.642142593861,-1.89029723406 -0.114658605307,-0.963137894869 l-0.703487321734,-1.68759644032 -0.5090521276,-0.885503813624 l-0.767007470131,-0.834446400404 -0.771179273725,-0.78007876873 l-1.55825287104,-1.09528034925 -0.619879029691,-0.721409022808 l-0.974931046367,-0.8661852777 -0.44657420367,-0.728482529521 l-0.634625554085,-0.695653557777 -0.288001410663,-0.982757806778 l-0.34404758364,-0.784564241767 -0.300160050392,-1.13218896091 l-0.478960834444,-1.76711633801 -0.320672690868,-0.963907986879 l-0.118335485458,-0.793349742889 -0.197370052338,-0.80616004765 l-0.207985006273,-0.670400038362 0.0372888334095,-0.628695711493 l-0.422843135893,-0.939039811492 -0.129370065406,-0.25429379195 l-0.10111887008,-0.393906459212 -0.290262810886,-0.316418334842 l-0.12020226568,-0.213493015617 -0.168202202767,-0.592414289713 l-0.0691063981503,-0.094201201573 0.13657652773,0.48076312989 l-0.0352521636523,-0.0742715410888 0.00744348857552,0.346376560628 l0.0425056694075,0.307195223868 -0.117023680359,0.643564388156 l-0.158551651984,0.485344305634 0.121795199811,0.183348637074 l0.189393702894,-0.581559240818 0.126342708245,-0.549649819732 l-0.144181484357,-0.466420650482 0.13830749318,-1.06427483261 l-0.217197071761,-0.802214071155 -0.0714069278911,-0.674010366201 l0.0829047430307,-0.449610538781 -0.11589650996,-0.302350744605 l0.345246233046,0.299394521862 0.213744658977,0.474894791842 l0.251043718308,0.205611716956 0.31292501837,0.395602397621 l0.354428850114,0.63816331327 0.347164496779,0.767218992114 l-0.141348373145,-0.386675186455 -0.207819230855,-0.613264292479 l-0.225726868957,-0.585422702134 -0.203639566898,-0.955649837852 l-0.203557237983,-0.416429340839 0.0676244543865,-0.437440387905 l-0.024121098686,-0.483822524548 0.0286347605288,0.114098982885 l0.21144464612,-0.0560096465051 0.304982271045,0.38293775171 l0.394302792847,0.347967483103 0.203502532095,0.526820905507 l0.179882906377,0.484034009278 0.417275577784,0.493824183941 l0.357302688062,0.204343926162 0.356361940503,0.400335453451 l0.463721342385,0.0986326951534 0.262248329818,0.340836979449 l0.43418828398,0.147697804496 0.728046223521,-0.0340936752036 l0.750442519784,-0.0689152535051 0.216279048473,-0.399596877396 l0.258703250438,-0.376610308886 -0.0260465894826,-0.856233611703 l0.0797168724239,-0.57667773217 0.21385839209,-0.709286555648 l-0.0978343375027,-0.526720806956 0.216220486909,-0.280466414988 l-0.0419839005917,-0.159197598696 0.473621897399,0.98829858005 l0.202386081219,0.690297856927 0.322694331408,0.48894058913 l0.307190567255,0.365558080375 0.386294797063,1.02290764451 l0.416155830026,0.625592172146 0.324490182102,0.581734851003 l0.18068600446,0.451970472932 0.138618731871,0.747732520103 l0.146786374971,0.269180163741 0.139254815876,0.668985694647 l0.163922328502,0.43526340276 0.148478252813,0.275974422693 l0.0885916873813,0.462211035192 0.210379771888,0.266526658088 l-0.0256784493104,0.201624985784 0.177033320069,0.292723961174 l0.146875791252,0.25082424283 0.0782990828156,0.259274337441 l-0.102250790223,-0.245442911983 0.312165077776,-0.143308024853 l-0.0724079739302,-0.487847849727 0.112607209012,-0.228547360748 l0.00223054317757,-0.4745798558 0.137043688446,-0.706560760736 l-0.0666155386716,-0.55411439389 0.225001014769,-0.188120547682 l0.431032404304,0.00237212239881 0.347081124783,0.240153614432 l0.431381501257,0.24620577693 0.296465419233,0.291284639388 l0.368851348758,0.611476786435 0.277899131179,0.656553804874 l0.284302737564,0.400024615228 0.513099990785,0.548514612019 l0.615049339831,0.377934426069 0.752855092287,0.408932007849 l0.153466165066,-0.227083154023 0.779655352235,0.1170484256 l0.83336122334,-0.442110486329 0.560274943709,-0.38442902267 l0.604814402759,-0.276424773037 0.946289896965,-0.349187217653 l1.25885933638,-0.516773797572 1.00650899112,-0.511467307806 l1.06944926083,-0.328815840185 1.08185596764,-0.332152470946 l0.423805750906,-0.491447262466 1.43117234111,-0.983257591724 l0.953582748771,-0.893655270338 0.945369750261,-0.646892786026 l0.926908180118,-0.681493356824 1.45090818405,-0.933130308986 l1.01286813617,-0.439859516919 2.16957241297,-2.12501779199 l0.75811304152,-0.821368321776 1.2649603188,-1.16118766367 l0.869326293468,-0.971659496427 0.915474444628,-1.1354470253 l1.29019007087,-1.35855361819 0.842076316476,-1.82202920318 l0.998449996114,-1.86112180352 0.574891492724,-1.64381936193 l0.319026894867,-1.32536351681 10.3844249249,-19.3962907791 l2.28939116001,-4.29745316505 1.69957131147,-1.877502352 l2.14699745178,-2.95442014933 1.45737424493,-2.67071425915 l2.47835293412,-4.28071886301 1.06520749629,-2.19513058662 l1.47945150733,-3.7659984827 1.16723954678,-2.78207331896 l0.46662453562,-2.46929630637 0.455708317459,-2.73726254702 l-0.00683522259351,-1.93278834224 -0.149571076035,-3.05798411369 l-0.408728718758,-2.07713216543 -0.592935979366,-2.48329132795 l-0.708141177893,-2.11240112782 -0.444333776832,-2.69144386053 l-0.888707339764,-3.53061199188 -0.608425550163,-3.71343255043 l-0.809014588594,-3.11687678099 -1.75125017762,-4.27908450365 l-1.2919870019,-2.39816233516 -1.78256332874,-3.65726470947 l-1.43247827888,-3.95491838455 -1.83911457658,-3.18078041077 l-0.985639169812,-2.22944706678 -1.47947713733,-2.44219332933 l-2.3747754097,-2.47127562761 -4.14061278105,-3.41563135386 l-1.99535623193,-1.459543854 -3.03049713373,-1.77184283733 l-4.92100298405,-2.36194014549 -2.45663583279,-1.26681521535 l-2.12681636214,-0.361868292093 -1.64175391197,-0.439883470535 l-2.91525036097,-0.339808426797 -1.03085100651,0.0595752708614 l-2.17272266746,-0.225233025849 -1.32352501154,-0.381909869611 l-1.27223715186,-0.0392338586971 -1.11826144159,-0.231834053993 l-1.46244645119,-0.437557063997 -2.74783581495,0.2503865771 l-1.70387849212,0.480541028082 -1.48448616266,0.277894549072 l-1.47159129381,0.460410714149 -1.76093190908,0.267317499965 l-1.64543300867,0.472241677344 -1.06581620872,0.283765606582 l-1.4057970047,0.363849028945 -1.68622672558,0.479120537639 l-1.11726753414,0.465427860618 -1.03609882295,0.493494905531 l-2.50199347734,0.816068947315 -1.72525078058,0.967870652676 l-2.1823605895,0.949501395226 -1.32640823722,0.945609435439 l-1.34983152151,0.775225162506 -1.25102505088,0.738349333405 l-1.56067699194,1.07575044036 -1.2658855319,1.01922780275 l-0.936871170998,0.77738918364 -1.87456890941,1.29657045007 l-0.841951072216,0.66262640059 -0.819173082709,0.612116008997 l-1.06932669878,1.00927568972 -1.20238572359,1.20124779642 l-1.78104311228,1.70799136162 -0.875282362103,0.838470160961 l-0.871349126101,0.740434229374 -0.559939034283,0.238683000207 l-1.16210438311,0.708495751023 -0.888135284185,-0.0242405175231 l-0.726925209165,0.381698049605 -1.07834100723,0.604774281383 l-0.965579524636,0.24309085682 -0.591467022896,0.0863123405725 l-0.849427506328,-0.0774843571708 -0.7760001719,-0.0432904576883 l-0.679986029863,-0.419519431889 -0.22371487692,-0.505344904959 l-0.284685064107,-0.838799476624 -0.231423974037,-0.449809543788 l-0.224339962006,-0.694425925612 0.398654304445,-0.640273988247 l-0.381830371916,-0.203302223235 0.00470191240311,0.248999260366 l-0.281208027154,0.105183087289 -0.174109246582,0.206348858774 l-0.466712191701,0.349886380136 -0.428061187267,0.483266375959 l-0.263122934848,0.43403018266 -0.341319106519,0.365331321955 l-0.15395632945,-0.410754419863 -0.440314933658,0.0113513914403 l-0.19489262253,-0.455547273159 -0.254020318389,-0.304209720343 l-0.0718684541062,-0.632028132677 0.134561052546,-0.670698434114 l0.231074132025,-0.49162261188 -0.436969324946,0.0335864792578 l-0.35446960479,-0.14030684717 -0.495963916183,0.121598429978 l-0.543414950371,-0.0286438758485 -0.667096078396,0.115391127765 l-0.378132164478,-0.0987022742629 -0.597425065935,-0.353384874761 l-1.68685078621,-1.54982239008 -0.281494390219,-1.00769653916 l-0.362642407417,-0.762051716447 -0.369085930288,-1.09865009785 l-0.200176239014,-1.25252783298 -0.0580801209435,-1.44664004445 l-0.0248567597009,-0.658758282661 0.0425768876448,-1.30252599716 l-0.0457970844582,-0.95906496048 0.0438850559294,-0.872730463743 l-0.612736679614,-0.98793618381 -0.749533623457,-2.22189411521 l-0.419656522572,-0.786937922239 -0.414060875773,-0.989297926426 l-0.728435963392,-1.09733633697 -0.249389838427,-0.748050808907 l-0.291332621127,-1.20527863503 -0.405818857253,-1.21069386601 l-0.291406195611,-1.74910247326 -0.275215730071,-1.11776441336 l-0.590816475451,-1.33986920118 -0.664091259241,-1.25326871872 l-0.66401027143,-1.6989402473 -1.7887955904,-1.97011321783 l-0.751549899578,-0.957674458623 -1.22480407357,-1.17736950517 l-0.881059914827,-1.46458119154 -1.22140288353,-1.22504010797 l-1.28606006503,-1.66553109884 -2.06954315305,-2.27161347866 l-1.86747059226,-1.89048618078 -2.0808185637,-1.83834075928 l-2.51608103514,-2.69180625677 -1.98425427079,-2.43659436703 l-1.21275044978,-2.42173522711 -1.06014899909,-2.4124994874 l-0.897423252463,-2.13232159615 -0.867508724332,-1.81385561824 l-1.24880686402,-2.82631725073 -0.96394456923,-1.93029001355 l-1.1541865021,-3.06570380926 -0.633631274104,-1.93427428603 l-0.132977198809,-2.16442808509 0.102448808029,-1.79269582033 l-0.0216448237188,-2.14840516448 0.295213200152,-1.79993525147 l0.239302590489,-3.22226554155 -0.0410860590637,-1.87074437737 l0.403788127005,-1.90124243498 0.0403579603881,-3.73955637217 l0.333062857389,-1.79168522358 0.0571012264118,-2.09900736809 l0.0426094373688,-2.50256001949 0.336312837899,-3.98366600275 l0.150634637102,-0.94525270164 -0.364206060767,-1.79483726621 l-0.0581632647663,-1.20771922171 -0.0819772854447,-2.20689982176 l-0.147403897718,-1.07928857207 -0.261320080608,-0.853569358587 l-0.561725646257,-1.39744699001 -0.290903504938,-2.305123806 l-0.0698092393577,-1.177277565 0.0881130713969,-1.73730328679 l-0.114561999217,-2.299580127 -0.348361954093,-1.89767420292 l-0.238820910454,-2.7212241292 -0.257901903242,-1.54693245888 l-0.822710469365,-1.94160595536 -1.31410673261,-4.23424690962 l-0.771007984877,-1.16678394377 -2.34678938985,-3.89010995626 l-0.948527529836,-1.5178821981 m-0.292922016233,-0.623859167099 l0.208772234619,-0.433519482613 0.262947492301,-0.21800884977 l-0.0281868525781,-0.508597008884 0.655027255416,-0.496052317321 l0.431277304888,-0.351908281446 -0.0796859432012,-0.511193051934 l0.105967111886,-0.577230863273 0.274781100452,-0.275303367525 l-0.150375673547,-0.343321636319 0.10862480849,-0.356865264475 l-0.0716755772009,-0.128780398518 -0.483599491417,0.215708594769 l-0.315255299211,0.204015206546 -0.468468107283,0.0429845275357 l-0.303753111511,0.114845549688 -0.380859822035,-0.318287089467 l-0.290936399251,-0.464056842029 0.300120022148,-0.679681524634 l0.0202382099815,-0.679678246379 -0.223971474916,-0.543911792338 l0.120117645711,-0.661253929138 -0.0283079594374,-0.865496322513 l0.0888782646507,-1.01615212858 -0.424461364746,-0.58289360255 l-0.216361228377,-1.30547329783 -0.343915596604,-0.472251959145 l-0.380247347057,-0.732303187251 -0.475241243839,-0.393087640405 l-0.942246690392,-0.238066446036 -0.579209551215,-0.315607450902 l-0.536684207618,0.293498784304 -0.545485541224,0.255320928991 l-0.407928079367,-0.237409509718 0.357037335634,-0.262423567474 l-0.160459429026,-0.57242937386 0.240241400898,-0.255668703467 l0.0451796641573,-0.699579641223 0.303246118128,-0.69342777133 l0.191451087594,-1.01589947939 -0.112738460302,-0.575941242278 l-0.410791039467,-0.680989325047 -0.476611070335,-0.202410332859 l-0.819917321205,-0.362541936338 -0.582336969674,-0.0202292157337 l-0.957811698318,0.257794838399 -0.417754761875,0.352856218815 l-0.356616303325,0.488457754254 -0.231842342764,0.490574613214 l-0.351371653378,0.689940080047 -0.428767353296,0.547545924783 l-0.295617468655,0.387126430869 -0.309075247496,0.237207319587 l-0.301166642457,0.48782531172 -0.434164367616,0.234550852329 l-0.493203103542,-0.275638792664 -0.093819797039,-0.439144261181 l-0.331462845206,-0.462050326169 -0.384312868118,-0.746590197086 l-0.258304178715,-0.724504515529 0.0606155255809,-0.667752027512 l-0.295217521489,-0.462173968554 -0.231919884682,-0.53714107722 l-0.323899835348,-0.184270050377 -0.341539531946,-0.486693009734 l-0.336411260068,-0.17959933728 -0.268598012626,-0.354793742299 l-0.279750525951,-0.126384161413 -0.0244427192956,0.381450094283 l-0.0990903843194,0.367494598031 -0.0573096005246,0.427338145673 l-0.0111087446567,0.620454661548 0.151562402025,0.733314305544 l0.265860967338,0.478110574186 -0.0302232080139,0.665140077472 l-0.0591737730429,0.632583424449 -0.0643919594586,0.397054925561 l-0.0854279007763,0.602086000144 -0.312609598041,0.38718726486 l-0.139122474939,0.339778289199 -0.348037146032,0.219460129738 l-0.308608710766,-0.386175215244 -0.48444353044,-1.09554164112 l-0.252595730126,-0.676605775952 -0.345242321491,-0.673886239529 l-0.162072721869,-0.671995654702 -0.123683633283,-0.669998526573 l-0.318061560392,-0.67613735795 -0.591270849109,-0.477463975549 l-0.50013422966,-0.110022155568 -0.237644072622,0.175121687353 l-0.496112294495,0.305327977985 -0.0422525405884,0.671163797379 l-0.293639078736,0.404723547399 -0.170983411372,0.482825599611 l-0.0274455454201,0.43353240937 0.102978283539,0.564867034554 l0.421062670648,0.397083945572 0.29910126701,0.424241237342 l0.228346772492,0.757681950927 0.207429565489,0.437961630523 l0.179257281125,0.439646653831 -0.187579561025,0.113967787474 l0.254193414003,0.388154350221 -0.237157270312,0.231281667948 l-0.019984592218,0.101295383647 -0.154243344441,0.0532483262941 l-0.288640744984,0.0181741185952 -0.171701125801,0.137224514037 l-0.308664515615,-0.0674792705104 -0.254747979343,0.253368150443 l-0.391359552741,0.022731188219 0.176826752722,0.294914580882 l-0.389903746545,0.100157512352 -0.159768536687,0.197014994919 l0.169736947864,0.321094729006 -0.0743932696059,0.458603650331 l-0.0607589632273,0.127845704556 0.0291643594392,0.478901565075 l0.100341420621,0.406745709479 -0.0420630024746,0.313532538712 l-0.120154963806,0.321758836508 0.122230770066,0.331817120314 l-0.0560109410435,0.391537025571 -0.0115528074093,0.283936671913 l-0.194840505719,0.406299680471 -0.264565609396,0.359535440803 l-0.397086776793,0.529203116894 -0.371454618871,0.317211672664 l-0.35111874342,0.459915362298 -0.314403809607,0.455449335277 l-0.248765349388,0.417502112687 -0.21298032254,0.246937461197 l-0.246614702046,0.498872548342 0.0251807551831,0.602787546813 l0.0668731704354,0.387024320662 -0.218177847564,0.246843267232 l0.0650289049372,0.334592796862 0.108782211319,0.641482919455 l0.135899679735,1.11734196544 0.226269625127,0.577675290406 l-0.031122227665,0.986606106162 -0.095357792452,0.450520329177 l0.550346858799,1.89341336489 0.13304810971,0.910563915968 l0.0828205980361,0.829672664404 -0.0435252068564,0.841860100627 l-0.135116009042,0.516196154058 0.0494076032192,0.922281071544 l0.0525590637699,0.718323364854 -0.262666139752,1.03541843593 l0.0506507931277,0.306664016098 0.0601527048275,0.355468988419 l0.333278924227,0.525332652032 0.105779087171,0.801420509815 l0.302782934159,0.4717733711 0.366073027253,0.519274882972 l0.37419077009,0.873429700732 0.393576659262,0.691931024194 l0.167924184352,0.541687756777 0.47655981034,1.11547209322 l0.505632199347,0.703368186951 0.489907935262,0.749512240291 l0.636437758803,0.503640621901 0.535623282194,0.483095832169 l0.495085567236,0.582074783742 0.659119412303,0.621051937342 l0.589217096567,0.559005700052 0.476779267192,0.769357085228 l0.896102041006,0.544774867594 0.60316119343,0.395685397089 l0.765404328704,0.484399236739 0.737757757306,0.315581522882 l1.2392462045,0.387708880007 0.649825111032,0.575212799013 l0.738788694143,0.207042936236 1.06600478292,0.228870604187 l0.830443054438,0.0481011625379 0.884769558907,0.0153220293578 l0.954439342022,-0.030278058257 0.976163446903,0.147754084319 l1.25203430653,-0.291648618877 0.821094661951,-0.0560441473499 l1.00176252425,-0.207074936479 1.17006130517,-0.0113534112461 l1.04393206537,0.0965289678425 1.21801391244,-0.183091256768 l1.52657732368,-0.109135964885 0.939862057567,0.152702350169 l1.74692198634,0.14655857347 1.70263871551,-0.0954950600863 l3.71015757322,0.396723076701 1.57275125384,0.111223440617 l2.58048951626,0.0043925648788 2.26788461208,-0.228317696601 l2.46732115746,-0.207893438637 1.35746896267,-0.242586061358 l1.36128798127,0.0514029897749 1.45617932081,-0.319373346865 l1.34917631745,-0.271515659988 1.79619431496,-0.545181818306 l1.91202193499,-0.488971658051 1.60195186734,-0.285035036504 l1.27568140626,-0.312218405306 1.4281783998,-0.442238077521 l0.902753770351,-0.331626608968 21.7744350433,-81.545124054 l0.229449681938,-0.739978551865 0.663129463792,-0.45118611306 l0.340347737074,-0.381428711116 0.714797228575,-0.56287497282 l0.656311288476,-0.611523203552 0.530327521265,-0.590345971286 l0.5421525985,-0.493207350373 0.497343726456,0.116230202839 l0.511515326798,-0.480492301285 -0.275385975838,-0.269912946969 l-0.115760872141,-0.212566964328 -0.154741164297,0.00895134406164 l-0.271824486554,0.125159686431 -0.319942943752,0.400068834424 l-0.249874852598,0.110214557499 -0.194168705493,0.0854247156531 l-0.222227405757,0.351494811475 -0.446230694652,0.35161793232 l-0.344098061323,0.341383516788 -0.220956727862,0.186840333045 l-0.240634363145,0.559783652425 -0.0422710878775,0.463825277984 l-0.138764260337,0.471206046641 -0.187708418816,0.605341941118 l0.331566669047,-0.0817345455289 -0.178051479161,0.407466217875 l0.0669867405668,0.0825649220496 0.432143583894,-0.895672515035 l-0.02102535218,-0.621425695717 0.14093901962,-0.418468825519 l-0.152796152979,-0.630243569613 -0.0844140723348,-0.350560434163 l-0.227777380496,-0.45696631074 -0.283152069896,-0.178305506706 l-0.0349382171407,0.0654662121087 -0.586435832083,-0.327540971339 l-0.0544708734378,0.27784993872 -0.114281931892,0.0970715656877 l-0.0581051362678,0.29378304258 -0.147662069649,0.463719852269 l0.0125072675291,0.596135742962 0.0968019012362,0.922356322408 l0.11200690642,0.551063157618 0.117923123762,0.718458220363 l0.216625574976,0.739293992519 -0.162409581244,0.503004826605 l-0.0357050867751,0.383025184274 -0.211738254875,0.33234000206 l-0.266656000167,0.230101048946 -0.266401600093,-0.415534041822 l-0.386157594621,-0.211606193334 -0.072846529074,-0.496662333608 l-0.219420567155,-0.275014899671 -0.428773574531,-0.564232282341 l-0.176442377269,-0.670586377382 -0.403383746743,-0.313774719834 l-0.276002455503,-0.771395787597 -0.208950527012,-0.432660318911 l-0.20903179422,-0.302054733038 -0.293904002756,-0.397217385471 l-0.241867471486,0.241634491831 0.226392261684,0.462492965162 l-0.24798059836,0.934897139668 -0.0340076792054,0.75543269515 l0.132381403819,1.06719009578 0.155246155336,0.571632683277 l-0.041420632042,0.616658888757 0.0794655364007,0.6435046345 l-0.0873213354498,0.407507829368 -0.134993018582,0.349578522146 l-0.208768136799,0.329390540719 -0.999108105898,0.523527339101 l-0.352900587022,0.162679702044 -0.679119601846,-0.141041669995 l-0.869365930557,0.0126936065499 -0.871156975627,-0.142434826121 l-0.403229370713,-0.382265634835 -0.31330820173,-0.423067472875 l-0.186058916152,-0.327721759677 -0.119607085362,-0.842256397009 l0.0670899776742,-0.524864122272 0.400664843619,-0.60875762254 l0.55129583925,-0.520528480411 0.898774340749,-0.268161892891 l0.499888584018,0.15081259422 0.347248055041,0.101532563567 l0.447151251137,0.481323674321 0.324193462729,0.472127906978 l0.502268709242,0.290745217353 0.17828412354,0.436602421105 l0.453861802816,0.536217391491 0.151443257928,0.405105128884 l0.00110183624201,0.479166060686 0.0178422243334,0.0520444381982 l-0.240356437862,0.0464956508949 -0.215838290751,-0.0729445321485 l-0.559392124414,-0.231249183416 -0.722809284925,-0.316187180579 l-0.63822299242,-0.584937892854 -0.212544146925,-0.397004522383 l-0.298493541777,-0.762905031443 0.81248998642,-1.32911384106 l0.590047203004,-1.0402277112 0.713881254196,-0.407397449017 l0.894062295556,-0.488734543324 0.599144026637,0.110023915768 l0.624232403934,-0.0864630751312 0.787904188037,0.350432917476 l0.884313434362,0.145260300487 0.739583745599,0.0293829641305 l0.762504115701,0.0185190397315 0.786676853895,-0.14695267193 l1.10801547766,-0.589636154473 1.36612862349,-0.410937108099 l1.45076796412,-0.791136622429 1.16586253047,-0.593404248357 l1.15186192095,-0.589063540101 1.27726569772,-0.811272263527 l1.43203854561,-0.849345773458 0.733676031232,-0.640766248107 l0.442479513586,-0.586658716202 0.571625381708,-1.14870049059 l0.392043627799,-0.720509141684 0.200719628483,-0.738974511623 l0.425655134022,-1.3238351047 0.313544608653,-1.35555192828 l0.500238090754,-1.25409170985 0.20675253123,-0.978996902704 l0.0317020853981,-0.92813462019 0.0972002465278,-0.70067897439 l0.682471618056,-1.51125475764 0.262220986187,-0.830614045262 l0.609142184258,-1.50023669004 0.111595056951,-1.01968750358 l0.393107570708,-0.0619707535952 0.951138809323,0.221033003181 l1.10868856311,0.108743356541 " fill="none" stroke="black" stroke-width="1" /></svg>