<?xml version="1.0" encoding="utf-8" ?>
<svg baseProfile="full" height="257.5796151995178" version="1.1" width="624.6305025773472" xmlns="http://www.w3.org/2000/svg" xmlns:ev="http://www.w3.org/2001/xml-events" xmlns:xlink="http://www.w3.org/1999/xlink"><defs /><rect fill="white" height="257.5796151995178" width="624.6305025773472" x="0" y="0" /><path d="M557.0231515946216,25 m-3.7438037991523743,7.316886782646179 l12.680152654647827,-2.1829380095005035 3.6758655309677124,-4.476546943187714 l7.693635821342468,7.5894516706466675 0.4239506646990776,2.7007481455802917 l3.5015511512756348,13.396267890930176 6.406412124633789,4.8235586285591125 l3.349061906337738,2.0824454724788666 4.5403218269348145,5.677070617675781 l1.7332929372787476,2.315230965614319 1.011120155453682,5.348103642463684 l1.3357900083065033,4.588333964347839 -0.26691148057579994,3.5506784915924072 l-0.6819353252649307,4.735984802246094 -1.5581819415092468,6.487243175506592 l-1.0856334120035172,3.2798001170158386 -1.0707464069128036,2.474699914455414 l-1.7790740728378296,3.640190064907074 -2.62176513671875,4.2714884877204895 l-2.8197848796844482,2.902931571006775 -2.354010045528412,2.093576490879059 l-2.3923325538635254,1.9038864970207214 -2.112230807542801,1.7058861255645752 l-2.259773015975952,1.1276808381080627 -2.523961663246155,0.8481518924236298 l-2.2330930829048157,0.7437319308519363 -1.7188480496406555,0.37196431308984756 l-2.1736426651477814,-0.059825009666383266 -1.816035509109497,-0.13795960694551468 l-1.8151113390922546,-0.23090863600373268 -1.5255671739578247,-0.10865341871976852 l-1.2855154275894165,-0.27907945215702057 -0.6352813541889191,-0.18503664061427116 l-1.3398273289203644,-0.5074599385261536 -1.2377023696899414,-0.6544771790504456 l-0.9233652800321579,0.35440675914287567 -1.1318564414978027,-0.5674216523766518 l-1.349131017923355,-0.5323958396911621 -0.9333786368370056,-0.3064481168985367 l-1.1445406079292297,-0.5938558652997017 -1.0996320843696594,-0.21942134946584702 l-1.0877371579408646,-0.4119132459163666 -0.9392278641462326,-0.6828266382217407 l-0.8033556491136551,-0.9915520995855331 -0.9628240764141083,-0.6179320812225342 l-0.8070965856313705,-0.25058114901185036 -0.5897654965519905,-0.39671920239925385 l-0.877980962395668,-0.23316467180848122 -0.4492386057972908,0.30287133529782295 l-0.652063861489296,-0.1646624132990837 -0.6740108132362366,0.013196805957704782 l-0.2028742991387844,-0.558251403272152 -0.4471233859658241,0.043822433799505234 l-0.4339044913649559,-0.2522953599691391 0.3241417557001114,-0.11108938604593277 l-0.03781656734645367,-0.2971881069242954 -0.1879320666193962,-0.3476765379309654 l0.01042089075781405,-0.05590231157839298 -0.09781382046639919,-0.6545028835535049 l0.1475202850997448,-0.062009673565626144 0.5196535587310791,-0.09297745302319527 l0.3231608122587204,-0.35073794424533844 0.2670007757842541,-0.10901124216616154 l-0.2731067128479481,-0.40261875838041306 -0.22029809653759003,-0.6482025235891342 l-0.25997085496783257,-0.566381998360157 -0.3705116733908653,0.24164758622646332 l-0.5566226691007614,0.26724081486463547 -0.5454986169934273,-0.049151149578392506 l-0.4148511216044426,0.035217893309891224 -0.02151267370209098,-0.3158882260322571 l0.02563530346378684,0.3390650451183319 0.10453814640641212,-0.03843561513349414 l0.2616453543305397,-0.4013637825846672 0.5025030672550201,-0.4394342377781868 l-0.3118843026459217,-0.11221973225474358 0.03222521161660552,-0.2646029554307461 l-0.36168351769447327,-0.29298722743988037 -0.1570933684706688,-0.5269365757703781 l-0.33864177763462067,-0.5993581190705299 -0.5566272884607315,0.002231759572168812 l-0.41193779557943344,-0.0008382125815842301 -0.43685417622327805,0.10270743630826473 l-0.5387081205844879,0.12250385247170925 -0.3948879614472389,0.11954338289797306 l-0.2305297926068306,-0.12905994430184364 -0.47630980610847473,-0.09127493016421795 l-0.44857289642095566,0.2648146450519562 -0.33111266791820526,-0.10234331712126732 l-0.28752783313393593,-0.20424729213118553 -0.24675214663147926,0.17852656543254852 l-0.6670647859573364,0.23353064432740211 -0.3299138695001602,0.17674056813120842 l-0.3822169825434685,0.4029681906104088 -0.18328627571463585,0.3690667450428009 l-0.030643551144748926,-0.3423650935292244 0.03434822428971529,0.7438241690397263 l-0.09812953881919384,0.17271757125854492 0.17309177666902542,0.3360423445701599 l-0.11118363589048386,0.4511028155684471 -0.04383869469165802,0.3697240352630615 l0.23849433287978172,0.27803659439086914 -0.39282992482185364,0.46194128692150116 l-0.02499627647921443,0.37355344742536545 -0.31504884362220764,0.3788796439766884 l-0.016167436260730028,-0.32356925308704376 -0.5127197876572609,-0.24447111412882805 l-0.12471994385123253,-0.5234242230653763 -0.35708650946617126,-0.14122364111244678 l-0.40579088032245636,-0.08055439218878746 -0.38983631879091263,-0.09160840883851051 l-0.27296628803014755,0.05802724976092577 -0.14293123036623,-0.023055863566696644 l0.13111015781760216,0.3202838823199272 0.04229145124554634,0.9603195637464523 l0.2199108898639679,1.9222873449325562 0.11126494035124779,0.4777485132217407 l0.005536879762075841,0.7483994960784912 0.4321718215942383,0.6854625791311264 l0.10184846818447113,0.7781089097261429 0.5016224086284637,1.1383268237113953 l0.1741933450102806,0.004990793531760573 0.3037094511091709,1.1825556308031082 l-0.08524790406227112,0.8256715536117554 -0.30829867348074913,0.37841521203517914 l-0.7951940596103668,1.2160244584083557 -2.273723781108856,1.8216730654239655 l-0.6904524564743042,0.24072527885437012 -0.5781561881303787,0.41323136538267136 l-0.6596888601779938,0.6872197985649109 -0.7096139341592789,0.5098627507686615 l-0.29595570638775826,0.35643458366394043 -0.7553420960903168,0.6493329256772995 l-0.5306252092123032,0.4771445319056511 -0.7385147362947464,1.139686331152916 l-0.6243664771318436,0.8144968003034592 -0.9290657192468643,0.6833884119987488 l-0.3838513046503067,0.5847089365124702 -0.7359525561332703,0.45927930623292923 l-0.7704511284828186,0.2790812775492668 -0.395272895693779,0.3075537830591202 l-0.861835777759552,0.3437446802854538 -0.7053747773170471,0.5828621610999107 l-0.6996769458055496,-0.23792298510670662 -0.848480835556984,0.22867629304528236 l-1.571919173002243,-0.13966895639896393 -0.8182398229837418,0.18833648413419724 l-1.1170770227909088,0.030839035753160715 -0.7987020909786224,0.256670955568552 l-66.2746000289917,1.262430101633072 -3.0498605966567993,3.137148916721344 l-1.861867606639862,1.3053357601165771 -3.058886229991913,3.0734992027282715 l-3.0986368656158447,3.597247302532196 -1.8638122081756592,2.3626230657100677 l-2.238403558731079,3.0202049016952515 -1.5284015238285065,2.3625966906547546 l-1.6868148744106293,3.4533950686454773 -0.7804242521524429,2.8234681487083435 l-1.0933560132980347,3.608754575252533 -0.13613779097795486,2.525591254234314 l0.02054289449006319,3.0925098061561584 0.19492082297801971,3.918651044368744 l0.27017196640372276,2.0550155639648438 0.1137451734393835,2.226322591304779 l0.6309047341346741,4.072938859462738 0.656014084815979,2.8561022877693176 l2.6596271991729736,3.4991037845611572 4.2003244161605835,2.948702573776245 l3.6599504947662354,1.842220425605774 4.525282084941864,1.1791260540485382 l6.672644019126892,1.609155386686325 8.13497543334961,2.557564079761505 l3.363923132419586,1.7717376351356506 4.438365995883942,0.6618979573249817 l3.913552165031433,0.2383551187813282 4.614932835102081,0.27005333453416824 l3.2164618372917175,-0.10156842879951 4.354482591152191,-1.1069311946630478 l2.2328250110149384,-1.126413717865944 3.127087652683258,-3.2904207706451416 l2.2154496610164642,-2.9934626817703247 1.0494976490736008,-1.910610944032669 l0.2980326674878597,-1.6592149436473846 0.08867325261235237,-1.5976566076278687 l-0.08480527438223362,-0.849611759185791 0.009388781036250293,-0.3375428169965744 l-0.1091122068464756,-0.555807463824749 0.5287890881299973,0.014768469845876098 l0.41963208466768265,0.09815187193453312 0.10713950730860233,-0.3030257672071457 l0.33056721091270447,-0.53079042583704 0.32340317964553833,-0.5956332758069038 l0.054319947957992554,-0.5631770566105843 0.025051282718777657,-0.48388756811618805 l-0.12660814449191093,0.10886619798839092 -0.31095726415514946,0.018347831210121512 l-0.44638339430093765,0.08255325257778168 -0.4952407255768776,-0.0998059380799532 l-0.5646452307701111,0.15138412825763226 -0.882754847407341,0.752733126282692 l-0.5879310518503189,0.6339667737483978 -0.532030276954174,0.4459698498249054 l-0.6570861488580704,0.09823630563914776 -0.4759116470813751,-0.19622642546892166 l-0.5148876830935478,0.8375207334756851 -0.7626131176948547,0.16524309292435646 l-1.2026049196720123,0.3836416080594063 -0.7132174074649811,0.252767875790596 l-0.8526289463043213,0.37506967782974243 -0.660664513707161,0.22527620196342468 l-0.8838362991809845,0.3147195652127266 -0.7958327978849411,0.08386054076254368 l-0.5169929191470146,-0.21961404010653496 -0.7051730901002884,-0.266096293926239 l-0.36313824355602264,-0.6099089980125427 -0.006028906791470945,-0.6378449499607086 l0.2978305518627167,-1.0847020894289017 -0.0011613268725341186,0.05064898170530796 l-0.1034487783908844,-0.2687237598001957 -0.18022917211055756,-0.5986077710986137 l0.0817230623215437,-0.0029515023925341666 -0.43288346379995346,-0.04007754381746054 l-0.4581031948328018,0.09147868491709232 -0.43226737529039383,0.4814702644944191 l-0.6282483786344528,0.23877277970314026 -0.5222427099943161,0.14559348113834858 l-0.45262381434440613,0.067000319249928 -0.39645474404096603,0.5130420997738838 l-0.5295751243829727,0.11497225612401962 -0.4410121962428093,0.04149278160184622 l-0.5856684595346451,-0.18530860543251038 -0.5499046295881271,0.08472760207951069 l-0.2094844914972782,-0.5069145560264587 -0.45078642666339874,-0.31480591744184494 l-0.449933260679245,-0.5964088067412376 -0.2572312578558922,-0.49950119107961655 l-0.5205709114670753,0.08610691875219345 -0.11043314822018147,0.011230480158701539 l-0.5838532000780106,0.21534301340579987 -0.8014106005430222,0.7270924001932144 l-0.11010092683136463,0.47635462135076523 -0.1567818596959114,0.3361573815345764 l0.08537178859114647,0.5283810570836067 -0.06201659794896841,0.3983471170067787 l0.12286470271646976,0.09540318511426449 -0.07715653628110886,-0.47883614897727966 l-0.07460874039679766,-0.4285300523042679 -0.16338568180799484,-1.2532110512256622 l-0.7252328097820282,-2.096673548221588 -0.2972172386944294,-0.9749811887741089 l-0.4416302591562271,-1.440824717283249 -0.6138411909341812,-1.0230877250432968 l-0.4720206558704376,-0.4610743001103401 -0.5488820746541023,-0.3501979261636734 l-0.8784574270248413,0.09654788300395012 -0.6044882535934448,0.273045115172863 l-0.7849669456481934,0.39898984134197235 -3.352322578430176,1.7614179849624634 l-0.6828092038631439,0.6474859267473221 -1.5742787718772888,1.0445652157068253 l-1.3670428097248077,0.28597960248589516 -1.1767295747995377,-0.5311356484889984 l-0.9559120982885361,-0.21784914657473564 -0.5551629513502121,-0.37550583481788635 l-0.49720361828804016,-0.31617455184459686 -0.4727921634912491,-0.6769908964633942 l-0.6814630329608917,-0.6693971902132034 -0.7394006103277206,0.12684470042586327 l-0.7931391149759293,-0.09557196870446205 -0.8935784548521042,0.36102425307035446 l-1.2686139345169067,0.11651122011244297 -0.8449423313140869,0.18742015585303307 l-1.1413491517305374,0.5372631922364235 -1.121949851512909,0.24201225489377975 l-1.05227030813694,0.24102002382278442 -1.333143413066864,0.09269741363823414 l-0.808599516749382,0.13341499492526054 -1.083574891090393,-0.1126494724303484 l-1.498996913433075,-0.1473022811114788 -0.8814973384141922,0.13100935146212578 l-1.5069930255413055,-0.3409871831536293 -1.7427732050418854,0.0699451845139265 l-1.277083307504654,0.5159987136721611 -1.084425300359726,0.8694661408662796 l-1.8051141500473022,1.140679121017456 -1.5972618758678436,1.2252000719308853 l-0.8543115109205246,0.7309392094612122 -1.3416175544261932,1.024741679430008 l-0.785132497549057,0.10300286114215851 -0.5618840456008911,0.8327063173055649 l-1.1106371134519577,0.651017501950264 -0.8189477771520615,0.8843083679676056 l-0.8217982947826385,0.5937613919377327 -0.4753030091524124,0.11042242869734764 l-0.45709874480962753,0.3209510073065758 0.05074185784906149,0.32205790281295776 l-0.11640951037406921,0.27169879525899887 -0.24647625163197517,0.11321267113089561 l0.127378823235631,0.4122938960790634 0.1505805179476738,0.479644238948822 l0.4330788925290108,0.21431732922792435 0.0840145442634821,0.2326628379523754 l0.6232871860265732,0.3062586672604084 1.336352676153183,0.026130552869290113 l1.1493867635726929,0.6928841769695282 0.9598540514707565,-0.21122723817825317 l1.8911926448345184,-0.3450293466448784 1.2357629835605621,-0.03455691039562225 l1.2366777658462524,-0.3660319373011589 2.197052538394928,-0.3573702648282051 l0.8794446289539337,-0.08883124217391014 0.5202101171016693,0.5406380072236061 l0.7596547901630402,0.1266426406800747 0.9278944134712219,0.9788510203361511 l0.4489641636610031,0.06554307881742716 0.3346604108810425,0.13650920242071152 l0.44064927846193314,0.10699107311666012 0.2063700184226036,0.44240597635507584 l0.3560442477464676,-2.1921862298768247e-05 0.18392100930213928,-0.025673615746200085 l0.6171932443976402,0.5961903929710388 0.7412058860063553,0.3356626257300377 l0.6181665882468224,0.5611454322934151 0.37955932319164276,0.08687611669301987 l0.8101139962673187,0.4636307805776596 0.25112321600317955,0.20080260932445526 l0.5211511999368668,0.19997557625174522 0.06263948511332273,-0.2218344621360302 l0.2005825750529766,0.3260990232229233 0.1901448704302311,0.58644849807024 l0.005806218832731247,0.7190954685211182 0.3583734482526779,0.11372575536370277 l0.40899835526943207,0.5216735601425171 0.7025176286697388,0.2273409441113472 l0.24138078093528748,0.585506297647953 0.5598662048578262,0.2825530618429184 l0.18370406702160835,0.029118475504219532 0.5811241641640663,0.1417903695255518 l0.6022881716489792,-0.052922447212040424 0.7263845205307007,0.3132510185241699 l0.9488493204116821,0.4739142209291458 0.7504593580961227,-0.04761655814945698 l0.8962342143058777,0.11325172148644924 0.2080150507390499,-0.31971536576747894 l0.06113396491855383,-0.39520200341939926 0.013536147307604551,-0.3375370055437088 l-0.2569344826042652,-0.452127642929554 -0.09084397926926613,-0.614330843091011 l-0.7562847435474396,-0.525677427649498 -0.5000171065330505,-0.3292977064847946 l-0.49016375094652176,-0.2923828363418579 -0.16573328524827957,-0.3465472534298897 l0.1357096154242754,-0.31565144658088684 0.1159810833632946,-0.2780795469880104 l0.23782437667250633,0.07163877133280039 0.901823565363884,0.35092558711767197 l0.6813354790210724,0.4407825320959091 1.5839095413684845,0.2922750636935234 l1.2962742149829865,-0.04815183114260435 0.9690466523170471,-0.2352309413254261 l0.9317342191934586,-1.3689197599887848 0.1239866390824318,-0.1956675946712494 l-0.17475377768278122,-0.7869251072406769 -0.48436086624860764,-0.6125979498028755 l-0.6508278101682663,-0.4339241608977318 -1.1050468683242798,-0.8043837547302246 l-0.780251994729042,0.07158692926168442 -0.5429182201623917,0.15152430161833763 l-0.8651752024888992,0.21699901670217514 -0.4900144040584564,0.15118470415472984 l-1.4561839401721954,-0.9133391082286835 -0.4622970148921013,-0.12303946539759636 l-1.0910698771476746,-1.4555810391902924 -0.6795785576105118,-0.9976049512624741 l-0.697789266705513,-0.83209328353405 -0.4565698653459549,-1.0626821964979172 l-0.6343893706798553,-1.0255047678947449 -0.9211231023073196,-1.5237000584602356 l-2.0657406747341156,-3.9720532298088074 -1.5166915953159332,-2.4575605988502502 l-1.0167213529348373,-1.3600197434425354 -2.3898623883724213,-2.7478551864624023 l-4.401044249534607,-6.608237624168396 -1.5629930794239044,-3.2540634274482727 l-0.6165875494480133,-2.8517428040504456 -0.28003865852952003,-3.560969829559326 l-0.26977818459272385,-3.840663731098175 -0.1671450212597847,-1.7037512362003326 l-0.8020678907632828,-4.019102156162262 -0.4147070273756981,-1.8725548684597015 l-0.266573503613472,-2.8941568732261658 0.003598908369895071,-1.5826861560344696 l-0.4714176431298256,-2.54690945148468 -46.143832206726074,-21.902449131011963 l-1.3016262650489807,-0.7073528319597244 -0.279783196747303,-0.150949414819479 l-2.0216119289398193,-0.13312004506587982 -0.7579006254673004,-0.35119209438562393 l-1.1747084558010101,0.37075225263834 -1.8829283118247986,1.994224339723587 l-0.667712613940239,1.1015071719884872 -0.24994127452373505,1.2455300241708755 l-0.0006501752795884386,0.8662275224924088 0.413486585021019,0.7529036700725555 l0.8850280940532684,0.0481112115085125 1.3727453351020813,-0.7138875126838684 l0.7960028201341629,-1.390058845281601 -0.10602246038615704,-0.7605110853910446 l-0.3316284716129303,-1.7572739720344543 -0.6922831386327744,-0.45443981885910034 l-0.6393561512231827,-0.39446476846933365 -0.7673550397157669,0.17257103696465492 l-0.4528890550136566,0.21448003128170967 2.8996923565864563,-0.9803240746259689 l0.29889171943068504,-0.436088927090168 -0.27202000841498375,0.2644365094602108 l0.1814207248389721,0.25745173916220665 0.18510941416025162,0.41441164910793304 l-0.02701387507840991,0.45840006321668625 -0.354832261800766,-0.046595530584454536 l-0.4604252427816391,0.05293100140988827 -0.2610171400010586,1.1569444835186005 l-0.3123600035905838,0.16499612480401993 -0.1497951988130808,0.22209050133824348 l-0.018346464494243264,0.1537079270929098 0.890381932258606,-0.42770758271217346 l0.26385052129626274,-0.0012311703176237643 0.058890851214528084,0.035839269403368235 l0.6001121178269386,0.27794044464826584 0.3154592216014862,-0.003394689701963216 l0.21257814019918442,-0.339602492749691 -0.5821510031819344,0.008244539494626224 l-0.3348991647362709,-0.21302418783307076 -0.6858322769403458,-0.08722811006009579 l-0.5380667373538017,0.3106481581926346 -0.4316467419266701,0.510871596634388 l-0.6605355441570282,0.3013836406171322 -0.5782610923051834,0.3940998762845993 l-0.4380303621292114,0.189096350222826 -0.6544134765863419,-0.11280298233032227 l-0.8689897507429123,-0.1868925429880619 -0.5986815690994263,0.3404892608523369 l-0.8276630938053131,0.1441221870481968 -0.9313009679317474,0.12982218526303768 l-0.6901440769433975,0.09630781598389149 -0.7383401691913605,0.3088665008544922 l0.12130660004913807,0.5954595655202866 0.24434056133031845,0.19224224612116814 l-0.25833820924162865,0.5205943807959557 -0.06806816905736923,0.8091821521520615 l-0.04796755965799093,1.0795600712299347 -0.17673321068286896,0.5350158736109734 l-0.09769512340426445,1.518465280532837 0.024887104518711567,1.0008539259433746 l0.1893969252705574,1.0765214264392853 0.8428090065717697,1.335597187280655 l0.39191629737615585,0.9961125999689102 0.8810896426439285,1.9319558143615723 l0.8498966693878174,1.4745800197124481 1.365734487771988,2.389225512742996 l0.6955495476722717,0.5320293083786964 1.3715922832489014,1.3087709248065948 l0.5212747305631638,0.6019988283514977 1.1514008045196533,0.442127101123333 l1.1721129715442657,0.20110128447413445 0.9742075949907303,-0.5226929858326912 l1.9591790437698364,-0.3610740974545479 0.8178558200597763,-0.1565864123404026 l1.5987208485603333,0.12790863402187824 1.3321982324123383,0.025577517226338387 l1.171690821647644,-0.1502208597958088 1.3965651392936707,0.20963577553629875 l1.0083670914173126,0.11994062922894955 0.7284770905971527,-0.37746697664260864 l0.8832085877656937,0.2763444185256958 1.7734229564666748,-1.6946524381637573 l0.10978234931826591,-0.7327541708946228 0.5542382970452309,-1.4781984686851501 l0.4280122369527817,-0.41379082947969437 0.5763053894042969,-0.5471790954470634 l0.6708604842424393,-0.6009251624345779 11.691384315490723,-57.03442096710205 l2.3083050549030304,-0.47449469566345215 -0.06647886242717505,0.35683784633874893 l0.47826681286096573,0.3389560431241989 0.20360872149467468,-0.01560349715873599 l-0.1706104725599289,0.7457166910171509 0.4981667920947075,0.5836467072367668 l-0.24838829413056374,0.3212936595082283 -0.08058490231633186,0.04365924280136824 l-0.5010634288191795,0.10492583736777306 -1.7005492746829987,-0.7688756287097931 l-0.3314223513007164,-0.2990061044692993 -0.6493086367845535,-0.09596788324415684 l-1.3467247784137726,-1.2712784111499786 -1.4872626960277557,-1.341482400894165 l-0.5650830268859863,-0.025199679657816887 -0.04294126760214567,0.18670106306672096 l0.9819107502698898,-0.1709541119635105 0.6164975836873055,0.12821964919567108 l0.9059824049472809,-0.06435137707740068 0.6762775778770447,0.019499919144436717 l0.621960423886776,-0.1828203722834587 0.2129136398434639,-0.21128805354237556 l0.19896212965250015,0.3621583431959152 0.11786003597080708,-0.10802173055708408 l-0.05393694154918194,-0.30412906780838966 -0.014871449675410986,-0.3231469541788101 l-0.5391528457403183,-0.22843681275844574 -0.6462407857179642,0.2060888335108757 l-0.5345219373703003,0.3525269031524658 -0.5556280165910721,0.1928848773241043 l-0.47970592975616455,0.3694547340273857 -0.277062002569437,0.13853726908564568 l-0.076900664716959,0.4051411896944046 -0.1676725223660469,0.36175891757011414 l-0.27668511494994164,0.8035868406295776 -0.08055823855102062,0.2904821000993252 l0.18731221556663513,0.3601738438010216 -0.012245328398421407,0.09952598251402378 l0.0532780634239316,0.1658567227423191 0.6272121518850327,0.2845819853246212 l0.12763387523591518,-0.17660679295659065 -0.665813758969307,0.8496503531932831 l-0.3827623650431633,0.35759638994932175 -0.9561926871538162,1.0570158064365387 l-0.24691486731171608,0.43095912784338 -0.5438313633203506,0.8151448518037796 l-1.3882417976856232,1.2207172811031342 -0.7450372725725174,0.5406660586595535 l-0.789353996515274,0.28633948415517807 -0.629393458366394,0.038603004068136215 l-0.8047711849212646,0.05988870747387409 -0.456322617828846,0.030802441760897636 l-0.35480041056871414,-0.46334158629179 -0.8372017741203308,-0.03613750683143735 l-0.5647873505949974,0.009134728461503983 -0.8746853470802307,-0.07380791008472443 l-1.27953439950943,0.2597804181277752 -1.0835134983062744,0.31713463366031647 l-0.8586791157722473,0.3126760944724083 -0.6558823585510254,0.24588610976934433 l-1.202528029680252,0.3098984435200691 -1.265541911125183,0.5908212810754776 l-0.8341207355260849,0.27106381952762604 -1.1611542850732803,0.07501166313886642 l-0.7749070227146149,0.23445885628461838 -0.8866701275110245,0.3520035371184349 l-0.9644968062639236,0.4299261048436165 -0.5978818237781525,0.4296718165278435 l-0.8799635618925095,0.8403273671865463 -0.5462755635380745,0.21869666874408722 l-0.3359704837203026,0.4810706153512001 -0.655893012881279,0.32664336264133453 l-0.04952955059707165,0.2430274523794651 -0.29463991522789,0.17200756818056107 l-0.21526966243982315,0.4256514832377434 -0.4861215129494667,0.4857628047466278 l-0.4330224171280861,0.40739022195339203 -0.6998972594738007,0.39682280272245407 l-0.5759955570101738,0.40456514805555344 -0.7174563407897949,0.44365350157022476 l-1.0519791394472122,0.5907676741480827 -0.3875979036092758,0.3053288720548153 l-1.1438656598329544,0.18297486007213593 -0.5584551766514778,0.276426337659359 l-0.9372393786907196,0.1846098154783249 -0.8083531260490417,0.37199608981609344 l-0.6620296835899353,0.28792940080165863 -0.5590386688709259,0.26819873601198196 l-0.7030487060546875,0.4083796963095665 -0.6277751177549362,-0.20509332418441772 l-0.7095997035503387,-0.06509510800242424 -0.11935248039662838,0.05432246718555689 l-0.44105060398578644,0.03467134898528457 -0.3988336771726608,0.1274964865297079 l-0.27047354727983475,0.3271018713712692 -0.7077256590127945,0.6207273155450821 l-0.2466338686645031,0.626554861664772 -0.6577527523040771,0.8901757746934891 l-0.3460516780614853,0.5906447023153305 -0.1935204491019249,0.39703842252492905 l-0.254230760037899,0.33240843564271927 -0.4510844126343727,0.6084386259317398 l-0.4937407746911049,0.7722187042236328 -0.6400029361248016,0.8246006071567535 l-0.5626735836267471,0.7717346400022507 -0.2464541234076023,0.36628585308790207 l-0.5783839151263237,0.031056581065058708 -0.6241479888558388,-0.11569252237677574 l-0.6566308438777924,-0.05339420400559902 -0.7455667108297348,-0.11108199134469032 l-0.41459280997514725,-0.1341460458934307 -0.6733222305774689,-0.27343375608325005 l-0.6540494412183762,0.25155339390039444 -0.7386539131402969,-0.11533915996551514 l-1.013893112540245,0.3962526470422745 -0.5858541652560234,0.5342456698417664 l-0.4918806627392769,0.5876374989748001 -0.6278936564922333,0.5864454805850983 l-0.185055173933506,0.6250329315662384 -0.4321824759244919,0.2981102094054222 l-0.294161643832922,1.1931522190570831 -0.31086966395378113,0.3846355900168419 l-0.46820659190416336,0.633629634976387 -0.21048001945018768,0.14717266894876957 l-0.23114588111639023,-0.1228142436593771 -0.3358422592282295,0.3747168555855751 l-0.12455255724489689,0.10031807236373425 -0.301851611584425,0.353722907602787 l-0.11801864951848984,0.14203758910298347 -0.07730137091130018,-0.07229108363389969 l-0.2652174234390259,-0.15494676306843758 -0.0044185982551425695,-0.06723595317453146 l0.018099992303177714,-0.05419401917606592 -0.23039132356643677,0.23434452712535858 l-0.16885574907064438,0.2869521267712116 -0.1056484691798687,0.5467908829450607 l0.06384158041328192,0.6225499138236046 0.07656049448996782,0.4014691337943077 l-0.1691574789583683,0.4976027086377144 -0.09705214761197567,0.40095698088407516 l0.15202217735350132,0.34161314368247986 0.08872874081134796,0.7826724648475647 l-0.3181218355894089,0.8352560549974442 0.0840901117771864,0.6239522993564606 l-0.1901380531489849,1.0538391768932343 -0.10179831646382809,0.915786474943161 l0.04054515156894922,0.3691481798887253 -0.11128841899335384,0.6333652883768082 l-0.17257997766137123,0.1791457086801529 -0.2290438674390316,0.7417220622301102 l-0.17838150262832642,0.2156786248087883 -0.4067961499094963,1.1800729483366013 l0.15009836293756962,0.3196277469396591 -0.21534211933612823,0.3220544010400772 l-0.30136045068502426,0.3567526862025261 -0.2879778854548931,0.3383556008338928 l-0.03912524785846472,0.23519273847341537 -0.2427222952246666,0.5731584876775742 l-0.1713113859295845,1.054762378334999 -0.25642119348049164,0.4505910724401474 l-0.5237390473484993,0.7230909168720245 -0.18696308135986328,0.7969683408737183 l-0.6881822645664215,0.9079568833112717 -0.8511288464069366,1.228480264544487 l-1.200849711894989,1.3638323545455933 -0.6334235519170761,0.7416258007287979 l-0.5410465225577354,0.6365861743688583 -0.6351528316736221,0.8770836889743805 l-0.3344288468360901,0.6706680357456207 -0.19973376765847206,1.1421779543161392 l-0.279475636780262,0.5405133962631226 0.4576719179749489,0.15805017203092575 l0.49716293811798096,0.6273818761110306 0.2663680724799633,0.18081441521644592 l0.8923938125371933,0.4397326335310936 1.1713221669197083,0.08250835351645947 l1.1512135714292526,-0.2317643165588379 1.2161562591791153,-0.2381514012813568 l1.1038244515657425,-0.8024634420871735 0.5434805899858475,-0.2118358016014099 l0.576079748570919,-0.11542068794369698 0.5610227212309837,-0.2539735473692417 l0.4347289353609085,-0.0249820901080966 0.9954721480607986,-1.0539332777261734 l-0.06552561186254025,-0.6548071652650833 0.6215495616197586,-1.1011037975549698 l-0.08153976872563362,-0.5370594188570976 -0.4156966507434845,-0.5490975826978683 l-0.03846936859190464,-0.35369548946619034 -0.028874194249510765,-0.23936884477734566 l-0.3555227443575859,-0.7008653879165649 -0.28908662497997284,-0.5600045993924141 l-0.46492699533700943,0.0023640620929654688 -0.349593348801136,0.31427051872015 l-0.7555368542671204,0.02719617448747158 -0.6500084698200226,0.060584330931305885 l-0.639444887638092,0.5666701123118401 -0.9986530244350433,0.2875591441988945 l-1.2136421352624893,0.20973261445760727 -3.0961737036705017,0.41054461151361465 l-1.0191790759563446,-0.1544879749417305 -2.549391984939575,-0.06656889338046312 l-1.1548839509487152,0.25972599163651466 -1.8853536248207092,-0.1593620888888836 l-1.8118265271186829,0.03257586620748043 -1.4868015050888062,0.08122122846543789 l-2.52289742231369,-0.1771041750907898 -2.009785771369934,0.2631404809653759 l-0.9536930918693542,0.07039638701826334 -1.2432623654603958,-0.6327850371599197 l-1.1033636331558228,-0.3081239387392998 -0.8261201530694962,-0.5432097986340523 l-1.1692161113023758,-0.9564965963363647 -0.4656743258237839,-0.237139742821455 l-0.868445411324501,-0.13322284445166588 -0.5201888456940651,-0.40329545736312866 l-0.2960648573935032,-0.06194526795297861 -1.2549397349357605,-0.23220833390951157 l-0.863216295838356,0.05527423229068518 -0.8834905922412872,0.21598048508167267 l-1.3556355237960815,0.5146899074316025 -4.197971820831299,1.5659189224243164 l-1.4922204613685608,0.7465706020593643 -1.9922147691249847,0.3164152428507805 l-1.275811642408371,0.2355431765317917 -4.4226378202438354,-0.6905216723680496 l-1.4225850999355316,0.10360879823565483 -3.0103927850723267,-0.09769577533006668 l-2.149679958820343,-0.06360747385770082 -5.486178994178772,-1.594787836074829 l-2.8896743059158325,-0.9062565118074417 -1.5297827124595642,-0.7506158202886581 l-1.63880854845047,-1.0411789268255234 -1.1252433806657791,-0.8837886899709702 l-1.929355412721634,-0.8133664727210999 -1.264236867427826,-1.2246222794055939 l-1.3175995647907257,-1.395757645368576 -1.1637138575315475,-0.7548438012599945 l-0.8236236870288849,-0.4252919554710388 -1.3445982336997986,-1.3616189360618591 l-0.7537563890218735,-0.5049283802509308 -1.1676329374313354,-1.0915479063987732 l-1.2099716067314148,-0.9360336512327194 -0.9736230224370956,-0.5597477406263351 l-1.346612572669983,-1.1569420248270035 -1.2889499962329865,-0.39555463939905167 l-0.45290861278772354,-0.37027183920145035 -0.37713829427957535,-0.7370811700820923 l-0.46762216836214066,-0.605599507689476 -0.32720018178224564,-0.7131485641002655 l-0.4912293329834938,-0.6463610380887985 -0.45496616512537,-0.43560151010751724 l-0.7607143372297287,-0.4632366821169853 -0.1996731199324131,-0.9133049845695496 l-0.3267669677734375,-0.41704069823026657 -0.5020518973469734,-1.0925700515508652 l0.016754305688664317,-0.24285560473799706 -0.3263911232352257,-0.7745808362960815 l-0.5910197645425797,-1.4314740896224976 -0.7422413676977158,-1.299021989107132 l-0.5917363986372948,-0.4514004662632942 -0.42723406106233597,-0.10424047708511353 l-0.6753915548324585,-0.5220272019505501 -0.7044091075658798,-0.042596450075507164 l-0.6179264187812805,0.027724991086870432 -0.6203163415193558,0.054408409632742405 l-0.7293426245450974,-0.00575491925701499 -0.8158458769321442,-0.09959672577679157 l-0.7115275412797928,0.32659411430358887 -1.012633666396141,0.5400513857603073 l-0.7695462554693222,0.49990151077508926 -0.8247117698192596,0.41971083730459213 l-0.8574694395065308,0.0790699664503336 -0.7353869080543518,0.13929788023233414 l-0.7068606466054916,-0.07175080478191376 -0.7258659601211548,0.18478099256753922 l-0.548638179898262,0.011641874443739653 -0.30986782163381577,0.025715455412864685 l-0.22058600559830666,-0.21905627101659775 -0.13671334832906723,-0.388902947306633 l-0.4400862008333206,-0.07359619252383709 -0.1407296024262905,0.26374680921435356 l-0.5231725797057152,0.0941427331417799 -0.5371773615479469,0.37517424672842026 l-0.6136255711317062,0.790097713470459 -0.45934539288282394,0.9015697240829468 l-0.6425493955612183,0.27709074318408966 -0.4280101880431175,0.13816352933645248 l-0.7873674482107162,0.3446641191840172 -0.4790499433875084,0.6293186545372009 l-0.5931676179170609,0.2802487649023533 -0.8248480409383774,0.7627687603235245 l-0.6470797955989838,0.7389187067747116 -0.548723004758358,0.6883677840232849 l0.2408968098461628,-0.2469182200729847 0.05919123534113169,-0.32202575355768204 l0.477711446583271,-0.5516326799988747 0.25737812742590904,-0.7009779661893845 l0.3172130882740021,-0.5530797690153122 -0.22080803290009499,-0.5379286408424377 l-0.23765327408909798,-0.6697718799114227 -0.07702467497438192,-0.09206587448716164 l-0.22740568965673447,-0.6376279890537262 -0.30417563393712044,-0.27820272371172905 l-0.5487777292728424,-0.294891893863678 -0.5294690281152725,-0.07466915529221296 l-0.5376755446195602,0.4758474975824356 -0.42965028434991837,0.3477957472205162 l-0.29866401106119156,0.29813332483172417 -0.26680974289774895,0.6879650056362152 l-0.26253025978803635,1.2147626280784607 -0.2998744696378708,0.29410872608423233 l-0.18253345042467117,-0.11741036549210548 -0.5202344805002213,-0.17532514408230782 l-0.284540019929409,0.11475430801510811 -0.39960823953151703,0.1044150535017252 l-0.5846528708934784,-0.1401861570775509 -0.6671436131000519,-0.12747244909405708 l-0.7710611820220947,0.03620209405198693 -0.2009166032075882,-0.18968848511576653 l-0.6043365225195885,-0.2398962341248989 -0.8371835947036743,-0.3909386321902275 l-0.4346438869833946,-0.22374125197529793 -0.5125348642468452,-0.06134399678558111 l-0.6246446818113327,0.018795429496094584 -0.5096797272562981,0.14833513647317886 l-0.4515167325735092,0.29945990070700645 -0.8458297699689865,0.4648621752858162 l-1.265995353460312,0.4217992350459099 -0.5645516514778137,0.22893784567713737 l-0.5769912898540497,-0.054915836080908775 -0.7322044670581818,0.029574150685220957 l-0.6670030206441879,0.49622926861047745 -0.70921391248703,0.1547994464635849 l-0.7114479690790176,0.16430431976914406 -0.7124087959527969,0.06953555159270763 l-0.6187451258301735,0.21568335592746735 -0.8298573642969131,0.4225163161754608 l-0.4285217449069023,-0.20285986363887787 -0.8084259927272797,-0.2158934809267521 l-0.6871142238378525,-0.09230053052306175 -0.908898189663887,-0.07096541579812765 l-1.4973457157611847,-0.4848887398838997 -1.0631662607192993,0.15186690725386143 l-1.5899178385734558,0.36133915185928345 -1.3023702800273895,0.5586558952927589 l-1.9822882115840912,0.29243336990475655 -1.2880748510360718,0.4057386517524719 l-1.701333224773407,0.03524657106027007 -1.595398187637329,-0.6070374697446823 l-1.2139098346233368,-0.21199015900492668 -0.9202325344085693,0.08035681210458279 l-0.8554697781801224,-0.0521719828248024 -0.9679947793483734,0.3839448466897011 l-0.5183375626802444,0.7430364191532135 -0.6059209629893303,0.6897535175085068 l-1.3482758402824402,1.2199515104293823 -0.7481998205184937,0.6413524597883224 l-0.9743466228246689,0.9442374110221863 -0.8040255308151245,0.5841891467571259 l-0.9254496544599533,0.9825395792722702 -0.6389772891998291,0.6002888455986977 l-1.0410606116056442,1.156485602259636 -0.25553641840815544,0.8657119423151016 l-1.075119972229004,1.127123162150383 -0.798618495464325,1.4907161891460419 l-0.7997214794158936,1.2755413353443146 -0.46530768275260925,1.2563198804855347 l-0.6365273892879486,1.2055345624685287 -0.40981415659189224,1.5376384556293488 l-0.40294334292411804,1.2642653286457062 -0.542525015771389,1.1761654168367386 l-0.7176429033279419,1.4124386012554169 -0.47038134187459946,1.257709562778473 l-0.5929900705814362,1.4173243939876556 -0.22930966690182686,0.7516931742429733 l-0.1739947311580181,0.8823539316654205 -0.4196133092045784,0.7949935644865036 l-0.8053803443908691,1.3441015779972076 -0.3705066069960594,0.6709253787994385 l-0.5308462306857109,1.0267849266529083 -0.48707693815231323,1.0485585778951645 l-0.2939295023679733,0.7704231142997742 -0.694817528128624,1.2828561663627625 l-2.0720088481903076,2.721910774707794 -0.509246326982975,1.555842012166977 l-0.05038894712924957,0.8454233407974243 0.2591336518526077,1.2180666625499725 l-0.12110152281820774,0.9818803519010544 0.5393018946051598,1.3782316446304321 l0.1321149431169033,1.9848155975341797 0.5384864658117294,1.6531409323215485 l0.3925624117255211,1.1180220544338226 1.5038169920444489,2.0682021975517273 l0.10456286370754242,1.3608747720718384 0.4964110255241394,1.6942280530929565 l1.6738270223140717,4.203800857067108 0.6768497079610825,2.98308402299881 l0.9842294454574585,2.269705981016159 1.1624400317668915,3.042250871658325 l1.0255159437656403,2.1444524824619293 1.290978491306305,2.1781574189662933 l0.6931448727846146,2.1446822583675385 1.128837838768959,3.11096727848053 l2.110144942998886,4.251202940940857 1.0191335529088974,2.32938751578331 l0.9221449494361877,1.9534026086330414 1.4558210968971252,2.310161739587784 l1.8400533497333527,2.8919515013694763 1.0133902728557587,2.096244841814041 l1.2670421600341797,3.2102027535438538 1.911512166261673,3.9782825112342834 l1.0176996886730194,1.9536499679088593 1.7013788223266602,2.839742600917816 l1.2305205315351486,1.9631454348564148 1.1501288414001465,1.839502900838852 l1.4255283772945404,1.4611242711544037 1.3320685923099518,1.4110606908798218 l0.5631917715072632,1.2053780257701874 0.9488338232040405,1.8370936810970306 l1.03832446038723,1.9881151616573334 0.7587695866823196,1.5274718403816223 l1.039445400238037,1.6389404237270355 0.6516218930482864,1.2313244491815567 l0.8685125410556793,1.2002483755350113 0.8150684833526611,0.9387075155973434 l0.7951473444700241,1.0723771154880524 0.7627217471599579,0.9142227470874786 l0.5381838604807854,0.7583370804786682 -0.13145209290087223,0.6289124488830566 l0.5321789905428886,0.7572051137685776 0.08132119663059711,0.630265474319458 l0.17908744513988495,0.45864347368478775 0.13915768824517727,0.46179912984371185 l0.011585548054426908,0.45101895928382874 -0.05825626663863659,0.6794721633195877 l0.07632151246070862,0.4453829303383827 -0.16362706199288368,0.4270876944065094 l-0.27980584651231766,1.0943030565977097 -0.2519318088889122,0.3730235621333122 l-0.07458618376404047,0.4173624888062477 0.11429776437580585,0.3513740748167038 l-0.09569736197590828,0.27677929028868675 -0.22643126547336578,0.31978558748960495 l-0.03829514142125845,-0.17879875376820564 -0.011023149127140641,-0.4852898046374321 l-0.04093830939382315,-0.502210222184658 0.12500747106969357,-0.4053890332579613 l-0.14338266104459763,0.3137914836406708 -0.2010505646467209,-0.5644936859607697 l-0.3775138035416603,-0.19861269742250443 -0.06028810981661081,0.2817417308688164 l-0.028050050605088472,0.021048104390501976 0.3941628336906433,0.4692092537879944 l0.3244279697537422,0.7244560867547989 0.27183132246136665,0.32304663211107254 l0.3727339953184128,0.5848311632871628 0.22976167500019073,1.1789703369140625 l0.048183961771428585,0.7877510040998459 0.24007081985473633,1.0515113174915314 l-0.13632153160870075,-0.23591987788677216 0.10172917507588863,0.3687068074941635 l-0.17751537263393402,-0.5782759934663773 -0.39238739758729935,-0.16587745398283005 l-0.21798290312290192,-0.4099160432815552 -0.24713417515158653,-0.40053311735391617 l-0.16185205429792404,-0.5278922244906425 -0.08660990744829178,-1.0697945207357407 l-0.11187989264726639,-0.946110263466835 -0.036442577838897705,-0.5593257397413254 l0.3056306391954422,0.18199702724814415 0.22504029795527458,0.6651721894741058 l0.09505048394203186,0.2573903650045395 0.21029194816946983,0.782126784324646 l0.11317642405629158,0.869404673576355 0.1572062447667122,1.2257053703069687 l0.12458726763725281,1.3335184752941132 0.256456658244133,0.3666544333100319 l0.0621848413720727,-0.03733203513547778 -0.07031289394944906,-0.3328326344490051 l-0.009295116178691387,-0.27219248935580254 -0.027951188385486603,-1.0907991230487823 l-0.04726565442979336,-1.375729739665985 -0.02609505783766508,-1.8476809561252594 l0.7717689126729965,1.2621623277664185 0.7682324945926666,0.8767716586589813 l0.5942956730723381,1.531987339258194 0.4314585030078888,0.1285063475370407 l0.529787465929985,0.2559790574014187 0.29225707054138184,-0.7155732065439224 l0.00722337223123759,-1.2859593331813812 -0.43139953166246414,-3.0397817492485046 l-0.20261626690626144,-0.856836587190628 0.06093135569244623,-0.8564093708992004 l0.17351217567920685,-0.7248492538928986 0.6595277786254883,-0.8320001512765884 l0.8556860685348511,-0.36371253430843353 0.8584204316139221,-0.841493234038353 l0.8326523751020432,-1.2830890715122223 0.7145878672599792,-1.725381314754486 l0.9469142556190491,-2.378733456134796 1.0491034388542175,-3.2382071018218994 l0.5201656743884087,-1.0952921211719513 0.2867191471159458,-1.9196878373622894 l0.34510817378759384,-2.305316925048828 0.27924254536628723,-1.037467122077942 l0.061542028561234474,-1.3734529912471771 0.1625635288655758,-1.7066538333892822 l1.5272098779678345,-3.785707652568817 1.270395815372467,-4.432631433010101 l0.47296803444623947,-2.474033534526825 0.1008808147162199,-3.6835339665412903 l-0.01956804422661662,-3.0324706435203552 0.1269801426678896,-1.741318553686142 l-0.5403907969594002,-4.1089290380477905 -0.9488992393016815,-3.077346980571747 l-1.1815394461154938,-1.2374179810285568 -1.6870559751987457,-1.3131003081798553 l-1.4795701205730438,-0.7175171375274658 -4.402110278606415,-3.520365059375763 l-2.511298358440399,-1.528639793395996 -1.7762437462806702,-0.8412673324346542 l-1.6601376235485077,-1.1671315133571625 -1.837601214647293,-0.6641562283039093 l-1.4029708504676819,-0.1813742145895958 -2.219088524580002,-0.5783284083008766 l-1.7425227165222168,-0.5942202731966972 -1.3489490747451782,-0.1269930601119995 l-1.915995180606842,-0.06196590606123209 -2.9617390036582947,-0.9779223799705505 l-2.0758984982967377,-0.34201763570308685 -2.4276982247829437,-0.09080282412469387 l-2.533603608608246,-0.4478656128048897 -1.7133481800556183,0.48976078629493713 l-1.2897728383541107,0.6453761458396912 -1.7034153640270233,0.6716125458478928 l-1.2471000850200653,0.7438667863607407 -1.7927204072475433,0.6560637056827545 l-1.5636524558067322,0.7934282720088959 -2.34288826584816,1.564321517944336 l-0.8462599664926529,1.1576749384403229 -0.8711884915828705,1.0021606087684631 l-0.5508480221033096,1.8461620807647705 0.014925658470019698,0.7312291860580444 l0.1529680471867323,1.0724055767059326 0.8353199809789658,1.947992742061615 l0.4890526831150055,1.0572510212659836 0.09004869498312473,1.3470204174518585 l0.3180859237909317,1.6658705472946167 0.20369678735733032,2.2724591195583344 l0.5241028591990471,1.4877557754516602 0.6864137202501297,1.3596303761005402 l1.6806530952453613,1.8168023228645325 1.1726411432027817,1.2780390679836273 l1.2754279375076294,0.7091791182756424 1.124836504459381,0.5311908945441246 l2.2351200878620148,1.013292372226715 0.9938709437847137,0.8138087391853333 l0.8717609941959381,0.5357040837407112 0.7902703434228897,0.28549691662192345 l1.412283331155777,0.8254823833703995 0.8037932962179184,0.557008720934391 l1.939709186553955,1.0176481306552887 0.8329708129167557,0.5719691142439842 l0.7313764840364456,0.35796910524368286 0.9176938980817795,0.08056297898292542 l0.4277520254254341,0.09973366744816303 0.9109771996736526,0.5817016586661339 l0.5873912945389748,0.12251566164195538 1.0115130990743637,1.014358326792717 l0.32740190625190735,0.6077126413583755 0.632379800081253,0.6932353973388672 l0.12288999743759632,0.4653551056981087 0.4166630282998085,0.32335396856069565 l0.7287182658910751,0.8941974490880966 0.29153909534215927,0.5237455666065216 l-0.028619826771318913,0.3616079315543175 0.3203311190009117,0.6574675440788269 l0.38937702775001526,0.7096179574728012 0.004645794979296625,1.1869896203279495 l0.19668787717819214,0.9080382436513901 0.2720695361495018,0.3039427287876606 l0.5323727056384087,0.5654511600732803 0.2163548581302166,0.31174782663583755 l-0.03295040689408779,0.09059389121830463 0.26862381026148796,-0.03914035391062498 l0.11094380170106888,-0.12105913832783699 -0.21457377821207047,0.23665912449359894 l-0.12504808604717255,-0.6026486307382584 -0.07725862320512533,-0.2746107615530491 l0.2776539884507656,-0.38425885140895844 -0.1934501715004444,-0.5412996560335159 l-0.2354232780635357,-0.46397164463996887 -0.16791822388768196,-0.5328678339719772 l-0.08853381499648094,-0.20140156149864197 0.18285660073161125,-0.15781601890921593 l0.3790955990552902,0.5869864299893379 0.7203623652458191,0.5152719095349312 l0.47731176018714905,0.14255317859351635 0.6064916029572487,0.3123696707189083 l0.6796121597290039,0.516006238758564 0.5236146226525307,0.48185795545578003 l0.5962115526199341,0.2380470559000969 0.6103917583823204,0.1890515349805355 l0.10694405995309353,-0.16831142827868462 0.09294596500694752,-0.210164412856102 l0.5598277598619461,-0.08914973586797714 -0.29785314574837685,-0.5625982582569122 l0.522264875471592,-0.08073743432760239 -0.09276993572711945,-0.5473001673817635 l-0.014680410968139768,-0.3360345959663391 0.11976265348494053,-0.48202790319919586 l-0.12675144709646702,-0.42474165558815 -0.16097577288746834,-0.3935619816184044 l-0.06427514366805553,-0.6322013586759567 -0.3482836112380028,-0.5551495775580406 l-0.3389722853899002,-2.0219336450099945 -0.27402907609939575,-0.5268504470586777 l-0.2840990014374256,-0.43419476598501205 -0.0954119861125946,0.23395821452140808 l0.3200453892350197,0.12213550508022308 0.40230318903923035,0.16838731244206429 l0.20712539553642273,-0.278602484613657 0.8661694824695587,-0.5597419664263725 l0.18870895728468895,-0.30856024473905563 0.6545723974704742,-0.690261498093605 l-0.02973268972709775,-0.46603284776210785 0.20487409085035324,-0.7464095950126648 l0.03611186286434531,-0.39788901805877686 -0.17304768785834312,-0.39976660162210464 l0.11950202286243439,-0.31594496220350266 -0.1913658156991005,-0.0034532442805357277 l-0.2504877373576164,0.3330161049962044 0.4044361785054207,0.16867024824023247 l-0.10859931819140911,-0.10735351592302322 -0.3541147708892822,0.12405697256326675 l-0.6545858085155487,0.4864285886287689 -0.8512423187494278,0.3851739689707756 l-0.6428626924753189,0.39551347494125366 -1.2273001670837402,0.3544027730822563 l-0.5435394495725632,0.4712199419736862 -1.097290962934494,0.36944150924682617 l-0.5818251520395279,0.22367829456925392 -0.7370603084564209,0.4507531225681305 l-0.4270594194531441,0.2175501361489296 -0.9150378406047821,-0.4250222072005272 l-0.762261301279068,-1.2438993155956268 -0.6624317914247513,-0.4684171825647354 l-0.6986556947231293,-0.9496203064918518 -0.5620273575186729,-0.5076881870627403 l-1.4156368374824524,-1.9172213971614838 -0.5975627526640892,-0.5500901862978935 l-0.7672382891178131,-0.7515905052423477 -0.9353125095367432,-1.3731786608695984 l-1.100727692246437,-1.3423718512058258 -1.5592427551746368,-2.1241067349910736 l-0.6333773583173752,-0.6932570785284042 -1.1015761643648148,-1.7450615763664246 l-0.8404168486595154,-1.570439487695694 -0.7098361104726791,-0.8600066602230072 l-0.533783957362175,-1.1224845796823502 -0.7177578657865524,-0.8585738390684128 l-1.1981531977653503,-1.619129329919815 -0.35054299980401993,-0.869888961315155 l-1.1059816181659698,-1.223515197634697 -0.7696136832237244,-0.9575942158699036 l-0.43895483016967773,-0.42979005724191666 -0.8829478174448013,-0.9285131096839905 l-0.7747979462146759,-0.4573197662830353 -0.8726824074983597,-0.32727520912885666 l-0.8974535018205643,-0.7591252028942108 -0.970957800745964,-0.39703525602817535 l-1.1662275344133377,-0.6848001480102539 -1.4288227260112762,-1.2269512563943863 l-0.7487621903419495,-0.5706387013196945 -0.8297518640756607,-0.6051900610327721 l-0.5653423815965652,-0.5215469002723694 -0.586908832192421,-0.4251602292060852 l-0.7882481068372726,-0.035958385560661554 -1.1938052624464035,-0.2728629671037197 l-1.0792625695466995,0.13102691620588303 -1.2560643255710602,0.6052219122648239 l-0.9204170107841492,0.5185128003358841 -0.8031003177165985,0.43067190796136856 l-0.49925297498703003,0.5721549317240715 -0.9891907125711441,1.0435648262500763 l-1.1613629758358002,1.5272369980812073 -0.6337004899978638,1.6181357204914093 l-0.7718180119991302,4.192387759685516 -0.06600339896976948,2.2264106571674347 l0.010217961389571428,2.1859700977802277 -0.024686160031706095,1.2759138643741608 l-0.15198525041341782,2.1503937244415283 0.34896086901426315,3.436475694179535 l0.07484426256269217,1.5343867242336273 0.6251218914985657,2.0175713300704956 l0.27766892686486244,1.212255209684372 0.9675516933202744,2.0510882139205933 l0.8109087496995926,2.094978839159012 1.3302616775035858,2.7735400199890137 l0.8785296976566315,1.39645516872406 1.805703192949295,2.156999260187149 l2.065992057323456,1.6131332516670227 1.696224957704544,2.052852213382721 l1.1547508090734482,1.8733906745910645 1.1676820367574692,2.029610425233841 l1.063985824584961,1.3683922588825226 1.0925962775945663,1.695692390203476 l1.5386267006397247,1.2283167988061905 1.781858205795288,1.0428734123706818 l2.4994345009326935,1.4597028493881226 1.5740501880645752,0.7854814827442169 l1.3354340195655823,0.5612074211239815 2.382463365793228,0.8812058717012405 l1.9076132774353027,1.0561026632785797 1.1243317276239395,0.6610742211341858 l1.315290778875351,0.6085160002112389 1.9965790212154388,0.6859301030635834 l0.8886267244815826,0.4469466581940651 1.1409781128168106,0.7354561239480972 l0.7049737125635147,0.6218023970723152 0.5183707177639008,0.44583797454833984 l0.5999445170164108,0.7565409690141678 0.9531981498003006,0.42668554931879044 l0.5245327576994896,0.3475324437022209 0.6331993639469147,0.28953762724995613 l0.3779653087258339,0.3809860721230507 0.6530052423477173,0.35772114992141724 l0.5747636407613754,-0.16931205987930298 -0.19840357825160027,-0.2770397998392582 l-0.11902083642780781,-0.48442911356687546 0.17091289162635803,-0.24807432666420937 l0.040653012692928314,-0.09315240196883678 0.0034099945332854986,0.4118908941745758 l-0.5240317434072495,0.33263202756643295 -0.46697773039340973,0.2903394214808941 l-0.07912508212029934,0.3880802169442177 -0.06200738251209259,0.3678947687149048 l0.32337263226509094,0.3208429366350174 0.19098371267318726,0.29843078926205635 l0.7106468826532364,0.25281600654125214 0.8618555963039398,0.49437396228313446 l0.5271016061306,-0.05388009361922741 0.3612932935357094,0.11894406750798225 l-0.21870993077754974,-0.2980489283800125 0.18485218286514282,-0.36493726074695587 l0.013181146932765841,-0.3125552088022232 -0.2588045783340931,-0.27715912088751793 l-0.3228641673922539,0.0011737659224309027 0.11883859522640705,0.05111232865601778 l-0.019676857627928257,0.20044857636094093 0.44187866151332855,0.24795062839984894 l0.605197586119175,0.3557591140270233 0.6027902290225029,0.21667011082172394 l0.12553111650049686,-0.20235838368535042 0.26150254532694817,0.28574761003255844 l-0.16347095370292664,-0.2596212364733219 -0.2970627509057522,-0.17696542665362358 l-0.20331962034106255,-0.17931995913386345 -0.26880452409386635,-0.6210620328783989 l-0.4259362071752548,-0.4102957621216774 -0.1007667277008295,-0.17635338008403778 l-0.10062966495752335,-0.32587915658950806 -0.03421393455937505,-0.28250645846128464 l0.8045265823602676,0.34451138228178024 0.6023890897631645,0.30404234305024147 l0.6985127925872803,0.0011352491128491238 0.5423453077673912,0.057766782119870186 l-0.043584019877016544,0.5377377197146416 0.20148620009422302,0.28298284858465195 l0.2842986397445202,0.4296531155705452 0.39808858186006546,0.35788994282484055 l0.07098319474607706,-0.10695322416722775 -0.03900600364431739,-0.6404932588338852 l0.057441447861492634,-0.826927050948143 -0.22040078416466713,-0.4166968911886215 l-0.5333509296178818,-0.3650602325797081 -0.5511109903454781,-0.45525621622800827 l-0.23941624909639359,-0.037084510549902916 -0.14400378800928593,0.7475350052118301 l0.2822592668235302,0.8033349364995956 0.5154621601104736,0.46194594353437424 l1.0006660223007202,-0.044717551209032536 0.9113892912864685,-0.0927592534571886 l0.7760270684957504,-1.194911003112793 -0.18927715718746185,-0.7282290607690811 l-0.33929578959941864,-1.3975384831428528 -1.2619689106941223,-3.066922128200531 l-0.3254489600658417,-0.8642501384019852 -0.7321871072053909,-1.2174440920352936 l-0.2573735639452934,-0.8698879927396774 -0.19184868782758713,-0.3001362457871437 l-0.1092434860765934,-0.75328528881073 -0.3852330520749092,-0.2354886569082737 l-0.6094130501151085,-0.24593781679868698 -1.2119224667549133,-0.7197583466768265 l-1.466233730316162,-0.5767113342881203 -0.7884255796670914,0.0901443138718605 l-0.7243674993515015,0.20900843665003777 -1.0255002975463867,0.8025427907705307 l-0.6129134073853493,0.18807969987392426 -2.122511714696884,0.6360023468732834 l-1.5406657755374908,0.5039201304316521 -1.432478427886963,0.6126895546913147 l-2.3685966432094574,0.3156900405883789 -2.701256275177002,-0.2647366374731064 l-1.4841440320014954,0.10538515634834766 -2.980891168117523,-0.2888515219092369 l-2.5238290429115295,0.3495625779032707 -2.779722511768341,0.22382475435733795 l-1.9213895499706268,0.47084320336580276 -2.51709908246994,-0.10743106715381145 l-1.844678670167923,0.29771871864795685 -2.0569460093975067,0.34670472145080566 l-1.9690124690532684,0.02589428797364235 -5.252453684806824,0.6101042777299881 l-2.6702329516410828,0.6239844858646393 -3.8771793246269226,0.4737509414553642 l-3.91461044549942,-0.08549939841032028 -2.7870646119117737,0.16733624041080475 l-5.272442698478699,-0.17428431659936905 -2.2431564331054688,0.38852665573358536 l-2.650359869003296,0.8086260408163071 -2.674703001976013,0.3389288857579231 l-2.250170260667801,0.57930126786232 -3.6122027039527893,0.8603682368993759 l-2.2160521149635315,0.96605584025383 -1.7092446982860565,0.406288281083107 l-87.72209167480469,-65.1869535446167 -0.6293544918298721,-0.3028198331594467 l-0.9272529184818268,-0.053817699663341045 -0.773930698633194,-0.22586725652217865 l-0.5296283960342407,0.09365279227495193 -0.05935959052294493,-0.2627284824848175 l0.24405283853411674,0.10845426470041275 1.0195786505937576,0.7201571017503738 l0.9737488627433777,0.004296268452890217 0.8795789629220963,0.09724498726427555 l0.548926517367363,-0.39361629635095596 0.1530981156975031,-0.08342798799276352 l0.005406314739957452,-0.3640005737543106 -0.023785328958183527,0.02684541279450059 l0.042012096382677555,-0.19075607880949974 0.19825326278805733,-0.24022912606596947 l-0.18800035119056702,-0.35240214318037033 -0.14155510812997818,-0.4461194947361946 l-0.6325723230838776,-0.28576258569955826 -0.5949772521853447,-0.03441234352067113 l-0.07223260588943958,-0.031596862245351076 m0.31255632638931274,-0.11442070826888084 l6.210418343544006,-0.9602817893028259 1.1332779377698898,-0.1871994324028492 l0.45143354684114456,0.2815289981663227 -0.2236204594373703,0.5084698647260666 l0.12850848957896233,1.161665916442871 0.03275868482887745,1.1664838343858719 l0.060992720536887646,1.5764766931533813 -0.10862932540476322,0.5605175718665123 l-0.21177927032113075,0.3123537451028824 0.28249479830265045,-0.2972015365958214 l0.2900870330631733,-0.3061860054731369 0.3843867778778076,-0.2726876549422741 l-0.04543149843811989,-0.500655509531498 -0.12815182097256184,-0.3036685846745968 l0.06799890659749508,-0.7596644759178162 -0.1845007948577404,-0.5771612375974655 l-0.44929657131433487,-0.24388864636421204 -0.41339870542287827,0.3450741246342659 l-0.5047221854329109,-0.0472893426194787 -0.5193683505058289,0.3881664201617241 l-0.5625953152775764,0.3095134161412716 -15.060068368911743,4.4049763679504395 l0.8263414353132248,0.20911650732159615 -0.34487422555685043,-0.07719771936535835 l-0.008055846556089818,0.11384734883904457 0.6205837056040764,0.390096940100193 l0.2693258039653301,-0.1666838489472866 0.16549518331885338,0.18912194296717644 l0.04668588284403086,-0.09488963522017002 0.006584450602531433,0.21180624142289162 l-0.21577360108494759,0.3032553941011429 -0.13418566435575485,0.2621310018002987 l-0.46484433114528656,0.5402885377407074 -0.6254372745752335,1.14341139793396 l-0.43240509927272797,1.510014832019806 -0.46423859894275665,2.6688367128372192 l-1.2226816266775131,1.9562266767024994 -0.4376602917909622,0.6998195499181747 l-0.40205176919698715,0.9796003997325897 -0.7649244368076324,0.8654045313596725 l-0.5569417029619217,0.7318513095378876 -0.8916476368904114,0.8156406134366989 l-0.8697111904621124,0.440860278904438 -0.5944718793034554,0.4036853089928627 l-0.6349021941423416,0.49909602850675583 -0.9072895348072052,0.1460737455636263 l-0.5984827131032944,0.06154055707156658 -0.35647351294755936,0.2880213037133217 l-1.1324592679738998,0.6838077306747437 -0.47678474336862564,0.54579958319664 l-0.8847435563802719,0.5428289994597435 -0.9380441904067993,0.5915176868438721 l-0.8622487634420395,0.18836526200175285 -1.229601427912712,1.179875209927559 l-0.5998131632804871,0.5007357895374298 -0.8578378707170486,0.8754929155111313 l-0.40686968713998795,0.7327274233102798 -0.5732033774256706,0.2418294921517372 l-0.025886448565870523,0.5271146073937416 -0.09142642840743065,0.26014361530542374 l-0.22519128397107124,0.6008851155638695 0.41913431137800217,0.5192090570926666 l0.33672090619802475,0.6593155115842819 0.17769606783986092,0.4392795264720917 l0.11615929193794727,0.2316947653889656 0.4458612948656082,0.08653396740555763 l0.18736543133854866,0.30335482209920883 0.4258327931165695,0.23235706612467766 l0.25277966633439064,0.42639248073101044 0.31483154743909836,0.20048240199685097 l0.36825742572546005,0.5297199264168739 0.022362058516591787,0.290425606071949 l0.03730759955942631,0.5489059165120125 0.05101903807371855,0.2611189894378185 l-0.30496083199977875,0.11798695661127567 -0.3870290517807007,0.4272770881652832 l-0.5793158710002899,0.14808861538767815 -0.7290903478860855,0.26471659541130066 l-1.0555018484592438,0.3208192065358162 -0.30922697857022285,0.14499434269964695 l-0.6099710986018181,0.09517769329249859 -0.4191431775689125,-0.0654440838843584 l-0.38655001670122147,0.09472985751926899 -0.28620321303606033,-0.0406006071716547 l0.30126679688692093,0.47856971621513367 0.26773493736982346,0.10807809419929981 l0.6345247477293015,0.5638929083943367 0.714741051197052,0.16576603055000305 l-0.26441942900419235,0.23543298244476318 0.47794654965400696,0.0002517775101296138 l0.2835193835198879,0.2008419670164585 0.3647274151444435,-0.049280221574008465 l0.39194997400045395,0.011991861974820495 -0.024870391935110092,-0.1948820985853672 l-0.1686527021229267,-0.14446692541241646 -0.6081372126936913,0.0301316287368536 l-0.2571077086031437,0.048887068405747414 -0.4175364598631859,-0.1974884420633316 l-0.42961299419403076,-0.14315545558929443 -0.5183707177639008,-0.296268779784441 l-0.47358982264995575,-0.16698088496923447 -0.4480687528848648,-0.026818779297173023 l-0.19049786031246185,0.3094109706580639 -0.4869479313492775,0.2530682645738125 l0.0204980606213212,0.08777172304689884 0.17844907939434052,-0.039748321287333965 l0.09261800907552242,-0.12150594033300877 0.5618684738874435,0.23791812360286713 l0.20510395988821983,-0.0730544701218605 0.24573585018515587,0.029613804072141647 l0.17107482999563217,0.07344322744756937 0.5271199345588684,0.2831646241247654 l0.2121300995349884,0.24673368781805038 0.07282988633960485,0.4939304292201996 l0.19985664635896683,-0.05592722911387682 -0.5007331818342209,0.2335340529680252 l-0.4753008857369423,0.3374740108847618 -0.6858105212450027,0.007816933211870492 l-0.4364706203341484,0.30633414164185524 -0.13797881081700325,0.24957502260804176 l-0.4682924225926399,-0.10879299603402615 -0.7527793198823929,-0.13612165115773678 l-0.39544034749269485,-0.20843155682086945 -0.4419459030032158,0.01493370276875794 l-0.28240013867616653,-0.3681335598230362 -0.4889368638396263,-0.041276030242443085 l-0.41609104722738266,-0.2912481501698494 -0.6618376821279526,-0.08278245106339455 l-0.6470311433076859,-0.2314237505197525 " fill="none" stroke="black" stroke-width="1" /></svg>