<?xml version="1.0" encoding="utf-8" ?>
<svg baseProfile="full" height="833.794091251" version="1.1" width="380.559760585" xmlns="http://www.w3.org/2000/svg" xmlns:ev="http://www.w3.org/2001/xml-events" xmlns:xlink="http://www.w3.org/1999/xlink"><defs /><rect fill="white" height="833.794091251" width="380.559760585" x="0" y="0" /><path d="M62.6196493208,65.4630978778 m-35.4597139359,-6.46878182888 m-2.15993538499,-5.02285778522 l0.269766189158,-5.45758187771 2.51358062029,-10.9744930267 l2.09536880255,-4.14165228605 6.54819011688,-4.3213018775 l4.24708098173,-0.896633192897 18.3153998852,-2.43549630046 l2.88809508085,0.229229275137 3.19151103497,-0.515555478632 l3.56836289167,-0.051530469209 4.07757133245,-0.406443029642 l3.03248435259,0.552531927824 2.88207292557,2.02444911003 l2.39799126983,4.51734483242 0.706585720181,1.93435177207 l0.258608013391,2.91599839926 -0.092846667394,3.16989332438 l-1.04877404869,7.92636930943 -1.56115695834,4.52987223864 l-2.86179244518,6.7200678587 -1.07248850167,4.48512881994 l-1.23452104628,3.50383758545 -1.82494312525,3.72913062572 l-1.42313942313,3.64126443863 -1.13949678838,2.63217657804 l0.10388574563,3.34779262543 0.076050106436,3.90922158957 l0.579714775085,2.64866024256 0.933712348342,2.32354238629 l0.374148227274,2.33644783497 0.781538933516,2.89512783289 l0.527995824814,2.45860651135 0.591050125659,1.5952308476 l0.840123817325,1.23417086899 1.4366902411,0.411677397788 l1.049900949,0.95893830061 0.554446913302,0.38293171674 l0.801457986236,0.727863162756 0.451984554529,0.816720500588 l-0.0662394426763,0.687274411321 0.165870245546,0.775922760367 l0.174002982676,0.79580552876 0.248593594879,0.812567323446 l-0.0825426355004,0.586356297135 0.240210518241,0.495981387794 l0.0550401443616,0.557208694518 0.084746805951,0.990034490824 l0.33479206264,0.626297518611 0.587619841099,1.23771265149 l0.311593618244,0.800346583128 0.286604966968,0.730417147279 l0.355116315186,0.636056885123 0.632214099169,0.624202564359 l0.524346642196,0.885999724269 0.397969484329,0.367529578507 l0.91601267457,1.00612081587 0.902636945248,1.23118437827 l0.2229594253,0.720484480262 0.477711670101,1.71612128615 l0.461703129113,1.18469499052 0.301905609667,1.01911790669 l0.789627730846,1.52319267392 0.458057001233,0.524325817823 l0.491234771907,0.398340038955 0.675993487239,0.672778636217 l0.351114943624,0.589786171913 0.959372445941,0.636154711246 l0.843318775296,0.385399200022 0.946191772819,0.443742126226 l0.686461403966,0.763000249863 0.582212843001,0.423610061407 l0.448302365839,0.785982310772 0.581276901066,0.905620679259 l0.374751612544,0.940213128924 0.303646661341,0.863849073648 l0.30476462096,0.805161967874 0.242329351604,0.358312018216 l0.414769351482,0.572830177844 0.509633272886,0.359388850629 l0.908334851265,0.63091121614 0.804849639535,0.709033310413 l0.685777813196,0.465987361968 0.65748475492,0.512415133417 l0.889322981238,0.40720384568 0.993733555079,0.613940507174 l1.68502032757,0.831615626812 0.616763010621,0.578079111874 l1.0032325983,0.86788341403 0.606037713587,0.910633355379 l0.863932296634,0.787921920419 1.11196182668,1.01269572973 l0.523804835975,0.484724231064 1.3542561233,0.999054312706 l0.7030159235,0.81919439137 0.658696889877,1.04770533741 l1.05190306902,1.37467235327 0.56742683053,0.415563806891 l0.674558281898,1.20022602379 1.21354483068,1.96366265416 l0.304030906409,0.492787584662 0.872176811099,1.06170199811 l0.742982402444,1.03032529354 0.780240371823,1.21292583644 l0.555933341384,0.611293911934 2.05153614283,2.53152996302 l0.818698629737,0.695627853274 0.804669931531,1.10975183547 l0.437079034746,0.605763271451 0.295579079539,0.862121358514 l0.334973335266,0.830135867 0.381142310798,0.902654156089 l0.192581824958,0.710509866476 0.0191281316802,0.897453501821 l0.284107923508,0.902264863253 0.233404003084,1.28517434001 l0.172072388232,0.842680633068 0.280052702874,1.08242541552 l0.233122557402,1.02956801653 0.383902192116,1.86058267951 l-0.143741602078,1.21804215014 -0.0867690052837,1.12608663738 l-0.0463404459879,1.40624731779 -0.288064703345,1.48143872619 l-0.42638015002,1.79317384958 -0.0355090759695,1.06389313936 l-0.0419215671718,1.34924158454 -0.109533304349,1.60389751196 l0.0890323054045,1.10830619931 0.0672729918733,1.05936206877 l-0.0071925582597,1.08731381595 -0.139901572838,0.614394955337 l0.30589941889,0.936299189925 -0.128287840635,0.803423374891 l0.0279991677962,0.760579034686 0.182953849435,1.0372467339 l0.201938133687,0.794083699584 0.169742405415,1.41604200006 l-0.0635233754292,0.792930647731 0.0047058891505,0.344866998494 l-0.0359336426482,0.904282107949 -0.0557540403679,0.259570460767 l0.0275161396712,0.163877829909 -0.117910411209,0.24412702769 l0.0669991178438,0.411359332502 0.182411260903,0.175779666752 l0.322170816362,0.304375104606 0.475152283907,0.334733165801 l0.39638672024,0.0457936152816 0.45996312052,0.297450199723 l0.30167683959,0.455133840442 -0.000773525316617,0.604295656085 l0.108208749443,0.646523013711 0.161903519183,0.78427657485 l0.300035737455,0.575098618865 -0.0432240497321,0.429499298334 l0.282980240881,0.60297537595 0.112421410158,0.642309561372 l0.201792437583,0.465018153191 0.039123846218,0.735916793346 l-0.0267818477005,0.505682304502 -0.119601665065,0.372854582965 l0.174878779799,0.239154994488 0.0646661408246,0.380819402635 l0.522650815547,0.5083752051 0.284137427807,-0.115417325869 l0.471839345992,0.0552117731422 0.148544842377,-0.201192311943 l0.459568016231,0.147422570735 0.207554046065,-0.0282178493217 l-0.0445480551571,-0.100736590102 0.0908411014825,0.100513957441 l0.0735400058329,-0.10834235698 0.0822617206722,-0.0480297207832 l-0.361338108778,0.115217985585 -0.000244609964284,0.0393412262201 l0.174834746867,-0.253748819232 0.228627696633,0.253288242966 l0.191254839301,-0.239451583475 0.00281333021121,0.137507822365 l0.116905635223,0.0372941582464 0.306085236371,-0.0452448194847 l0.100183384493,-0.544724836946 -0.0924161076546,-0.915545523167 l0.104978857562,-1.1701028049 -0.32249186188,-1.20636120439 l-0.289711970836,-1.05940110981 -0.0846710149199,-0.731383264065 l-0.119717670605,-0.270176101476 -0.197259988636,-0.158217027783 l-0.195561684668,0.275690481067 0.0508906925097,0.447399504483 l-0.220466889441,0.309386905283 0.264552552253,0.319293141365 l0.354179143906,-0.302151218057 0.0675350055099,0.172340385616 l0.0688564358279,-0.1560947299 -0.130275944248,-0.533190779388 l-0.0508165126666,-0.666383653879 -0.0723197869956,-0.887692421675 l-0.304363332689,-0.927081480622 -0.532859936357,-0.919133424759 l-0.893734917045,-1.1534923315 0.103813428432,-0.940209031105 l0.331631675363,-1.04526013136 0.334225594997,-0.924469009042 l0.899372324347,-1.30932569504 0.351000204682,-0.796397998929 l0.331209078431,-0.767972692847 0.474270507693,-0.540999658406 l0.388424433768,-0.146460616961 -0.00170216502738,0.0394174456596 l0.446457378566,-0.0218698917888 0.85901491344,0.126012163237 l0.388375222683,0.503022149205 0.480256378651,0.156530644745 l0.537653490901,0.0474794022739 0.394795462489,0.101328799501 l0.393601767719,0.230712741613 0.369180068374,0.279025156051 l0.422553904355,0.34658305347 0.261390767992,0.339640527964 l0.29875734821,0.280304923654 0.485100001097,0.558298006654 l0.838081687689,0.563512928784 0.4562760517,0.257086735219 l0.777828842402,0.479047521949 0.756074488163,-0.331597067416 l0.541978962719,0.0159930135123 1.07131004333,-0.406418181956 l0.383913293481,-0.325706936419 0.377195701003,-0.26270871982 l0.0314112729393,-0.329787507653 -0.292357541621,-0.48382088542 l0.212298166007,-0.421127565205 -0.142344208434,-0.0460658967495 l0.0448803603649,-0.088950721547 0.0993809662759,0.102291451767 l0.335311666131,0.25069501251 0.0294935237616,0.183659419417 l0.438767112792,0.258948188275 0.919717177749,0.214451141655 l0.252584386617,0.293983966112 1.73699691892,1.16660542786 l0.945766121149,0.348924361169 0.996948704123,0.301419626921 l0.608109235764,0.358537361026 0.82299888134,0.599076859653 l1.03411570191,0.6040109694 0.600455962121,0.490227267146 l0.465578846633,0.502926371992 0.744641050696,0.269458517432 l1.42888948321,0.800457000732 1.38961404562,0.992126017809 l0.877897292376,0.515864044428 0.765300020576,0.55904045701 l0.665951445699,0.660303086042 0.798498615623,0.611187778413 l1.02971360087,0.572670251131 0.808978006244,0.437214374542 l0.445260554552,0.555541701615 0.600472651422,0.442241169512 l0.540279224515,0.488877221942 0.33900603652,0.335806086659 l1.32740676403,0.770868211985 1.5345390141,1.0991577059 l1.63275644183,1.11416906118 0.505736581981,0.265823677182 l2.02616780996,1.13257609308 1.01732574403,0.332619547844 l1.91338598728,0.285059046 2.77030289173,0.256359446794 l1.66866272688,0.587769821286 1.29510506988,0.583301372826 l1.93518683314,0.535940751433 1.61610409617,0.797303393483 l1.80056989193,1.01502195001 1.71688482165,0.652837827802 l2.27215513587,1.34956285357 1.31537944078,0.645332187414 l0.971345677972,0.471732802689 0.959658399224,0.5188459903 l1.34536728263,0.563778392971 5.64956784248,1.01474069059 l1.81309685111,0.275630168617 1.77078738809,0.69245994091 l2.50240772963,0.443483181298 3.53007107973,0.786733999848 l1.82764321566,0.561425387859 3.74419003725,0.964969545603 l1.57874271274,0.977460071445 2.08847731352,0.635735243559 l0.905986204743,0.216728933156 1.55091583729,0.731052458286 l1.70170217752,1.34385541081 1.10919512808,0.834968611598 l1.4914278686,1.36126741767 1.4659100771,2.07445338368 l0.661547482014,1.64691731334 0.465127713978,1.48765191436 l0.849344134331,1.45900800824 0.426429212093,0.803541317582 l0.367656648159,1.51796713471 1.20647199452,1.92632228136 l1.11010380089,1.91976770759 0.728844404221,0.811804682016 l0.907566100359,1.39932021499 0.745990276337,1.06106624007 l0.652596056461,1.16750411689 0.496189706028,1.3607147336 l0.734598189592,1.21139802039 1.11084513366,1.46941319108 l0.420298986137,0.506306998432 0.296356212348,0.289837028831 l0.482746474445,0.838103368878 0.245063584298,0.676038712263 l0.202230866998,0.568448714912 0.00578368199058,1.00440889597 l0.294914338738,0.907781794667 -0.0840234383941,0.951184034348 l0.347687192261,0.831666365266 0.233515314758,0.906336009502 l-0.043783923611,1.00268684328 -0.0492116855457,0.682249292731 l-0.0217164563946,0.562769211829 -0.112452004105,0.720580145717 l-0.0992811750621,0.85652731359 -0.156651195139,1.5014745295 l-0.0645446963608,1.81176200509 0.105290552601,0.9245441854 l-0.0832633581012,2.16734811664 0.015493365936,1.32704675198 l0.235875584185,0.997765883803 0.998369902372,2.15316265821 l0.730982720852,0.951259806752 0.609111525118,1.28863751888 l1.39228641987,1.40773653984 1.16478167474,0.690162107348 l1.07363350689,0.698678418994 1.09460614622,0.951810404658 l0.522137284279,0.61141744256 0.591610260308,0.669880434871 l1.25991031528,0.961103513837 1.15946561098,1.07963316143 l1.13713555038,1.12966187298 1.33873477578,0.92290379107 l1.65498971939,1.42037853599 1.34917527437,0.771754086018 l0.9428422153,0.474170967937 1.40880614519,0.656612068415 l1.63228571415,0.515055544674 0.817043110728,0.248940717429 l1.35230913758,0.416755191982 2.10636556149,0.0277377851307 l0.469115749002,0.309816356748 2.05879181623,-0.61293900013 l1.01175308228,0.424569323659 1.60898923874,-0.0250230450183 l0.775912329555,0.0621244404465 1.04207985103,-0.24436339736 l0.304438322783,-0.124030513689 0.189879648387,0.205156505108 l0.130386324599,-0.0588206807151 0.246779266745,-0.012757612858 l0.0710061751306,-0.0910431705415 0.409853830934,-0.0438246037811 l0.0173198443372,-0.175130907446 -0.0667049502954,-0.24144180119 l0.0793047528714,0.156448241323 0.214228052646,0.0756580801681 l0.922692343593,0.210685972124 0.765344053507,0.310671254992 l0.406857468188,0.192506201565 0.458910129964,-0.141679039225 l-0.236508324742,-0.600725375116 -0.330984219909,-0.647158771753 l-0.0316326902248,-0.423904545605 -0.126999225467,-0.102724283934 l-0.528226681054,-0.257724169642 0.00410039938288,-0.73521733284 l-0.0584026332945,-0.672885552049 0.439254529774,-0.808052197099 l-0.067797517404,-0.226499494165 0.131831970066,0.0594774214551 l0.0196246756241,0.271933618933 0.178203638643,0.246180910617 l0.447949022055,0.456800125539 0.523179136217,-0.0773573061451 l0.383039265871,-0.135295940563 0.0414288649336,-0.642800927162 l-0.118717262521,-0.685329437256 0.0816652923822,-0.683283060789 l-0.0725732231513,-0.366009958088 -0.164005514234,-0.437001995742 l-0.102501092479,-0.42197983712 0.403928086162,-0.419997610152 l-0.0460351770744,-0.102699408308 0.199369285256,-0.0605534296483 l0.547458976507,-0.0947010610253 0.0394567567855,-0.502251200378 l0.15880625695,0.166015718132 0.414434187114,-0.256019458175 l0.536418370903,-0.356884524226 0.0218165433034,-0.528537184 l0.104971323162,-0.552563592792 0.0985407922417,-0.651946589351 l0.279821474105,-0.623467192054 0.118221994489,-0.773576870561 l0.321320407093,-1.14141948521 0.125610670075,-0.409446582198 l0.138326585293,-0.398105233908 -0.0551863620058,-0.48043910414 l0.164249967784,-0.474348515272 0.754790380597,-0.897063538432 l0.756433457136,-1.40831798315 0.321775041521,-1.01658575237 l0.84147349,-0.949362441897 -0.0401061959565,-0.499300733209 l0.363779775798,-0.669835880399 0.476729944348,0.145620703697 l0.378020852804,-0.396358966827 0.458106063306,-0.0821146462113 l0.542011223733,0.213285852224 0.203292407095,0.108507620171 l0.356376282871,-0.272520538419 0.25586925447,-0.0575004797429 l0.215053521097,-0.0541348010302 0.442850254476,-0.217829439789 l0.484646074474,-0.153410453349 0.00783854862675,-0.0507324980572 l0.0811793189496,0.0823622662574 0.0676620472223,-0.142089826986 l0.0202689017169,-0.0720324879512 -0.092330109328,-0.18237747252 l-0.350690968335,-0.0213272706605 0.0142546603456,-0.190610289574 l-0.0437185354531,-0.0505227269605 -0.24137377739,-0.105369538069 l-0.399331077933,-0.316889099777 0.0953130610287,-0.157883930951 l-0.0329139083624,0.250022467226 0.199960675091,-0.309708043933 l0.449050553143,-0.499114580452 0.0457636499777,-0.0729341898113 l-0.00554947124328,-0.106938453391 -0.741121694446,-0.866668820381 l-0.173456072807,0.259150713682 -0.238511823118,0.128558119759 l-0.190155133605,0.0145678420085 0.0236635631882,0.414020009339 l-0.503942705691,0.470474548638 -0.367626845837,0.730951204896 l-0.357970334589,0.646219477057 -0.338839329779,0.599072352052 l-0.407284498215,0.442834272981 -0.189062375575,0.36176700145 l0.0168429675978,-0.765516832471 0.100163519382,-1.23053953052 l0.482526645064,-0.875521376729 0.413514599204,-1.0946662724 l0.429741255939,-0.560655929148 0.413878560066,0.504041686654 l0.286645609885,0.485408045352 -0.279535762966,0.874632149935 l0.0372821767814,0.832233130932 -0.316029787064,-0.474501177669 l-0.536550804973,-0.0118069851305 -0.14613609761,-0.562942400575 l-0.198530722409,-0.766680017114 -0.0938529521227,-0.0761149963364 l0.0351286469959,-0.529859140515 0.259793605655,-0.190302524716 l0.166791062802,-0.108738476411 0.0644392007962,0.17130445689 l0.168359745294,0.397388897836 -0.130437389016,0.205793287605 l0.364066697657,0.693432986736 0.953176021576,0.8476524055 l-0.180989205837,0.593939125538 0.220343656838,-0.198619309813 l0.25573881343,0.244451351464 0.288285017014,0.0490109343082 l0.170759856701,0.219159275293 0.738990083337,-0.497333407402 l1.25644892454,-0.3266550228 0.250646136701,-0.0874469801784 l0.890531465411,-0.474299453199 0.0680568721145,0.380316115916 l-0.00194097126951,0.217955447733 -0.235329922289,0.356918722391 l0.0445628259331,0.632634162903 -0.479857996106,0.652375966311 l-0.245082359761,0.68175137043 -0.269851479679,0.312912762165 l-0.421261265874,0.311813633889 -0.303302239627,0.543976053596 l-0.0520450202748,0.827397331595 0.145615404472,0.95073454082 l0.0206954032183,0.404695756733 -0.279785972089,0.410572402179 l0.0783645454794,0.760732144117 0.195132549852,0.637992545962 l0.332309119403,0.762197747827 0.166626684368,0.908908098936 l0.375093892217,0.525774285197 0.377443432808,0.782230645418 l0.246251095086,0.874205455184 0.137016391382,0.810371786356 l0.519910939038,1.24402761459 0.423537045717,0.587901733816 l1.09019935131,2.94476568699 0.408245585859,1.40038117766 l0.366643927991,0.87263584137 0.585771426558,1.08121961355 l0.142107466236,1.09012395144 0.563907660544,1.6750459373 l0.235780142248,3.36014270782 0.138175440952,3.31075251102 l-0.164346210659,1.74083560705 -0.654732510448,3.07292729616 l-0.46517405659,1.77509695292 -0.901747718453,2.05658569932 l-1.17499232292,2.659945786 -1.67386844754,4.16831165552 l-0.825916677713,2.44011238217 -0.76481923461,2.64008134604 l-0.387678965926,2.03507915139 -0.239068232477,1.28144055605 l-0.150021351874,2.00075507164 -0.121382670477,2.60491281748 l0.180553104728,3.6029329896 0.0833455473185,2.01987296343 l0.176878776401,3.18093121052 -0.0741209369153,4.07189697027 l0.133488178253,2.2764223814 0.979495197535,3.76488059759 l1.91358029842,4.59662646055 2.28252053261,4.1808539629 l0.651848986745,1.23595505953 0.862865969539,2.84631669521 l0.380176194012,2.59733825922 0.390660278499,2.47607171535 l0.154736777768,1.686848104 0.596480369568,3.02686274052 l0.0525673571974,2.16713666916 0.0669658556581,1.88918814063 l0.271740853786,2.14132130146 -0.164840333164,2.23210930824 l0.12781124562,1.82451471686 0.0485327001661,4.1129681468 l0.313745625317,2.05257922411 -0.157607495785,1.95793807507 l-0.203170850873,1.42219349742 0.373595878482,1.59732565284 l0.316376797855,3.67084294558 -0.101612731814,2.05871522427 l0.185080152005,2.62332051992 -0.0284100905992,2.1916346252 l0.119856866077,2.26918593049 0.111152427271,1.9234085083 l0.582509972155,2.33150184155 0.283654276282,3.20607215166 l0.205398630351,2.07414060831 0.412550903857,2.78924137354 l0.246003493667,2.95420855284 0.484984852374,2.2703781724 l0.159275792539,1.30421832204 0.082746502012,1.51764377952 l0.227893292904,1.85640409589 0.284123830497,1.42935559154 l0.205722544342,2.11207151413 -0.0965073052794,1.53791993856 l-0.332244709134,1.2278252095 -0.103739695624,1.63498833776 l-0.520050413907,2.20995053649 -0.426117442548,1.93752080202 l-0.19379356876,1.6909365356 -0.569298490882,2.52953201532 l-0.188669376075,1.40305414796 0.0174976384733,2.36626788974 l0.407929122448,3.08504313231 0.507276766002,2.1296992898 l0.264585148543,1.7748683691 0.448059514165,1.73998475075 l0.548163689673,2.9564127326 0.277100820094,1.67396441102 l0.280823986977,2.80332565308 0.4127785936,1.09615936875 l0.385379418731,1.80794820189 0.507300384343,1.69077515602 l0.238582286984,1.33106276393 0.321185849607,1.85277998447 l0.043577644974,0.60239315033 -0.0604191515595,1.15030318499 l-0.471358299255,1.33189573884 -0.297614261508,1.18540525436 l-0.0903375912458,0.991652160883 -0.160424802452,0.603495314717 l-0.0448002154008,0.856148004532 0.217855852097,0.768475085497 l0.193726252764,0.86704082787 0.414230376482,0.919585824013 l0.390385910869,0.544273927808 0.664349198341,0.344065539539 l1.32949382067,0.220575612038 0.839119851589,0.152171496302 l1.35185748339,0.162539128214 0.398310571909,-0.151655199006 l0.423743166029,-0.106359990314 0.257190633565,-0.110667040572 l0.520128980279,-0.17381535843 0.0939681287855,0.00756620487664 l0.164758227766,-0.209581125528 0.129472725093,-0.197146404535 l-0.00182024290552,-0.123796258122 -0.182835888118,0.0543526792899 l0.0814760569483,-0.406486652792 -0.201380103827,0.263689476997 l-0.129208024591,0.25688810274 -0.0186253909487,0.485641285777 l0.293944906443,0.429618768394 0.678922757506,0.215152464807 l0.475412271917,-0.168456062675 0.390759967268,-0.327405259013 l0.382780693471,-0.496418140829 0.697335600853,-0.30453408137 l0.21499030292,-0.331707932055 0.0245650787838,-0.523849055171 l0.0903942529112,-0.0659653823823 0.0850712321699,0.118871349841 l0.0657509127632,0.226137191057 0.000650101574138,0.450401343405 l-0.0842536892742,0.530408993363 -0.427672974765,0.442911684513 l-0.260168444365,-0.0670332880691 -0.0803270936012,0.343247056007 l-0.198335275054,-0.336723811924 -0.491357780993,-0.192816443741 l-0.268783979118,-0.502462610602 -0.0584417255595,-0.913448110223 l0.3304419294,-0.834424048662 0.716659277678,-0.277435183525 l0.511338748038,-0.715652853251 0.736604630947,-1.01307302713 l0.376453399658,-1.09654285014 0.0748942513019,-0.277964193374 l-0.153800155967,-0.124716078863 -0.27223912999,-0.20227605477 l-0.137919746339,-1.03732660413 -0.345668457448,-0.927671939135 l-0.409716181457,-1.20059467852 -0.154061270878,-0.676221102476 l-0.404336228967,-1.00880078971 -0.229337774217,-1.14962562919 l-0.329837203026,-1.22342012823 -0.51872715354,-1.75148457289 l0.216530486941,-1.89348906279 0.0418994668871,-3.17377328873 l0.206929389387,-3.46519052982 0.0900259893388,-1.16709254682 l0.435514599085,-1.46410509944 0.874493122101,-1.67334496975 l0.388500392437,-1.42371669412 0.445227585733,-1.01903825998 l0.347394905984,-0.949835777283 -0.065563605167,-0.753328502178 l0.106009272859,-0.908280014992 0.257716719061,-0.577764250338 l0.75151860714,-1.11361883581 0.223296638578,-0.484472960234 l0.245493669063,-0.508716627955 0.189639516175,-0.471734367311 l-0.0645902194083,0.110920388252 0.083128111437,-0.170105863363 l-0.0748704513535,0.344122350216 -0.0470336480066,0.0115687015932 l-0.365463010967,0.59505533427 0.181053802371,0.491373986006 l-0.121338684112,0.409608632326 0.0191239069682,0.218711812049 l0.0743148801848,0.321086123586 0.144443223253,0.131309982389 l0.180615410209,0.351840220392 0.355755612254,-0.0119373598136 l0.170239638537,0.385074801743 0.126898819581,-0.258658956736 l0.492964014411,-0.607337392867 0.0795068591833,-0.311684329063 l0.0950029399246,-0.0308706588112 0.201982427388,0.0115393858869 l0.0899840053171,-0.0294612324797 0.128119587898,0.316273644567 l-0.332517772913,-0.34029006958 -0.214971769601,-0.0670205429196 l0.17180563882,0.162979364395 0.043286094442,0.583793669939 l-0.0731872906908,0.515764355659 0.0160664971918,1.20263002813 l-0.511608682573,1.0894446075 0.247494187206,0.633328929543 l0.0463567581028,0.589374266565 0.0431818747893,0.726078599691 l0.163853596896,0.679646655917 0.406264662743,0.771340951324 l0.150270806625,0.839284732938 0.367094129324,0.961168706417 l0.294146835804,0.895185694098 0.443456582725,0.897537916899 l0.451652742922,0.457679256797 0.323526896536,0.386041589081 l0.522100925446,0.680440887809 0.19121972844,0.429692417383 l0.47328710556,0.312448274344 0.0327140721492,0.360642820597 l0.190491899848,0.143081629649 0.195152945817,0.375872142613 l-0.0366321858019,0.0442483974621 -0.0901326909661,-0.081060519442 l-0.218734014779,0.404665879905 -0.667158067226,-0.254676528275 l-0.53398501128,0.150871304795 -0.373893231153,0.13149346225 l-0.626671463251,0.0356866396032 -1.0716149956,0.0612928252667 l-0.976882055402,0.625176727772 -0.823538824916,0.149618918076 l-0.613434277475,0.658832713962 -0.328610613942,0.315479598939 l-0.216938015074,0.63876979053 0.112477345392,0.82476593554 l-0.169269312173,0.829277560115 0.0374189484864,0.738068148494 l-0.122589962557,0.769459679723 -0.198890566826,0.692243278027 l0.104914922267,1.47488355637 0.00340084021445,0.566247217357 l0.171946194023,0.922188162804 -0.133096938953,0.799701139331 l0.152551634237,0.488518960774 0.0765225663781,0.787082836032 l-0.0120219774544,0.919470265508 -0.0602788850665,0.647493675351 l-0.092582097277,0.797045975924 -0.380437858403,0.922252461314 l0.221150778234,0.679699927568 0.0307374517433,0.58258742094 l0.0429824879393,0.865382105112 -0.105091137812,2.01458200812 l-0.149518670514,3.0129390955 -0.0541743636131,1.16591922939 l0.0583832617849,2.79819011688 -0.273462794721,2.25431099534 l0.203682631254,1.73299774528 -0.00114411574032,1.76914945245 l0.490512885153,3.75813364983 0.583386346698,2.61682271957 l0.511795058846,1.78937748075 0.596520192921,1.12583950162 l0.63864775002,2.20895886421 0.429412946105,1.18874646723 l1.30013003945,2.11764395237 1.11213542521,1.50888636708 l0.675144568086,1.27003654838 0.525823049247,1.28355398774 l0.681402534246,1.97319895029 -0.159205682576,2.44629487395 l0.271132476628,2.22759768367 0.0521192839369,2.12914183736 l0.190774574876,1.43244192004 -0.0308068981394,2.16973632574 l0.106505518779,2.0601670444 -0.480854250491,2.39941239357 l-1.66436493397,4.03182297945 -0.9436455369,1.94945797324 l-2.24718272686,4.29556041956 -0.870416611433,2.65972584486 l-1.54992073774,3.31854104996 -3.33743095398,5.64285695553 l-0.991839542985,2.18123614788 -2.30998009443,2.68445700407 l-1.74701869488,2.34645843506 -1.35539010167,1.18980064988 l-1.37281239033,1.20115444064 -1.35200545192,1.68667122722 l-1.80405855179,1.49392768741 -2.767175138,2.62762933969 l-1.90543308854,1.80017665029 -1.35734975338,1.63088828325 l-0.512567386031,1.39033168554 -0.721318870783,1.03274397552 l-0.62758743763,1.92930474877 -0.681585967541,1.74683243036 l-0.486424192786,1.84846773744 -0.184437315911,1.27990081906 l-0.387055762112,2.08031833172 -0.185189601034,1.50275290012 l-0.647021606565,2.10680514574 -0.0131270918064,1.17283299565 l-0.430023297668,1.4964170754 -0.355185940862,1.54299587011 l-0.327310673892,1.45638182759 -0.813208892941,4.37329739332 l-0.762381106615,1.30770295858 -1.09792053699,2.03825592995 l-0.730320215225,1.53333604336 -1.31339460611,2.0825843513 l-0.496924333274,1.28499731421 -1.19001492858,2.41567596793 l-0.432178974152,1.5133228898 -0.131122907624,1.07144244015 l-0.171652007848,0.851363539696 0.320450440049,1.19335219264 l0.273133553565,1.01129882038 0.337189286947,1.17057256401 l0.225530639291,0.856242850423 0.323013290763,1.4010477066 l0.167750623077,1.18241265416 0.149341374636,1.57998755574 l-55.7144212723,-51.1665534973 -2.29410737753,-0.35959918052 l-2.00768530369,-0.627153888345 -2.01238125563,0.34530363977 l-2.45074316859,1.19929879904 -2.03080683947,0.998177751899 l-2.83952653408,1.05426393449 -1.73742711544,0.742731392384 l-3.87399315834,0.974223986268 -2.72821128368,0.99345870316 l-4.48678970337,1.38189762831 -2.56248921156,0.850393697619 l-4.72107768059,1.71563595533 -3.67487460375,1.73294559121 l-1.59013733268,0.941984653473 -1.88677579165,1.19183130562 l-1.42542734742,1.54376417398 -2.03990623355,2.654260993 l-3.67813766003,5.91913580894 -3.39964330196,8.76981437206 l-0.794019177556,3.60008507967 -0.341383889318,2.48037338257 l0.484464876354,2.79168277979 0.231147818267,3.1098780036 l0.792465806007,3.40133666992 0.500889979303,2.1421803534 l0.490405671299,1.82821169496 1.13495394588,2.37668409944 l0.994767472148,1.60323128104 1.52802422643,1.82534605265 l1.33660554886,1.84667751193 2.54671305418,2.48930051923 l1.22795425355,1.39985248446 1.28113538027,1.50588214397 l1.99329212308,2.03197821975 1.26071274281,1.01839266717 l0.838581472635,1.14116929471 0.744605958462,0.746526047587 l0.723570361733,0.70149473846 0.970308706164,0.690961778164 l0.425225421786,0.497665777802 0.527186729014,0.823618471622 l0.494916923344,0.688056349754 0.737229660153,0.883710980415 l0.412817485631,0.328037552536 1.07187271118,0.606896840036 l0.42773373425,0.72964809835 0.535721182823,0.662886202335 l0.49876395613,1.29270687699 0.419419780374,0.969736501575 l0.70711068809,0.934642404318 0.30926996842,0.443487837911 l0.189651809633,0.115005522966 0.476620979607,0.0106300693005 l0.00346767978044,-0.222099144012 0.234166830778,-0.2690192312 l-0.0912487506866,-0.443327091634 0.0315230269916,-0.517171211541 l0.173301491886,-0.804924964905 0.100289192051,-0.857032686472 l0.196943357587,-0.675580948591 -0.204696841538,-0.609205774963 l-0.0582229439169,0.137055041268 -0.099199200049,-0.323810353875 l-0.253527145833,0.0461850455031 0.224517025054,0.275987647474 l-0.0439573870972,0.0464776298031 0.482143685222,0.683810114861 l0.359472110868,0.265790205449 0.200108084828,-0.165548268706 l0.333921462297,-0.856617391109 0.171293951571,-0.550944134593 l0.246538165957,-0.909405574203 0.0757678505033,-0.791094973683 l0.00696672825143,-0.728438794613 0.0335349445231,-0.357937105 l-0.0385984778404,-0.46784222126 -0.105665419251,-0.345252864063 l-0.341045111418,-0.628821998835 0.0637624086812,-0.170325990766 l0.143940495327,-0.71009427309 0.316827483475,-0.290855597705 l0.181129556149,-0.405880063772 0.0628866860643,0.0214295578189 l0.021153090056,0.0691124983132 0.208813231438,0.0686487462372 l0.276593696326,-0.284374058247 0.539095625281,-0.404506698251 l0.0830934289843,-0.589361675084 -0.01927364734,-0.515532419086 l-0.122738070786,-0.296025164425 -0.317885354161,-0.364146232605 l-0.00636252225377,-0.747317075729 -0.15215893276,-0.617416575551 l0.142641663551,-0.915749743581 0.298078004271,-0.724773406982 l0.115697998554,-0.762564316392 -0.0883362255991,-0.380959138274 l0.198305658996,-1.05864010751 -0.0592777319252,-0.522986315191 l0.468486212194,-0.895688086748 0.0341976433992,-0.586551204324 l0.642641037703,-0.507888682187 1.12142123282,-0.923314169049 l0.107955383137,-0.344762429595 0.06788788829,-0.234332960099 l0.479815229774,-0.678537487984 -0.0631243130192,-0.422004573047 l-0.602057762444,-1.24316431582 -0.148944826797,-0.0301565160044 l-0.138954082504,-0.201593488455 -0.0922386534512,0.0923801865429 l0.0350199081004,-0.120282620192 -0.0820726063102,0.160810854286 l-0.0289218127728,0.313179641962 0.043962537311,0.418704636395 l0.0789996050298,0.67305572331 0.220156498253,0.588537342846 l0.200299527496,0.53941283375 -0.0698629533872,0.423817783594 l0.331305935979,1.53495937586 0.0675995880738,0.873967334628 l-0.0162056356203,0.320879109204 0.138492174447,0.415084026754 l0.264332182705,0.129766399041 0.768293589354,-1.24391451478 l0.641154572368,-0.431198440492 0.0567193329334,-0.679194331169 l0.520792864263,-0.581394806504 0.422743521631,-0.548993721604 l0.338769741356,0.107619296759 -0.152202779427,0.359735675156 l0.250512063503,0.30266392976 0.161827336997,0.259261485189 l0.0303537817672,0.434328578413 0.395922511816,0.313876792789 l0.319049730897,0.217123832554 0.198599435389,0.332379564643 l0.263521615416,0.1400942076 -0.0501074595377,0.421782322228 l0.471628420055,0.0787480548024 0.550887025893,0.237176641822 l0.412294566631,0.274515468627 0.801087617874,0.420860163867 l0.788644477725,0.17663910985 0.475940257311,0.069715087302 l0.350466519594,-0.00769333390053 0.686509534717,-0.0352653418668 l0.32659560442,0.0101166311651 0.164858270437,0.0563869811594 l0.565904304385,0.509343072772 0.574235953391,0.474633723497 l0.277500357479,0.424093604088 0.256865210831,0.577764846385 l0.268343184143,0.754316821694 -0.0118714245036,0.420831553638 l-0.07092283573,0.863489434123 -0.10254567489,0.998624488711 l-0.482674837112,0.778968557715 0.0502761732787,0.548441931605 l-0.529302246869,1.0266200453 -0.308163836598,1.2002274394 l-0.229996088892,0.74540220201 -0.00363176048268,0.92927351594 l-0.250764228404,0.711129084229 0.380038693547,0.854625627398 l0.200842749327,0.499740131199 0.16070773825,0.716990754008 l0.379598289728,0.538652911782 0.375480391085,0.664916113019 l0.423935316503,0.765371844172 0.934623405337,1.00930526853 l0.354585424066,0.633339881897 0.337740965188,0.685169845819 l0.275489352643,0.404459796846 0.000399472919526,0.728007182479 l0.218462031335,0.498519875109 0.511585585773,1.01802781224 l0.199872218072,0.892167389393 -0.026357199531,0.617149583995 l-0.274466592818,1.26078307629 0.107518862933,0.891742631793 l-0.313751101494,1.01178564131 -0.474111028016,2.19727709889 l-0.439753457904,1.99117928743 -0.755815431476,3.40917497873 l-0.368244498968,1.81066691875 -0.625986605883,1.71856150031 l-0.509992688894,1.60796180367 -0.356940701604,1.70036450028 l0.1305380743,1.19720757008 0.410352163017,2.07220286131 l0.208684187382,1.74603044987 0.127277923748,1.42810553312 l0.157760623842,1.52845919132 -0.224050935358,1.16630889475 l0.205325353891,1.4755935967 -0.0916487537324,1.45965754986 l0.259553901851,0.701133608818 -0.00937645614613,0.956488326192 l0.164687056094,0.871811658144 0.299312397838,0.723925977945 l0.157390143722,0.86109995842 0.215397849679,0.627356469631 l0.229692496359,0.927465260029 0.744520649314,1.42750769854 l0.32874494791,1.10225662589 -0.0648681866005,0.418031401932 l1.05639450252,0.7972522825 0.464600622654,0.328519940376 l0.674047097564,0.489629842341 1.12130448222,0.121466564015 l0.753644257784,0.241734236479 0.392438285053,-0.0295520247892 l0.333867929876,-0.375789739192 0.290216784924,-0.342207625508 l0.677454546094,-0.547061860561 -0.386503450572,0.0258000032045 l0.126254959032,-0.304481498897 -0.22213043645,-0.282737575471 l0.0830764509737,1.1781680584 -0.0522595504299,0.481182858348 l-0.575488731265,1.04967862368 0.247148796916,1.04718796909 l0.267725009471,0.464211814106 1.0744804889,0.218838844448 l0.489615760744,0.258832704276 0.266641490161,0.0919750146568 l0.484706833959,0.297990180552 0.901512503624,-0.0310122431256 l0.596381761134,-0.0925727933645 1.01975902915,-0.0740365730599 l0.671283453703,-0.190853271633 0.967271924019,-0.405955761671 l0.638731196523,-0.308366455138 0.818328112364,-0.902138128877 l0.172627102584,-0.144663890824 0.0945317186415,-0.172129329294 l0.182458646595,0.0324849714525 0.0161072425544,0.0539425481111 l0.530416965485,-0.125019894913 0.227602086961,0.335107892752 l0.495652295649,0.604513213038 0.199580397457,0.247499328107 l0.112140141428,0.265117250383 0.216495096684,0.00991279375739 l0.554206669331,0.117114549503 0.55591892451,-0.296730455011 l0.362637713552,0.267303716391 0.25046736002,-0.203953050077 l0.368120782077,0.0660544168204 0.356300547719,-0.159839559346 l0.266342367977,0.170932561159 0.343993380666,0.262238588184 l0.139348059893,0.117283072323 0.3776403144,0.0527638290077 l0.0227000121959,0.0997375603765 0.277206562459,-0.325955674052 l0.490005537868,-0.0485569005832 0.761879384518,-0.694830492139 l0.372259952128,-0.538610443473 0.462878644466,-1.06910005212 l0.215958412737,-0.759373530746 -0.0632053241134,-0.610309615731 l0.156931690872,-0.314956828952 -0.01247335691,-0.266296975315 l0.0103165628389,-0.0298992078751 -0.235087890178,0.135739650577 l0.341968163848,0.251087900251 0.197096280754,0.36845523864 l-0.11000030674,-0.0452916696668 0.199254173785,0.320558473468 l0.294233951718,0.331033952534 0.0150211586151,0.122157232836 l0.174638405442,0.12144356966 0.229686442763,-0.64889036119 l0.258513391018,-0.700712352991 0.366992205381,-0.716220960021 l0.0915687531233,0.0858931709081 0.310544334352,-0.151275387034 l0.0324044912122,-0.115840602666 0.149064324796,0.731352567673 l-0.0575356278569,0.420126914978 0.0531977973878,0.814561322331 l0.120028406382,0.241416618228 0.142645146698,0.564914867282 l0.954126864672,-1.17904238403 0.0431584659964,-0.0676299538463 l0.30160067603,-0.838070884347 0.248481743038,-0.702100992203 l0.451580695808,-0.645833313465 0.160852465779,-0.898872613907 l0.159467775375,-0.653229728341 0.274790227413,-0.439845025539 l0.293103195727,-0.32787643373 -0.135322026908,0.119129652157 l-0.239569470286,0.722717568278 -0.29077950865,0.506938137114 l-0.277941506356,0.670678168535 -0.214597918093,0.657571926713 l-0.256443060935,0.491369441152 -0.0486358068883,-0.554109625518 l0.0583317689598,0.221802499145 0.126905860379,0.137891462073 l0.320118777454,0.0944655388594 0.40036033839,-0.540281310678 l0.676978677511,-1.04404330254 0.451364032924,-0.559592470527 l0.787115618587,-0.561892986298 0.305592548102,-0.224428679794 l0.482172220945,-0.341807454824 0.285483505577,-0.0862606335431 l0.381564982235,-0.0197340198793 0.477862767875,0.220356490463 l-0.0329546374269,0.305414162576 -0.118606165051,0.561988577247 l-0.272457189858,0.84464609623 -0.41585482657,0.664512291551 l-0.154825840145,0.759245157242 -0.621282793581,0.673860684037 l-0.612940713763,0.775458961725 -0.7420668751,0.439841039479 l-0.193606410176,0.298254992813 -0.374143309891,0.581536181271 l-0.226062331349,0.46649582684 -0.173584166914,0.393461808562 l-0.133486930281,0.637973770499 0.161204263568,0.313054658473 l0.0603573583066,0.362456217408 0.303276106715,0.524514839053 l0.410416871309,0.615754872561 0.426850058138,0.778927877545 l0.262143407017,0.443743877113 0.128748817369,0.714649409056 l0.112937483937,0.473296418786 0.0655849883333,0.854228809476 l-0.0275127077475,0.662344768643 -0.00336496421369,0.637091323733 l0.12493676506,0.563073828816 0.00204143841984,0.790351629257 l0.0879707094282,0.705454945564 0.361668169498,0.629469156265 l0.585462078452,1.23903080821 0.169510971755,0.837155580521 l0.280509516597,1.087025702 0.293016582727,0.956210047007 l0.39396174252,0.685150399804 0.508594401181,1.20173819363 l0.451041944325,0.960818901658 0.411278754473,0.771946161985 l0.645065307617,0.919985249639 0.739463940263,1.2124247849 l0.307044181973,0.841614827514 0.851270779967,1.78434163332 l0.362014099956,0.903111547232 0.637258291245,1.31351590157 l0.599965564907,1.46949574351 1.09799690545,1.22961297631 l0.801995173097,1.06090247631 1.39547899365,1.46269321442 l0.648635327816,0.752820000052 0.85552200675,1.09342500567 l1.30682125688,1.55472129583 1.05661898851,0.707345604897 l1.29303753376,1.15397922695 2.15744242072,1.51017472148 l5.89209735394,3.81177693605 1.9499874115,0.561254695058 l1.9021306932,1.04510568082 1.68739721179,0.766909867525 l2.79767215252,1.25647872686 1.08301661909,0.370207838714 l1.32225260139,0.565528087318 1.23443000019,0.192520674318 l0.690753385425,0.387531965971 0.764363631606,0.525234043598 l2.08928227425,-16.3708627224 0.111323324963,-2.30578064919 l-0.120576554909,-1.48675203323 -0.0798863358796,-1.53821855783 l-0.414600782096,-0.537069886923 -0.632694140077,-0.241880230606 l-0.281600449234,0.217269062996 -0.0740736629814,0.129838371649 l-0.0368092837743,0.126032894477 -0.0284349988215,0.125708226115 l-0.0895524024963,0.344339571893 -0.113415950909,-0.213922653347 l-0.156310386956,-0.185848902911 0.0487730465829,-0.264990720898 l-0.321799218655,-0.338710509241 0.0636071106419,0.173203442246 l-0.0431669922546,-0.0633761053905 -0.00942771614064,0.470553599298 l-0.384102798998,0.195482447743 -0.0700781168416,0.357452556491 l-0.584878362715,-0.268197264522 -0.289131719619,-0.450753346086 l-0.570048838854,-1.36372715235 -0.320777893066,-0.469377934933 l-0.208455715328,-0.413737781346 -0.245475713164,-0.344883129001 l-0.199124291539,-0.451168566942 -0.0124954432249,-0.208403170109 l0.121432524174,-0.238384846598 0.0836841668934,0.528792254627 l0.290063973516,0.494241565466 0.0848661642522,0.686468482018 l0.528823509812,0.401607193053 0.135338399559,0.672683939338 l0.218279883265,0.796857401729 -0.0214696163312,0.617214925587 l0.070008574985,0.434655472636 0.0240761530586,0.288271196187 l-0.228024199605,-0.652242302895 0.0450508343056,0.203988403082 l-0.0364595092833,-0.276045780629 -0.138234989718,-0.438350178301 l-0.0477737514302,-0.526560023427 -0.50940733403,-0.538545362651 l-0.249040685594,-0.626848712564 0.0463332980871,-0.246396325529 l-0.251010004431,-0.236618500203 -0.0859355926514,0.0582474563271 l-0.130434101447,-0.171276330948 0.0920654740185,0.328140333295 l0.0989311840385,0.454257726669 0.364627577364,0.67753739655 l-0.215784180909,1.74454972148 0.0847327429801,0.615981332958 l0.033440485131,0.405672118068 -0.192454718053,0.0678335921839 l0.134370140731,-0.739074647427 0.219969749451,-1.55543580651 l0.358602665365,0.0602230895311 -0.00180467992323,-0.569907464087 l0.176223237067,-0.229842271656 0.0794742256403,0.111553529277 l0.142633579671,0.720560029149 0.210644081235,0.584497638047 l0.0549541320652,0.468552671373 0.378828682005,0.382745675743 l-0.0624750927091,0.409191958606 0.104619981721,0.570088326931 l0.0899733044207,0.620338432491 0.277455560863,0.697429850698 l0.0719606643543,0.595194473863 0.173747260123,0.554798021913 l0.196572188288,0.507886558771 0.124627845362,0.424523241818 l0.0640782015398,0.494280420244 0.316934175789,0.861546844244 l0.58076351881,0.678889155388 0.109465876594,0.381868742406 l1.36409282684,1.05767555535 1.95386514068,1.18379235268 l0.935945063829,0.537685789168 1.13511838019,0.795563012362 l0.423781722784,0.613976642489 1.34352013469,2.27850943804 l1.34813606739,2.78876543045 2.66489863396,4.95574951172 l0.16952091828,1.47685021162 0.773162320256,2.78936386108 l1.53257653117,4.63863730431 0.755596160889,2.29530215263 l0.814852714539,2.273003757 1.46815448999,3.0730932951 l0.683535635471,2.07728758454 0.910240635276,2.3396551609 l0.853493884206,3.04623514414 0.563700348139,2.18760848045 l0.216091312468,1.78999066353 0.490296408534,2.19289392233 l0.117737008259,2.35320493579 0.0825432315469,1.86072468758 l-0.0124575570226,2.48653933406 -0.0289879832417,1.95016115904 l-0.188557039946,2.2330917418 0.251919776201,1.98966771364 l0.123708387837,1.91708981991 2.30329737067,4.61243391037 l0.359252616763,1.64776042104 0.718524008989,1.2152082473 l0.2895373106,1.27738788724 0.810003951192,1.37111127377 l0.907129794359,1.87278300524 0.910015329719,2.7186447382 l0.581929609179,1.62352874875 0.768103227019,1.99964120984 l0.562995374203,1.13831631839 0.558356530964,0.628818422556 l1.14766836166,0.976906865835 1.61870166659,1.37957751751 l1.19948647916,0.804580524564 0.759030207992,0.793156400323 l0.713096261024,0.556194372475 0.165199711919,0.377460829914 l0.208235010505,0.196836199611 -0.319213978946,0.0578183261678 l-0.705559551716,0.217432044446 -0.842967331409,0.510493628681 l-0.951385349035,0.702397748828 -0.52770383656,0.934289842844 l-0.61699334532,0.408219732344 -0.115639241412,0.500145629048 l-0.108349621296,0.409914664924 -0.216277744621,0.677150189877 l0.260077584535,0.471753329039 0.297932438552,0.626339614391 l0.123744755983,0.364829301834 0.272709708661,0.387838408351 l-0.12204698287,0.168505702168 0.108090322465,0.271674338728 l0.0411370163783,0.186199452728 0.112464856356,-0.0438936473802 l0.158582795411,0.237847920507 0.186039768159,-0.37926979363 l-0.0835974421352,-0.245605930686 0.191013235599,-0.344737172127 l0.0247256760485,-0.606641322374 -0.04439458251,-0.716894939542 l0.115075400099,-0.290575195104 -0.0681708054617,1.12282045186 l-0.137523133308,0.7825525105 0.0594994099811,0.459146723151 l0.161998849362,0.722243189812 0.0811726413667,0.55933251977 l-0.153902322054,0.615225285292 -0.0439093215391,0.509589277208 l0.137278502807,-0.10234975256 0.801052153111,-3.19702893496 l0.683770179749,-1.686565727 0.503324829042,-1.18187904358 l0.515529885888,-0.690603628755 0.532561466098,0.424273945391 l0.108847087249,0.84497153759 0.206168461591,0.524603202939 l0.313617289066,0.330759398639 -0.0973488483578,-0.793357715011 l0.390893556178,-1.64159536362 0.167432799935,-0.69931730628 l-0.0905778352171,-0.963118448853 -0.159229747951,-1.04494772851 l-0.188830010593,-0.665892213583 -0.103105287999,-0.714202001691 l-0.614792108536,-0.660244449973 -1.09265871346,-0.850372686982 l-1.17997296154,-0.992499813437 -1.13440670073,-0.806875601411 l-0.720918104053,-0.964516624808 -0.306278970093,-2.2615018487 l0.0321043888107,-1.32587462664 0.0279881386086,-0.960099846125 l0.213682632893,-0.805742517114 0.435574091971,-0.867756679654 l1.31401821971,-2.11119025946 1.03092938662,-0.971040353179 l2.5102865696,-2.43119180202 3.09802234173,-2.8325599432 l1.58236503601,-1.441706568 1.43800795078,-1.56834974885 l2.02622875571,-2.26892918348 1.29406735301,-1.95491850376 l2.27204725146,-1.80856242776 1.17044068873,-1.30379319191 l1.87523379922,-1.64090931416 2.18234866858,-1.34226500988 l0.923029109836,-0.447652973235 0.312128979713,-0.428765453398 l0.262526124716,-0.0559608498588 -0.407957136631,-0.136702731252 l-0.151499155909,-0.483966954052 0.0141647085547,-0.0255408487283 l0.847371220589,-0.089920507744 0.0548648042604,0.260517373681 l0.0958346296102,0.210109334439 0.167042668909,0.177528373897 l0.0110600912012,0.532289296389 -0.189064498991,0.307694319636 l0.0570661015809,0.597194135189 -0.0795965455472,0.334491841495 l0.0710636936128,0.274624656886 0.354156345129,0.011932279449 l0.125110764056,0.302440579981 0.482654906809,0.320152007043 l0.609504953027,0.0198091869242 0.501986220479,-0.237749814987 l0.20249793306,0.363573618233 0.414123088121,0.374117493629 l0.140691427514,-0.119098480791 0.0798614416271,0.706994384527 l-0.178934521973,0.325794294477 0.210927091539,0.636594593525 l0.228394046426,0.47279804945 0.750479325652,1.21857441962 l1.42698824406,0.351824089885 0.78969694674,0.240425188094 l0.672823563218,0.0646302243695 0.720667913556,0.12195141986 l1.78669318557,0.411604084074 0.735235512257,0.21688323468 l1.51803776622,0.105636231601 0.967720374465,0.0404703989625 l1.61457419395,0.081191714853 3.91146957874,-11.9270467758 l0.465959198773,-1.59601226449 0.357682928443,-1.52474269271 l-0.317173227668,-0.70743471384 -0.017181186704,-0.348407961428 l0.0466262735426,0.183460153639 -0.13682609424,0.370278581977 l-0.145235462114,0.32225895673 -0.0184346875176,0.0562515994534 l-0.664893612266,0.399694181979 -0.0406358623877,0.286636259407 l-0.402457937598,0.306333508343 -0.143665466458,0.814345851541 l0.419008508325,1.46763816476 -0.101130735129,1.19066953659 l-0.0419883849099,1.7420360446 0.192832816392,0.661046728492 l-0.0421196082607,1.011743173 0.0420214515179,0.60681398958 l-0.0253824307583,0.453108400106 -0.102948667482,-0.916855558753 l0.222881957889,-0.710791200399 0.359713435173,-0.533695369959 l0.00953131355345,-1.18936002254 0.209794864058,-1.06582932174 l0.0253189913929,-1.06391727924 0.180067382753,-0.883227363229 l0.209459103644,-0.278498157859 0.00859529536683,0.0213279365562 l0.339179299772,0.288961045444 0.0271328934468,0.985211282969 l-0.198353603482,0.53751770407 -0.0657938653603,1.25620111823 l-0.120137864724,0.548708997667 -0.0240109860897,0.480032749474 l0.00448606850114,0.191850438714 -0.0352976005524,0.124351996928 l-0.105302464217,-0.0815909076482 0.207491163164,-0.810370743275 " fill="none" stroke="black" stroke-width="1" /></svg>