<?xml version="1.0" encoding="utf-8" ?>
<svg baseProfile="full" height="498.8561741650483" version="1.1" width="399.3591353777447" xmlns="http://www.w3.org/2000/svg" xmlns:ev="http://www.w3.org/2001/xml-events" xmlns:xlink="http://www.w3.org/1999/xlink"><defs /><rect fill="white" height="498.8561741650483" width="399.3591353777447" x="0" y="0" /><path d="M160.76630626572296,372.5475814395031 m-11.171449422836304,-24.659113883972168 m-0.3633461147546768,-1.7979660630226135 l0.6897452473640442,-2.9475203156471252 2.8831830620765686,-5.8297741413116455 l2.109651118516922,-2.606801986694336 4.697926938533783,-3.5182440280914307 l6.636640429496765,-2.429632544517517 3.6552205681800842,-0.5459479987621307 l5.4433101415634155,1.2272122502326965 5.382670164108276,4.0653035044670105 l2.9318591952323914,3.413805663585663 1.7612069845199585,2.640906274318695 l2.073538154363632,2.1781444549560547 2.678042948246002,3.5706040263175964 l1.1916545778512955,2.01590433716774 0.6968545913696289,3.232118785381317 l-0.06429975386708975,2.947870194911957 -3.2984763383865356,5.074201226234436 l-2.7112960815429688,3.7749433517456055 -1.4680193364620209,1.626928597688675 l-1.258612722158432,1.825280487537384 -1.5481114387512207,1.9391030073165894 l-1.8595583736896515,2.1479983627796173 -1.3171887397766113,1.3362346589565277 l-0.31428147107362747,2.2698302567005157 -0.5788520351052284,1.9010424613952637 l-0.25720084086060524,1.5660013258457184 0.15309947542846203,2.2954635322093964 l-0.00992521527223289,1.4037150144577026 0.161761324852705,2.4542130529880524 l-0.3316061571240425,1.5084923803806305 0.21116452291607857,1.7058208584785461 l-0.5603083968162537,3.056485652923584 0.1583031378686428,2.035541832447052 l0.11796234175562859,3.5621148347854614 -0.13296643272042274,2.2087201476097107 l0.006014478858560324,2.98304945230484 0.36774445325136185,2.910621762275696 l1.0632902383804321,6.465080380439758 -0.08465321734547615,3.1487318873405457 l-0.3841249644756317,3.9723673462867737 -0.5162675306200981,4.716698229312897 l-1.35584756731987,4.190865755081177 -1.7878052592277527,4.774703085422516 l-5.081174373626709,11.070691347122192 -4.317499101161957,5.648694634437561 l-5.693343281745911,6.733238697052002 -4.582558870315552,4.325482547283173 l-7.278367877006531,4.416693150997162 -6.326451301574707,3.5984835028648376 l-5.07917046546936,2.0408061146736145 -12.00868010520935,0.49367647618055344 l-3.0146747827529907,-0.3264469653367996 -6.370856761932373,-0.7716371119022369 l-4.48356956243515,-1.6648510098457336 -3.595103919506073,-2.5664210319519043 l-3.337841033935547,-3.7497231364250183 -2.66749769449234,-2.982277572154999 l-0.7383077591657639,-3.034471571445465 -0.8778856694698334,-2.3107506334781647 l-0.3850088268518448,-1.329667717218399 -0.5780812352895737,-1.5764522552490234 l-0.082579730078578,-1.9990377128124237 -0.1791377179324627,-1.3572010397911072 l-0.182518158107996,-1.2838052213191986 -0.41068289428949356,-1.3266542553901672 l-0.2315981686115265,-0.7044739276170731 -0.7444184273481369,-1.2246251106262207 l0.06680975668132305,-0.10041278786957264 0.043689156882464886,-0.4050224646925926 l-0.37733063101768494,-0.0973688904196024 0.10942472144961357,-0.44505517929792404 l0.032869959250092506,0.028425604104995728 0.023386715911328793,0.22714480757713318 l0.13807041570544243,0.5242539942264557 0.12161888182163239,1.2364201247692108 l0.5834688991308212,1.234457939863205 0.33308789134025574,0.4824209213256836 l0.4314678907394409,0.679035410284996 0.3784381225705147,0.621442161500454 l0.07216387894004583,-0.22613178938627243 -0.2572496235370636,-0.6558799743652344 l0.10506322607398033,-0.37210196256637573 -0.2132897451519966,-1.0467715561389923 l0.13904044404625893,-0.6148409843444824 0.05990905221551657,-1.0427134484052658 l-0.16158601269125938,-0.8232159167528152 0.23587221279740334,-0.3663412109017372 l0.31003888696432114,-0.03970244899392128 0.19042272120714188,0.6257724761962891 l0.20099986344575882,1.0118302702903748 -0.0354664889164269,0.28533441945910454 l0.4607420414686203,0.8162436634302139 0.019816341809928417,0.5941662564873695 l0.33953431993722916,0.08342115208506584 0.02810581587255001,0.7064685970544815 l0.08447742089629173,-0.6244659796357155 0.3676217794418335,-0.32483089715242386 l1.0755418241024017,-0.8521592617034912 0.5519798398017883,-0.8153640478849411 l0.48886165022850037,-0.8384298533201218 1.0917527973651886,-1.1352021992206573 l0.8160223066806793,-0.771014541387558 0.37854600697755814,0.30647842213511467 l0.5635468289256096,0.4990534856915474 -0.01886962214484811,0.9013234078884125 l-0.11367198079824448,0.19718222320079803 0.11464742943644524,0.8978903293609619 l-0.18838506191968918,1.0639167577028275 -0.22496193647384644,0.9493126720190048 l-0.014784098602831364,0.1642376184463501 0.21772095933556557,0.2685420587658882 l1.0696791857481003,0.5733252316713333 0.6448250263929367,0.3019607998430729 l0.2989349141716957,0.2293018251657486 0.6505613029003143,0.312111284583807 l0.4413897916674614,0.1915591023862362 0.31382545828819275,0.1445471402257681 l0.5958815664052963,0.12919562868773937 0.19716668874025345,0.5054428428411484 l0.5491306632757187,1.0253272205591202 -0.12203588150441647,0.7798464596271515 l-0.2562638930976391,0.31397540122270584 -0.07299775257706642,1.352720856666565 l-0.4391210526227951,0.7334934920072556 -0.019507656106725335,0.8198072761297226 l-0.27041878551244736,0.8371621370315552 0.32764866948127747,0.6799415498971939 l0.6204276531934738,1.4086048305034637 0.4629615321755409,1.2262080609798431 l0.8004393428564072,1.833726316690445 0.9713085740804672,2.1053853631019592 l0.5322408676147461,2.705307900905609 0.5996596813201904,1.6194766759872437 l1.0315470397472382,1.3606230914592743 1.2686820328235626,1.1202290654182434 l0.7026073336601257,0.5848895385861397 1.523633748292923,1.8791073560714722 l0.4647286981344223,1.0633542388677597 1.0683450102806091,1.9665497541427612 l0.5679663270711899,2.204761356115341 0.8980948477983475,0.5625138804316521 l1.1721880733966827,-0.42126525193452835 0.6368965655565262,-0.6214064359664917 l1.2634941935539246,-0.11974171735346317 0.9027936309576035,-1.2678144872188568 l0.09249772876501083,-0.8408498018980026 -43.32989692687988,-29.946908950805664 l-4.790984094142914,4.269023537635803 -0.5100653693079948,0.09146351367235184 l-0.8385734260082245,0.6677341461181641 -0.2639828436076641,0.8523347973823547 l-0.1908092014491558,0.3479655086994171 -0.49469180405139923,0.09733918122947216 l-0.27046719565987587,0.5447201430797577 -2.061026096343994,1.5505389869213104 l-1.4743365347385406,1.1768125742673874 -1.0193268209695816,0.7041268050670624 l-1.7262986302375793,0.6844903528690338 -2.106819748878479,0.2769411541521549 l-4.890638291835785,0.5456934124231339 -2.8212597966194153,0.6767174601554871 l-4.017396569252014,0.9466632455587387 -4.404587745666504,0.5436058342456818 l-4.598346948623657,0.050676269456744194 -2.859540581703186,-0.3065160661935806 l-1.788046956062317,-0.7034897804260254 -2.030053436756134,-1.0154014080762863 l-1.7656661570072174,-2.1076680719852448 -2.0195627212524414,-2.257278561592102 l-1.3859474658966064,-1.5039022266864777 -2.6233696937561035,-2.8765130043029785 l-2.087783068418503,-2.3095017671585083 -2.188628762960434,-5.135666728019714 l-0.7162143290042877,-4.762571752071381 0.5621882528066635,-2.500448524951935 l2.5176000595092773,-3.0335038900375366 2.6075702905654907,-3.076963722705841 l3.4331360459327698,-2.1871206164360046 2.075921893119812,-1.7458344995975494 l3.343551754951477,-1.8538898229599 1.653750240802765,-1.0827192664146423 l3.4426122903823853,-2.686718702316284 2.7039989829063416,-1.0277948528528214 l2.3937666416168213,0.2293839119374752 3.6623340845108032,-0.5325306206941605 l2.765810191631317,-0.0029105230350978673 4.05425637960434,0.04843146074563265 l8.061760067939758,0.6860680878162384 3.6439144611358643,0.628686249256134 l5.9463101625442505,1.2193047255277634 6.778706908226013,1.2839044630527496 l3.07913601398468,1.2602615356445312 4.156746864318848,2.4602362513542175 l3.1677666306495667,1.8755444884300232 4.978877604007721,2.5604429841041565 l2.882947027683258,1.500363051891327 3.7119561433792114,2.5517383217811584 l3.978511095046997,2.7285903692245483 3.216259181499481,2.1898625791072845 l2.721388041973114,1.2940613925457 1.014789491891861,1.1054915934801102 l1.8708166480064392,1.2464720755815506 1.3203468918800354,1.4489153027534485 l1.189611479640007,0.7597342133522034 1.716131716966629,1.155330166220665 l1.3343432545661926,0.8413470536470413 0.3850860893726349,0.554363876581192 l1.0844773799180984,0.6466758251190186 0.5575680732727051,1.1644711345434189 l0.6325156986713409,0.8796223998069763 0.49069706350564957,0.7768744230270386 l0.3250841796398163,0.6747288256883621 0.32998915761709213,1.4171291887760162 l0.3874034807085991,0.49469083547592163 0.4681776463985443,0.7291153073310852 l0.6680798530578613,1.2877044081687927 0.29225466772913933,0.6735304743051529 l0.6394476443529129,1.436830759048462 0.18133638426661491,1.0595668107271194 l0.4118705913424492,0.9098973870277405 -0.17832592129707336,0.7282327860593796 l0.13432458974421024,0.6315211206674576 0.15538662672042847,0.38257692009210587 l0.37389639765024185,0.4010321572422981 0.37967048585414886,0.43051932007074356 l0.4604295641183853,0.25166211649775505 0.15549873001873493,-0.3192618489265442 l0.25036653503775597,-0.47626759856939316 0.00793304352555424,-0.7526370137929916 l0.006307174917310476,-0.4382563754916191 -0.03254804294556379,-0.8831865340471268 l-0.04511518869549036,-0.3519764915108681 0.577339269220829,0.5705180019140244 l0.685311034321785,1.3116611540317535 0.16609666869044304,0.9056644141674042 l-0.10556623339653015,0.4634976014494896 0.6871779263019562,0.29459273442626 l0.17966018989682198,0.005965832970105112 0.7408618181943893,-0.42650047689676285 l-0.32809436321258545,-0.7330421358346939 -0.11745823547244072,-2.03394278883934 l-0.2116531878709793,-0.7869814336299896 -0.045426227152347565,-2.2156646847724915 l0.20300796255469322,-1.428084671497345 0.11565783992409706,-1.4153386652469635 l0.609450489282608,-0.0982382521033287 0.156590286642313,-0.30670251697301865 l0.504872053861618,0.19177895039319992 0.3690589964389801,0.20795181393623352 l0.3349682316184044,-0.3275604918599129 0.35414382815361023,-0.3547096624970436 l0.4961901530623436,-0.696953684091568 0.2591697685420513,-0.8366378396749496 l0.17895497381687164,-1.229938492178917 -0.1082330197095871,-1.2976528704166412 l-0.009742683032527566,-1.1161395907402039 0.38842394948005676,-1.4220216870307922 l0.09187527000904083,-1.3795417547225952 -0.47600463032722473,-0.9527774900197983 l-0.5355324596166611,-1.8369953334331512 -0.5790689215064049,-1.9487829506397247 l-0.8216854929924011,-2.377805709838867 -1.259177178144455,-1.4288350939750671 l-2.2070126235485077,-2.5391575694084167 -2.785876989364624,-3.280741572380066 l-2.024564892053604,-2.580619156360626 -2.615969181060791,-4.636608064174652 l-1.7556686699390411,-4.565153121948242 -0.5604414269328117,-8.494091033935547 l3.108234405517578,-7.547270655632019 10.192399024963379,-10.59057354927063 l4.830217957496643,-1.812107264995575 6.240058541297913,-1.970682293176651 l8.961986303329468,-1.4376401901245117 6.194974780082703,-0.20859131589531898 l6.216026544570923,0.9988714009523392 6.4081960916519165,1.3818739354610443 l4.703376293182373,2.3891520500183105 11.017447710037231,5.85073709487915 l2.503763437271118,2.513432502746582 2.1122416853904724,4.711861610412598 l2.232871502637863,6.972580552101135 0.7545407861471176,5.0159406661987305 l0.9901930391788483,5.907672047615051 0.47003980726003647,3.1786754727363586 l0.028194407932460308,1.4985862374305725 0.33021096140146255,1.3232728838920593 l0.29945382848381996,1.204231008887291 0.8242056518793106,3.108316659927368 l0.4910258948802948,1.5499430894851685 0.20622225478291512,0.7043251395225525 l0.18336718901991844,0.9514576941728592 0.19032485783100128,0.8694938570261002 l0.25592124089598656,1.7550452053546906 0.12250134721398354,1.672048419713974 l0.22203298285603523,1.043114885687828 -0.04653593059629202,0.5955721065402031 l0.2397432178258896,0.9203215688467026 0.2598537690937519,0.5564417317509651 l0.2662280760705471,0.4371756687760353 0.3795911744236946,-1.1634840816259384 l0.29863758012652397,-0.6049980223178864 -0.07835834287106991,-0.8850836008787155 l-0.18248168751597404,-0.7031286507844925 0.17631955444812775,-1.380559355020523 l0.21750539541244507,-0.01477882033213973 0.415147989988327,1.0842584818601608 l0.2535858750343323,0.19607340916991234 0.4526890069246292,0.691780298948288 l0.4838291183114052,0.23064155131578445 0.16275065019726753,-0.025712524075061083 l0.17131347209215164,-0.5620823800563812 0.10943388566374779,-0.41234903037548065 l0.266781747341156,-2.190247029066086 -0.0761246308684349,-0.9050463140010834 l0.31727489084005356,-0.04981584846973419 0.41319090873003006,0.4409116879105568 l0.24861406534910202,0.3954082354903221 0.41508201509714127,0.5417938530445099 l0.6922921538352966,-0.1280499529093504 -0.01128029078245163,-0.9224273264408112 l0.30005522072315216,-1.330755352973938 -0.16356522217392921,-2.0596544444561005 l-0.0881216861307621,-2.058609575033188 0.04856656305491924,-1.4541293680667877 l0.6085225194692612,-1.8352220952510834 0.6774237751960754,-1.1167332530021667 l0.524573065340519,-0.8319110423326492 0.6852278113365173,-0.93582883477211 l0.871010348200798,-3.2516443729400635 0.5345183983445168,-2.2134463489055634 l0.9462454915046692,-2.6614603400230408 0.7161993533372879,-3.14948171377182 l1.1010336875915527,-3.977366089820862 0.5008964240550995,-2.3933614790439606 l0.5107151716947556,-2.6575839519500732 0.19171560183167458,-2.1131472289562225 l0.6888826936483383,-2.4443235993385315 0.6818556785583496,-4.8456671833992 l0.5231435596942902,-3.447961211204529 0.3656957298517227,-1.906459778547287 l0.41457604616880417,-2.708965837955475 0.7924786955118179,-4.538955986499786 l1.6709104180335999,-5.10867178440094 1.4382556080818176,-2.724646031856537 l1.7783771455287933,-3.2426217198371887 2.538704574108124,-2.948358952999115 l3.7003514170646667,-2.4305377900600433 3.6444199085235596,-1.741546094417572 l2.9109767079353333,-0.9565749764442444 4.1464632749557495,-0.44034741818904877 l2.544660270214081,-0.22645434364676476 3.90691339969635,0.11158613488078117 l3.297661542892456,1.0336552560329437 2.5100794434547424,1.3031378388404846 l3.009285032749176,2.457147538661957 1.4505229890346527,2.122000604867935 l1.4785860478878021,1.532323807477951 0.8346490561962128,2.1329575777053833 l1.7931413650512695,2.5928321480751038 0.86166150867939,1.9669336080551147 l0.6475340574979782,1.485469490289688 0.6001366674900055,1.7002592980861664 l0.5781718716025352,3.201833963394165 0.43730080127716064,1.1777757853269577 l0.4241563379764557,1.7613273859024048 0.24024851620197296,1.1235269159078598 l0.26201024651527405,1.2682008743286133 0.15418531373143196,0.532848909497261 l-0.010210165055468678,0.7341589778661728 -0.08996900171041489,0.7461442798376083 l-0.0661828089505434,0.5092999711632729 -0.0974126998335123,0.4123309254646301 l-0.44601690024137497,-0.18629014492034912 -0.04538922570645809,-0.5408582091331482 l-0.24436047300696373,-1.214306652545929 -0.07458346430212259,-0.878533348441124 l-0.11814753524959087,-0.5424681305885315 0.07183479610830545,-0.7008223980665207 l0.1442589983344078,0.9527942538261414 0.29808051884174347,0.08508863858878613 l0.0933472253382206,1.1375970393419266 0.2887393347918987,0.9111077338457108 l0.2927875891327858,0.6842003017663956 0.04166314844042063,0.23346064612269402 l0.039461711421608925,-0.04665244836360216 0.03217614255845547,-0.5667055770754814 l-0.005072396597824991,-0.7506304234266281 -0.0018181910854764283,-0.681789293885231 l0.9723735600709915,0.5062336847186089 0.5874501541256905,0.9679700434207916 l0.40975097566843033,0.7980923354625702 0.14288139529526234,0.5991019308567047 l-0.2559845335781574,-0.8650431782007217 -0.49420546740293503,-1.6344548761844635 l-0.7390736043453217,-1.590612381696701 -0.4078884422779083,-1.6306966543197632 l-0.42260393500328064,-1.779237985610962 0.4344751685857773,-3.0184385180473328 l0.04588083829730749,-1.1998433619737625 0.7293174415826797,-2.11967870593071 l0.6331596523523331,-2.020595222711563 0.034950466360896826,-1.5387611091136932 l-1.6050417721271515,-4.775732755661011 -0.7030391693115234,-3.386388123035431 l-0.8462600409984589,-3.183799088001251 0.17783688381314278,-2.7867642045021057 l0.3805689513683319,-4.445811212062836 0.6823955476284027,-3.7896063923835754 l0.9203535318374634,-3.34035724401474 1.283310055732727,-3.5364198684692383 l3.8385987281799316,-8.162301778793335 1.637326180934906,-3.5647383332252502 l2.3226454854011536,-3.6591005325317383 2.596229910850525,-4.2246633768081665 l1.3705235719680786,-1.9049732387065887 0.6727728247642517,-1.0105416178703308 l0.74881412088871,-0.8128165453672409 0.5528346076607704,-0.27398649603128433 l0.7564941048622131,-0.2647937647998333 1.3002429902553558,-0.4474185034632683 l1.0623610019683838,0.04304526373744011 3.3120188117027283,0.45047301799058914 l1.3765515387058258,0.549689307808876 3.167411684989929,1.0990353673696518 l2.633333206176758,1.2311828136444092 2.509843409061432,2.326009124517441 l1.046273410320282,1.4360234141349792 1.4143472909927368,1.800539791584015 l1.791251003742218,1.9951367378234863 0.984293594956398,1.8204081058502197 l0.8171597123146057,1.1992333829402924 0.8588080853223801,1.2422439455986023 l0.46730004251003265,1.2045399844646454 0.6645087897777557,1.419118493795395 l0.19033275544643402,0.7062679529190063 0.3490309789776802,0.6924627721309662 l0.8755680173635483,1.0716202110052109 0.4436316341161728,1.016996055841446 l0.6718204170465469,0.9159743040800095 0.4577327147126198,0.9527247399091721 l0.5550602450966835,0.5611895397305489 0.3490721061825752,0.6514475494623184 l0.5164701864123344,0.003179276827722788 0.2662963792681694,-0.2589143440127373 l-0.10430221445858479,-0.7001467049121857 -0.31111570075154305,-1.2973059713840485 l-0.47135092318058014,-0.6273412704467773 -0.09043339639902115,-0.6201282888650894 l-0.23347178474068642,-0.7928776741027832 0.021008383482694626,-0.40391556918621063 l0.39313774555921555,-0.16972720623016357 0.8910579979419708,0.6202966719865799 l0.7409805059432983,0.327751561999321 0.5394769832491875,0.6357593834400177 l0.2531418390572071,0.22803997620940208 0.058185914531350136,0.32753024250268936 l-0.18856417387723923,-0.08538385853171349 -0.5258079245686531,-0.1291351579129696 l-0.44936787337064743,-0.44058550149202347 -0.5132351443171501,-0.461883544921875 l-0.4957890883088112,-0.6339046359062195 -0.6740032136440277,-0.514894649386406 l-0.410030297935009,-0.06680915132164955 -0.19167710095643997,0.01646523247472942 l-0.11527450755238533,0.020099091343581676 0.18990332260727882,0.25891611352562904 l0.3565577417612076,-0.054061561822891235 0.5592853203415871,0.00837060040794313 l0.7765805721282959,-0.07493564859032631 0.9001398831605911,-0.06392905954271555 l-0.25352487340569496,-0.26927649974823 -0.5481044948101044,-0.7321148365736008 l-0.2528047561645508,-0.6705649197101593 -2.059982270002365,-1.8844616413116455 l-0.869508758187294,-0.42296890169382095 -0.7207480072975159,-0.4422565922141075 l-0.2671371400356293,-0.9637577086687088 -0.10487023741006851,-1.0781282186508179 l0.23506240919232368,-1.2666042149066925 -0.15249977819621563,-1.9381093978881836 l-0.3536176308989525,-3.017907738685608 0.21770145744085312,-3.2509571313858032 l0.36886807531118393,-2.1366168558597565 0.45857828110456467,-1.7359575629234314 l0.8500955998897552,-2.673068046569824 1.4584080874919891,-3.726813793182373 l1.1120646446943283,-3.14615398645401 1.025116965174675,-2.7821293473243713 l1.995578408241272,-4.342588186264038 0.523957796394825,-1.9960299134254456 l0.7471197843551636,-2.7985557913780212 0.9956058114767075,-2.5303110480308533 l1.0911278426647186,-3.5913535952568054 0.8937744051218033,-3.2668817043304443 l1.13373763859272,-2.9991886019706726 0.8442016690969467,-3.064122200012207 l0.13106129132211208,-2.368558496236801 0.0487779313698411,-1.119295284152031 l-0.09408497251570225,-2.278425842523575 0.7573051005601883,-2.107876092195511 l0.7326637208461761,-4.133832156658173 0.661136731505394,-2.7177998423576355 l1.5817257761955261,-4.763510525226593 0.8301032334566116,-3.21443110704422 l0.5137034878134727,-2.689771354198456 0.2556021139025688,-1.5012608468532562 l0.42934298515319824,-1.3686129450798035 0.2014484629034996,-2.1649132668972015 l0.49233414232730865,-1.3531389832496643 -0.11344827711582184,-1.6028250753879547 l-0.43909527361392975,-1.2886817753314972 -0.5521021783351898,-1.2889690697193146 l-1.296197921037674,-1.7366856336593628 -1.5371567010879517,-1.3853719830513 l-101.22640609741211,-85.32148361206055 -0.12065605260431767,-0.030007604509592056 l-0.7120639085769653,0.027512612286955118 -0.36887548863887787,0.04945690743625164 l-0.5080977082252502,0.516575276851654 0.582064725458622,0.8907587826251984 l0.7670287042856216,0.43944191187620163 1.0485555231571198,-0.3106410428881645 l0.06423198617994785,-0.7311666011810303 0.17748024314641953,-0.45818284153938293 l-0.3347063809633255,-0.7956670969724655 -0.9478829056024551,-0.8891858905553818 l-0.7105293124914169,-0.6297067552804947 -0.5708081275224686,0.01745033194310963 l31.382558345794678,-2.7547642588615417 0.6388092041015625,0.5403626337647438 l0.7535066455602646,0.8744713664054871 0.8384054899215698,0.055745961144566536 l0.8796384185552597,-0.17378730699419975 0.08658997714519501,-0.29297085478901863 l-0.4686351493000984,-1.139301061630249 -0.9337123483419418,-1.1504409462213516 l-0.49499791115522385,0.0009367864549858496 -0.843808650970459,-0.18960705026984215 l-0.7219373434782028,0.08397012017667294 -0.7125633955001831,0.261704009026289 m-3.7137848138809204,7.0395296812057495 m6.7669618129730225,-0.0795902032405138 l1.855664998292923,-0.4814083129167557 -13.307770490646362,4.302838146686554 l-1.0644926130771637,-0.18841858953237534 0.011994006345048547,0.40890756994485855 l0.07217651698738337,0.523611344397068 1.4426256716251373,0.23231277242302895 l1.1864373832941055,-0.40920574218034744 0.9264490008354187,-0.5923984944820404 l0.3070739097893238,-0.9192829579114914 0.46516481786966324,-0.39381999522447586 l0.07030820474028587,-0.705513209104538 -22.476413249969482,5.600671172142029 l0.839182510972023,-1.5279881656169891 -0.13025939464569092,-0.4037252441048622 l0.030312342569231987,-0.7825659215450287 0.4304486885666847,-0.28592130169272423 l0.4165481775999069,-0.868661105632782 0.7323408871889114,-0.7243677973747253 l1.4551684260368347,-1.0685773938894272 0.42183175683021545,-0.463704876601696 l0.1983320526778698,-0.23923775181174278 0.26031117886304855,-0.14648323878645897 l0.10620479471981525,-0.4853745177388191 1.0730066895484924,-0.33550065010786057 l0.45132383704185486,0.13568083755671978 0.6456789374351501,0.10450362227857113 l1.219780072569847,0.9203555434942245 0.5649277940392494,0.3545854240655899 l0.8963776379823685,0.4219908267259598 0.38593485951423645,0.5189795419573784 l0.3829137980937958,0.43276865035295486 0.7773154228925705,0.5514055863022804 l0.23484712466597557,0.68918377161026 0.8464603871107101,1.313147395849228 l1.1034288257360458,1.260952651500702 0.5624439939856529,0.7058330625295639 l0.6890931725502014,0.5732885748147964 0.619334876537323,0.6926578283309937 l0.17195602878928185,0.45912835747003555 0.23534929379820824,1.015051081776619 l-1.0236582159996033,0.8974023163318634 -0.7378996163606644,0.6474868953227997 l-0.9631571918725967,0.5657588690519333 -0.922398641705513,-0.10330714285373688 l-0.6717482954263687,0.062068020924925804 -1.330006718635559,0.1086284127086401 l-0.7890717685222626,0.04855234641581774 -1.6976790130138397,0.17766814678907394 l-1.828252375125885,0.2719862200319767 -1.508234441280365,-0.18254408612847328 l-2.23634734749794,0.4770125076174736 -1.3214343786239624,0.18038924783468246 l-1.3461577892303467,0.17839189618825912 -1.3517001271247864,0.3224320709705353 l-1.1333420127630234,-0.08289004676043987 -2.6430290937423706,-1.0460910201072693 l-1.4441393315792084,-0.6369253993034363 -2.3239827156066895,-1.2585723400115967 l-1.6936692595481873,-1.1362437903881073 -1.2683239579200745,-0.906277671456337 l-3.237217664718628,-2.198326885700226 -0.5999141186475754,-1.650855839252472 l-1.0882237553596497,-1.302424967288971 -0.3269435837864876,-1.6331197321414948 l-1.2590932846069336,-3.3475488424301147 -1.5980756282806396,-4.162305593490601 l-0.03457670332863927,-1.6981324553489685 -0.07319625467061996,-0.8980337530374527 l-0.29611771926283836,-1.1940774321556091 -0.3308940678834915,-1.2214594334363937 l-0.6752766668796539,-1.0232137888669968 -0.6669648736715317,-0.729246586561203 l-0.8265478909015656,-0.21205490455031395 -0.6509381532669067,-0.4817720130085945 l-0.8433106541633606,-0.4587450996041298 -0.5267369374632835,-0.382765494287014 l-0.748651996254921,-0.47647397965192795 -0.6738168001174927,-0.04474561661481857 l-0.5911800637841225,-0.45808419585227966 -0.7633841037750244,-0.6174543872475624 l-0.6346283107995987,-0.009405725286342204 -0.7411855459213257,0.13090789318084717 l-0.6362742930650711,0.09158565662801266 -0.37898246198892593,-0.47670241445302963 l-0.14936471357941628,-0.46149205416440964 0.30268579721450806,-0.21972786635160446 l0.2026517502963543,-0.30858026817440987 0.5252876505255699,-0.0982951745390892 l0.6480523943901062,0.018618095200508833 0.6621824949979782,-0.04612900782376528 l0.8217030018568039,0.3040999732911587 -0.04412451758980751,-0.3067997843027115 l0.08450989611446857,-0.002615059493109584 -0.26731962338089943,0.27235912159085274 l-0.591161698102951,-0.40190543979406357 -0.18827101215720177,-0.5846359953284264 l-0.5507047101855278,-0.35424038767814636 -0.5204131454229355,-0.11270430870354176 l0.32364632934331894,0.34823421388864517 0.150736840441823,0.2319500409066677 l0.07941694930195808,0.5449358373880386 0.2914128825068474,0.4316519945859909 l0.09749249555170536,0.470602884888649 0.44139351695775986,0.26886072009801865 l0.1316301804035902,0.08207647129893303 0.3212841972708702,-0.14423656277358532 l0.17008978873491287,-0.5640891566872597 0.19069911912083626,-0.4565388336777687 l0.3465859591960907,-0.41376806795597076 0.22886501625180244,-0.49380745738744736 l0.11332450434565544,0.02138537121936679 0.04620833322405815,0.01645205426029861 l0.5557962134480476,-0.033849391620606184 0.5349461734294891,0.28290530666708946 l1.0977805405855179,0.16553502529859543 0.519767552614212,-0.00285834918031469 l1.2152168154716492,0.232242401689291 1.9636113941669464,0.09701026603579521 l0.5803516507148743,0.3354889526963234 0.8290340006351471,-0.05802073981612921 l0.7463331520557404,0.3364674001932144 0.6275098025798798,-0.06530280690640211 l0.529719889163971,0.10332942008972168 0.7562263309955597,0.20028384402394295 l0.2942100167274475,0.26462720707058907 0.5119968578219414,0.7234247773885727 l0.1146350335329771,0.5896644666790962 0.15015412122011185,0.3119303472340107 l0.44488828629255295,0.7988130301237106 0.35580631345510483,0.6902608275413513 l0.5349534377455711,1.3089382648468018 0.5124183744192123,0.9589461982250214 l0.5851055309176445,0.4819069430232048 0.533667616546154,0.6955156475305557 l0.9297101199626923,0.7287456095218658 0.5903159454464912,0.44865377247333527 l1.799791157245636,0.9860213845968246 1.1629107594490051,0.7455233484506607 l0.9470077604055405,0.675031766295433 1.226070448756218,0.39272647351026535 l1.6219347715377808,0.29268795624375343 1.054166927933693,0.2404157631099224 l0.4853707179427147,0.448615700006485 1.333104819059372,0.8620352298021317 l0.1134942751377821,0.95621757209301 0.19858235493302345,1.0622765123844147 l-1.2426037341356277,1.9197340309619904 -36.7880654335022,-74.09388065338135 l-1.071166768670082,0.7346121221780777 -0.68804532289505,0.5519801750779152 l-0.9251498430967331,0.5488667264580727 -0.6526012718677521,0.6962684541940689 l-0.9932457655668259,1.13093763589859 -0.994042307138443,1.1371320486068726 l-1.1607882380485535,1.3663825392723083 -2.1149875223636627,1.870768815279007 l-1.767129898071289,1.9009016454219818 -2.6665380597114563,2.499788850545883 l-1.7753289639949799,2.1007980406284332 -2.4177564680576324,3.005915880203247 l-1.7273052036762238,2.168169319629669 -1.6460400819778442,2.3830874264240265 l-1.6443845629692078,2.5952833890914917 -1.4655186235904694,2.8143516182899475 l-4.259409010410309,14.32741403579712 -0.06740093231201172,4.891867637634277 l-0.3032531216740608,4.304397702217102 -0.1289230864495039,5.0052231550216675 l0.8235359936952591,16.312211751937866 1.3857515156269073,7.9715001583099365 l3.3842405676841736,7.354109287261963 7.025218605995178,11.368129253387451 l4.400189518928528,5.680703520774841 3.0226439237594604,2.3542582988739014 l5.24070143699646,3.649064004421234 5.816423296928406,2.819317877292633 l4.730309545993805,1.686486154794693 5.032175779342651,1.3835658133029938 l3.566969931125641,1.019413024187088 3.8915881514549255,1.6837497055530548 l5.888738632202148,2.6421794295310974 3.293215334415436,0.9459808468818665 l2.8766250610351562,0.5907635018229485 2.2145217657089233,-0.0061130349058657885 l6.437053680419922,-0.12871085666120052 3.3854225277900696,0.16052566468715668 l2.4174664914608,0.2378600649535656 2.807854413986206,0.16602188348770142 l3.664582669734955,-0.5127974972128868 3.981970250606537,-1.5220610797405243 l3.082188367843628,-1.4430317282676697 3.1725656986236572,-2.109922170639038 l2.113330513238907,-1.6581431031227112 1.30531445145607,-1.4163793623447418 l0.882975161075592,-1.0390641540288925 0.5993525311350822,-1.1731871217489243 l0.05081935320049524,-0.39130404591560364 -0.24908287450671196,-0.5801576003432274 l-0.03817038843408227,-0.24123990908265114 -0.08956329897046089,-0.034524002112448215 l-0.2622392401099205,0.0651051476597786 0.05619498435407877,0.22944709286093712 l0.07622485049068928,0.11514890007674694 0.6653191149234772,0.1725962944328785 l0.38571402430534363,-0.07686428725719452 0.07381654344499111,-0.6434866786003113 l0.42627450078725815,-0.749691054224968 0.35557135939598083,-0.45424550771713257 l-0.07700121961534023,-0.34543469548225403 -0.041875140741467476,-0.5038798972964287 l-0.02762497402727604,-0.9204588830471039 -0.009097198490053415,-1.363031417131424 l0.24126404896378517,-0.4145597293972969 -0.45254338532686234,-0.23550111800432205 l-0.4096054658293724,-0.05726139061152935 -0.4604952409863472,0.13670209795236588 l-0.5725739151239395,0.2165607362985611 -0.7184706628322601,0.42746134102344513 l-0.19977983087301254,0.24332864210009575 -0.4484150558710098,0.37832628935575485 l-0.36619167774915695,0.16671337187290192 0.15308781526982784,0.25395531207323074 l0.5527975782752037,-0.47702889889478683 0.1524899434298277,-0.7565301656723022 l0.33747002482414246,-0.5647089332342148 0.4347357153892517,-0.6034616380929947 l0.24520386010408401,-0.5514390766620636 0.22566750645637512,-0.5849263817071915 l-0.032326027285307646,-0.2745665982365608 -0.3076697140932083,-0.2725682035088539 l-0.5698416009545326,0.29630327597260475 -0.29994962736964226,0.46562574803829193 l-0.7305996865034103,0.7196246087551117 -0.5029574036598206,0.8082443475723267 l-0.4879041016101837,0.6523183733224869 -0.27752919122576714,0.1828463189303875 l0.24512695148587227,-0.5211518704891205 0.4498216137290001,-1.2557300925254822 l0.5091024190187454,-0.5795098096132278 0.6092588603496552,-0.6118901073932648 l0.5360100418329239,-0.6164966151118279 0.4171011969447136,0.11479857377707958 l-0.0423008156940341,0.13332657516002655 -0.4644804075360298,0.590040348470211 l-0.7066387683153152,0.7999013364315033 -0.7680083811283112,0.37029534578323364 l0.028353717643767595,-0.45113321393728256 0.3701658919453621,-0.2525330148637295 l0.9011822193861008,-0.4914277046918869 0.6353385001420975,-0.7598498463630676 l1.0034281015396118,-0.5773638188838959 0.8214636892080307,-1.1420519649982452 l0.05028503015637398,-0.8517139405012131 0.08397052995860577,-0.6337594240903854 l-0.010309509234502912,-0.25902753695845604 -0.6288745999336243,-0.03309802385047078 l-0.4582170769572258,-0.0033029451151378453 -0.5279697850346565,0.500941276550293 l-0.6912034749984741,0.1452173851430416 -0.7288162410259247,0.46728063374757767 l-0.7188688963651657,0.5094285681843758 -0.5497987568378448,0.3707589954137802 l-0.6658485531806946,0.3819107636809349 -0.6163593381643295,0.2427944727241993 l-0.4544902592897415,-0.2621900290250778 -0.24308165535330772,-0.22892992943525314 l-0.014160649152472615,-0.5735960602760315 0.3670740872621536,-0.8145318180322647 l0.05346274469047785,-0.6844936311244965 -0.012206265237182379,-0.5176229774951935 l0.38593724370002747,-0.2960328385233879 0.13548613525927067,0.07291092071682215 l0.1674116589128971,0.4067820683121681 -0.0522507494315505,0.33057931810617447 l-0.13832350261509418,0.6716468185186386 -0.4103698581457138,0.41119180619716644 l-0.4973364621400833,0.535569041967392 -0.32670818269252777,0.55031418800354 l-0.5081735178828239,0.7242029905319214 -0.7677749544382095,1.426631212234497 l-0.5014997348189354,0.632629469037056 -0.3601645678281784,1.0078365355730057 l-0.8790227025747299,1.010850965976715 -1.0176744312047958,1.9878770411014557 l-0.9951174259185791,0.9716726094484329 -0.6018484756350517,0.37816792726516724 l-0.5737269669771194,0.6925542652606964 -0.7704360038042068,0.38477059453725815 l-0.979766920208931,0.7582665234804153 -1.2020964175462723,0.6571970134973526 l-0.8964880555868149,0.7103823125362396 -0.8350099623203278,0.8024352788925171 l-0.39573151618242264,0.3543847054243088 -0.6641854345798492,0.15643054619431496 l-0.3288087621331215,0.19143443554639816 -0.5391282588243484,-0.44425901025533676 l-0.23310935124754906,-0.16985304653644562 -0.23228967562317848,-0.8960263431072235 l-0.8206956833600998,-2.2663524746894836 -0.0315567129291594,-1.984872967004776 l-0.28218282386660576,-0.7101137191057205 m-0.679447278380394,-2.2378021478652954 l24.530458450317383,-55.23223876953125 3.05276095867157,-0.989028662443161 l4.4047993421554565,-1.5641047060489655 1.4172384142875671,-0.4653346538543701 l0.5167714133858681,-0.1721065677702427 1.0515626519918442,-0.7874826341867447 l0.461670383810997,-0.40987275540828705 1.70393705368042,-0.7538947463035583 l2.153467684984207,-1.0451393574476242 1.6921445727348328,-0.3978077322244644 l2.4025744199752808,-0.8874723315238953 1.897193193435669,-0.2694479376077652 l1.9521984457969666,-0.43351538479328156 4.962482154369354,-0.5003490671515465 l2.666325569152832,-0.3961372748017311 2.704099416732788,0.029172701761126518 l2.892121374607086,0.0970937218517065 3.1180307269096375,0.27487507089972496 l3.4788215160369873,0.15087167732417583 6.995916366577148,1.629781574010849 l3.7471625208854675,1.0231781005859375 2.917684018611908,1.2377432733774185 l3.5611936450004578,1.0841550678014755 4.476029574871063,1.7747747898101807 l2.982740104198456,1.6406160593032837 1.3729232549667358,1.1077038943767548 l2.294990122318268,1.699654906988144 1.7343363165855408,1.5061849355697632 l3.7882834672927856,3.9070382714271545 2.2581201791763306,2.3641879856586456 l1.1165927350521088,1.8998341262340546 2.1158547699451447,2.3107488453388214 l0.9419715404510498,1.4639836549758911 0.8054404705762863,1.371593028306961 l1.2790675461292267,1.3555820286273956 1.173502579331398,1.905384361743927 l0.8548027276992798,1.8190698325634003 1.3154248893260956,2.336001992225647 l1.0494498163461685,1.5549050271511078 0.4654690623283386,1.5372499823570251 l0.5406085029244423,1.6197235882282257 0.02653069794178009,1.080024540424347 l0.11049487628042698,1.2094691395759583 -0.11031546629965305,1.7184102535247803 l-0.3148321807384491,0.8710971474647522 0.07248423062264919,1.302575170993805 l-0.029007226694375277,0.8867999911308289 -0.06337258964776993,0.7696884125471115 l-0.014772277791053057,1.027057021856308 0.13236475177109241,1.9458997249603271 l0.18875451758503914,1.319994181394577 0.22514261305332184,1.2575089931488037 l0.3071517124772072,1.2205315381288528 -0.12411217205226421,0.28487861156463623 l0.09655454196035862,1.1527124047279358 -0.0024163557100109756,0.5110089480876923 l0.38751229643821716,0.8605435490608215 0.12504967860877514,0.9410368651151657 l-0.004778461006935686,0.5758067220449448 0.1909329742193222,0.2535916678607464 l0.32634686678647995,-0.27497513219714165 0.4495943710207939,0.03924188669770956 l0.33505257219076157,-0.5361269041895866 0.3921128436923027,-0.21052062511444092 l0.10587205179035664,-0.11739875189960003 0.04057722166180611,-0.42852509766817093 l-0.12276498600840569,0.27362335473299026 0.26735173538327217,0.17805811017751694 l0.24812214076519012,1.2013137340545654 0.11592716909945011,0.2429637871682644 l-0.1917191781103611,0.2851235307753086 0.48496413975954056,0.9882740676403046 l0.20737914368510246,0.2966766990721226 0.5456040799617767,0.2001592330634594 l0.265439972281456,-0.48007868230342865 0.5017049610614777,-0.22317130118608475 l0.15753954648971558,-0.5208054929971695 0.060023050755262375,-0.4793800786137581 l0.1904585398733616,-0.22489311173558235 0.16718950122594833,-0.5651863291859627 l0.3307311236858368,-0.4880284145474434 0.5596522986888885,-0.3664795681834221 l0.281667523086071,-0.32740410417318344 0.6093709543347359,-0.8465660363435745 l0.26860909536480904,-0.5596313625574112 0.35214200615882874,-0.2944319136440754 l0.2530691586434841,-0.4359070211648941 1.0879721492528915,-0.5095318332314491 l0.896509438753128,-0.5603542551398277 0.8839324116706848,-0.6691689789295197 l0.8515274524688721,-0.7173902541399002 0.9806740283966064,-0.9767983853816986 l1.4640119671821594,-1.711098551750183 0.7803504914045334,-0.9773528575897217 l1.2573136389255524,-2.2328466176986694 1.1434867233037949,-1.8659648299217224 l1.3866902887821198,-3.099070191383362 2.064494341611862,-5.162496566772461 l0.6809017062187195,-2.7255871891975403 0.6236786395311356,-4.681120812892914 l-0.1544737070798874,-4.259429574012756 0.24770861491560936,-2.870531976222992 l0.5619057267904282,-2.8609314560890198 1.3916704058647156,-3.4892037510871887 l0.452549085021019,-5.261091589927673 0.3127468377351761,-3.284538984298706 l0.4106995463371277,-3.8069379329681396 0.41776373982429504,-2.550395429134369 l0.2792094089090824,-4.417532682418823 -0.2727152779698372,-3.2481014728546143 l-0.5251459032297134,-7.104771137237549 -0.18493523821234703,-3.9645203948020935 l-0.3259441629052162,-2.748692035675049 -0.09555663913488388,-3.4764257073402405 l-0.2545982785522938,-3.97745281457901 -0.256440844386816,-4.127454161643982 l-0.5405169725418091,-7.973581552505493 -0.30989643186330795,-2.737228572368622 l-1.5018460154533386,-2.9906833171844482 -1.1764170229434967,-2.0348261296749115 l-1.4936859905719757,-2.7450957894325256 -1.8576638400554657,-2.1411970257759094 l-2.828744053840637,-2.3176871240139008 -60.54977893829346,-38.886311054229736 l-1.2471848726272583,0.20891554653644562 -0.1406989712268114,-0.4226384311914444 l0.6958754360675812,-0.42447999119758606 1.0128630697727203,-0.3508831560611725 l1.336940973997116,-0.7603153586387634 1.0576003789901733,-0.9357259422540665 l0.3695857897400856,-0.3542264550924301 0.17609655857086182,-0.6293348968029022 l-0.9787943214178085,-0.4012426361441612 -0.5541927739977837,-0.3101266920566559 l-0.7791202515363693,0.246796403080225 -0.6167890876531601,0.2457941509783268 l-0.5352099612355232,-0.16880663111805916 m4.673973023891449,2.308027148246765 m2.74755597114563,-0.9154738485813141 l-0.2341277152299881,-0.30345259234309196 m-0.35350874066352844,0.42840462177991867 l-0.8239395171403885,0.12984157539904118 -0.505218468606472,0.12794927693903446 l-0.4293946176767349,0.18464643508195877 0.22923806682229042,0.4067472741007805 l-0.4311002790927887,0.2899896912276745 0.01263041514903307,0.33213119953870773 l0.20141985267400742,-0.13128659687936306 0.5112646892666817,0.09212824515998363 l0.3875003010034561,-0.5339423567056656 0.6330893933773041,-0.4188556969165802 l0.7846218347549438,-0.6469599902629852 0.09192143566906452,-0.6718708574771881 l0.21263929083943367,-0.6494872272014618 -0.007574824849143624,-0.6791521608829498 l-0.4199650511145592,-0.5285611748695374 -0.361417755484581,-0.308556891977787 l-0.37342723459005356,-0.35222504287958145 -0.9462923556566238,-0.26172133162617683 m4.403311014175415,0.710349977016449 m-7.730358242988586,5.62735378742218 m1.4166277647018433,1.6470645368099213 l0.08606791496276855,-0.32228559255599976 0.6347199529409409,0.07204059511423111 l0.7011467963457108,-0.8781072497367859 1.321679800748825,-0.4266642779111862 l0.5279960855841637,-0.8725206553936005 0.607692040503025,-0.48631977289915085 l0.5227147042751312,-0.1277743373066187 0.13679668307304382,-0.0897561851888895 l0.0966141652315855,0.08485609665513039 -0.19735723733901978,0.28793416917324066 " fill="none" stroke="black" stroke-width="1" /></svg>