solid OpenSCAD_Model
  facet normal -1 0 0
    outer loop
      vertex 0 35 0
      vertex 0 30 2
      vertex 0 35 2
    endloop
  endfacet
  facet normal -1 0 0
    outer loop
      vertex 0 30 2
      vertex 0 20 2
      vertex 0 30 10
    endloop
  endfacet
  facet normal -1 0 0
    outer loop
      vertex 0 35 0
      vertex 0 20 2
      vertex 0 30 2
    endloop
  endfacet
  facet normal -1 0 0
    outer loop
      vertex 0 0 0
      vertex 0 20 2
      vertex 0 35 0
    endloop
  endfacet
  facet normal -1 -0 0
    outer loop
      vertex 0 20 2
      vertex 0 0 0
      vertex 0 10 2
    endloop
  endfacet
  facet normal -1 0 0
    outer loop
      vertex 0 0 10
      vertex 0 10 2
      vertex 0 0 0
    endloop
  endfacet
  facet normal -1 0 0
    outer loop
      vertex 0 10 2
      vertex 0 0 10
      vertex 0 10 10
    endloop
  endfacet
  facet normal -1 -0 0
    outer loop
      vertex 0 30 10
      vertex 0 20 2
      vertex 0 20 10
    endloop
  endfacet
  facet normal -0 0 1
    outer loop
      vertex 0 35 2
      vertex 10 30 2
      vertex 10 35 2
    endloop
  endfacet
  facet normal 0 0 1
    outer loop
      vertex 10 30 2
      vertex 0 35 2
      vertex 0 30 2
    endloop
  endfacet
  facet normal -0 0 1
    outer loop
      vertex 0 20 2
      vertex 10 10 2
      vertex 10 20 2
    endloop
  endfacet
  facet normal 0 0 1
    outer loop
      vertex 10 10 2
      vertex 0 20 2
      vertex 0 10 2
    endloop
  endfacet
  facet normal 1 0 0
    outer loop
      vertex 10 10 10
      vertex 10 0 10
      vertex 10 10 2
    endloop
  endfacet
  facet normal 1 0 0
    outer loop
      vertex 10 30 10
      vertex 10 20 10
      vertex 10 30 2
    endloop
  endfacet
  facet normal 1 -0 0
    outer loop
      vertex 10 30 2
      vertex 10 35 0
      vertex 10 35 2
    endloop
  endfacet
  facet normal 1 0 0
    outer loop
      vertex 10 20 2
      vertex 10 30 2
      vertex 10 20 10
    endloop
  endfacet
  facet normal 1 -0 0
    outer loop
      vertex 10 20 2
      vertex 10 35 0
      vertex 10 30 2
    endloop
  endfacet
  facet normal 1 0 0
    outer loop
      vertex 10 0 0
      vertex 10 20 2
      vertex 10 10 2
    endloop
  endfacet
  facet normal 1 0 0
    outer loop
      vertex 10 20 2
      vertex 10 0 0
      vertex 10 35 0
    endloop
  endfacet
  facet normal 1 0 0
    outer loop
      vertex 10 0 0
      vertex 10 10 2
      vertex 10 0 10
    endloop
  endfacet
  facet normal 0 1 -0
    outer loop
      vertex 10 35 0
      vertex 0 35 2
      vertex 10 35 2
    endloop
  endfacet
  facet normal 0 1 0
    outer loop
      vertex 0 35 2
      vertex 10 35 0
      vertex 0 35 0
    endloop
  endfacet
  facet normal 0 0 -1
    outer loop
      vertex 0 0 0
      vertex 10 35 0
      vertex 10 0 0
    endloop
  endfacet
  facet normal -0 0 -1
    outer loop
      vertex 10 35 0
      vertex 0 0 0
      vertex 0 35 0
    endloop
  endfacet
  facet normal 0 -1 0
    outer loop
      vertex 0 0 0
      vertex 10 0 10
      vertex 0 0 10
    endloop
  endfacet
  facet normal 0 -1 -0
    outer loop
      vertex 10 0 10
      vertex 0 0 0
      vertex 10 0 0
    endloop
  endfacet
  facet normal -0 0 1
    outer loop
      vertex 0 10 10
      vertex 10 0 10
      vertex 10 10 10
    endloop
  endfacet
  facet normal 0 0 1
    outer loop
      vertex 10 0 10
      vertex 0 10 10
      vertex 0 0 10
    endloop
  endfacet
  facet normal 0 1 -0
    outer loop
      vertex 10 10 2
      vertex 0 10 10
      vertex 10 10 10
    endloop
  endfacet
  facet normal 0 1 0
    outer loop
      vertex 0 10 10
      vertex 10 10 2
      vertex 0 10 2
    endloop
  endfacet
  facet normal -0 0 1
    outer loop
      vertex 0 30 10
      vertex 10 20 10
      vertex 10 30 10
    endloop
  endfacet
  facet normal 0 0 1
    outer loop
      vertex 10 20 10
      vertex 0 30 10
      vertex 0 20 10
    endloop
  endfacet
  facet normal 0 -1 0
    outer loop
      vertex 0 20 2
      vertex 10 20 10
      vertex 0 20 10
    endloop
  endfacet
  facet normal 0 -1 -0
    outer loop
      vertex 10 20 10
      vertex 0 20 2
      vertex 10 20 2
    endloop
  endfacet
  facet normal 0 1 -0
    outer loop
      vertex 10 30 2
      vertex 0 30 10
      vertex 10 30 10
    endloop
  endfacet
  facet normal 0 1 0
    outer loop
      vertex 0 30 10
      vertex 10 30 2
      vertex 0 30 2
    endloop
  endfacet
endsolid OpenSCAD_Model
