<?xml version="1.0" encoding="UTF-8" standalone="no"?><!DOCTYPE svg PUBLIC "-//W3C//DTD SVG 1.1//EN" "http://www.w3.org/Graphics/SVG/1.1/DTD/svg11.dtd"><svg width="100%" height="100%" viewBox="0 0 142 138" version="1.1" xmlns="http://www.w3.org/2000/svg" xmlns:xlink="http://www.w3.org/1999/xlink" xml:space="preserve" xmlns:serif="http://www.serif.com/" style="fill-rule:evenodd;clip-rule:evenodd;stroke-linejoin:round;stroke-miterlimit:2;"><path d="M70.504,0c-38.933,0 -70.504,31.564 -70.504,70.504c0,31.149 20.201,57.576 48.215,66.899c3.523,0.653 4.817,-1.529 4.817,-3.392c-0,-1.68 -0.066,-7.235 -0.096,-13.126c-19.614,4.265 -23.753,-8.318 -23.753,-8.318c-3.207,-8.148 -7.828,-10.316 -7.828,-10.316c-6.397,-4.376 0.482,-4.286 0.482,-4.286c7.08,0.497 10.808,7.266 10.808,7.266c6.288,10.777 16.493,7.661 20.516,5.86c0.634,-4.556 2.46,-7.667 4.477,-9.428c-15.66,-1.781 -32.122,-7.828 -32.122,-34.843c-0,-7.696 2.754,-13.987 7.264,-18.924c-0.732,-1.776 -3.145,-8.947 0.684,-18.658c0,-0 5.921,-1.894 19.393,7.228c5.624,-1.562 11.655,-2.346 17.647,-2.374c5.991,0.028 12.027,0.812 17.662,2.374c13.456,-9.122 19.369,-7.228 19.369,-7.228c3.837,9.711 1.424,16.882 0.692,18.658c4.521,4.937 7.255,11.228 7.255,18.924c-0,27.08 -16.494,33.042 -32.193,34.787c2.529,2.188 4.782,6.479 4.782,13.056c0,9.434 -0.08,17.026 -0.08,19.348c-0,1.878 1.267,4.075 4.841,3.384c27.999,-9.333 48.175,-35.752 48.175,-66.891c0,-38.94 -31.566,-70.504 -70.503,-70.504" style="fill:#181717;"/><path d="M26.704,101.227c-0.156,0.351 -0.707,0.456 -1.209,0.216c-0.512,-0.231 -0.798,-0.709 -0.632,-1.06c0.151,-0.36 0.702,-0.46 1.214,-0.22c0.511,0.23 0.803,0.712 0.627,1.064" style="fill:#181717;fill-rule:nonzero;"/><path d="M29.56,104.412c-0.336,0.312 -0.995,0.167 -1.44,-0.325c-0.462,-0.492 -0.547,-1.15 -0.206,-1.466c0.346,-0.311 0.984,-0.165 1.445,0.326c0.462,0.498 0.552,1.149 0.201,1.465" style="fill:#181717;fill-rule:nonzero;"/><path d="M32.34,108.472c-0.432,0.302 -1.14,0.02 -1.577,-0.607c-0.432,-0.628 -0.432,-1.38 0.011,-1.681c0.437,-0.301 1.134,-0.029 1.576,0.592c0.431,0.637 0.431,1.389 -0.01,1.696" style="fill:#181717;fill-rule:nonzero;"/><path d="M36.148,112.396c-0.387,0.426 -1.21,0.311 -1.812,-0.271c-0.617,-0.568 -0.788,-1.374 -0.402,-1.8c0.392,-0.428 1.22,-0.308 1.827,0.269c0.612,0.568 0.798,1.38 0.387,1.802" style="fill:#181717;fill-rule:nonzero;"/><path d="M41.401,114.674c-0.171,0.552 -0.963,0.802 -1.761,0.567c-0.798,-0.242 -1.32,-0.887 -1.159,-1.445c0.166,-0.556 0.963,-0.818 1.767,-0.567c0.796,0.241 1.319,0.883 1.153,1.445" style="fill:#181717;fill-rule:nonzero;"/><path d="M47.172,115.096c0.02,0.581 -0.658,1.063 -1.496,1.074c-0.843,0.018 -1.526,-0.452 -1.535,-1.024c-0,-0.587 0.663,-1.064 1.505,-1.079c0.838,-0.016 1.526,0.452 1.526,1.029" style="fill:#181717;fill-rule:nonzero;"/><path d="M52.541,114.182c0.1,0.566 -0.483,1.149 -1.315,1.304c-0.818,0.151 -1.576,-0.2 -1.68,-0.762c-0.102,-0.581 0.49,-1.164 1.309,-1.315c0.833,-0.144 1.579,0.196 1.686,0.773" style="fill:#181717;fill-rule:nonzero;"/></svg>